<svg xmlns="http://www.w3.org/2000/svg" xmlns:xlink="http://www.w3.org/1999/xlink" width="0" height="0" style="display:none;"><symbol viewBox="0 0 24 24" id="inco-icons-add">
  <defs>
    <style>
      .cls-1 {
        fill: #000;
        stroke-width: 0px;
      }
    </style>
  </defs>
  <path class="cls-1" d="M20,11h-7v-7c0-.55-.45-1-1-1s-1,.45-1,1v7h-7c-.55,0-1,.45-1,1s.45,1,1,1h7v7c0,.55.45,1,1,1s1-.45,1-1v-7h7c.55,0,1-.45,1-1s-.45-1-1-1Z"></path>
</symbol><symbol viewBox="0 0 16 16" id="inco-icons-add_folder">
  <path class="cls-1" d="M10.33,9.75c0,.32-.26.58-.58.58h-1.17v1.17c0,.32-.26.58-.58.58s-.58-.26-.58-.58v-1.17h-1.17c-.32,0-.58-.26-.58-.58s.26-.58.58-.58h1.17v-1.17c0-.32.26-.58.58-.58s.58.26.58.58v1.17h1.17c.32,0,.58.26.58.58ZM15,5.67v5.83c0,1.61-1.31,2.91-2.92,2.92H3.92c-1.61,0-2.91-1.31-2.92-2.92v-7c0-1.61,1.31-2.91,2.92-2.92h1.47c.27,0,.54.06.78.18l1.84.92c.08.04.17.06.26.06h3.81c1.61,0,2.91,1.31,2.92,2.92ZM2.17,4.5v.58h11.56c-.25-.7-.9-1.16-1.64-1.17h-3.81c-.27,0-.54-.06-.78-.18l-1.84-.92c-.08-.04-.17-.06-.26-.06h-1.47c-.97,0-1.75.78-1.75,1.75ZM13.83,11.5v-5.25H2.17v5.25c0,.97.78,1.75,1.75,1.75h8.17c.97,0,1.75-.78,1.75-1.75Z"></path>
</symbol><symbol viewBox="0 0 24 24" id="inco-icons-address">
  <defs>
    <style>
      .cls-1 {
        fill: #000;
        stroke-width: 0px;
      }
    </style>
  </defs>
  <path class="cls-1" d="M20.64,9.88l-1.77-.59c.08-.48.13-.97.13-1.46,0-3.77-3.14-6.83-7-6.83s-7,3.06-7,6.83c0,.29.03.57.06.86l-.42-.14c-.61-.21-1.29-.11-1.81.27-.52.38-.83.98-.83,1.63v8.89c0,.85.54,1.61,1.36,1.9l5,1.66c.21.07.42.1.64.1s.43-.03.63-.1l5.37-1.78,4.35,1.45c.61.21,1.29.11,1.81-.27.52-.37.83-.98.83-1.63v-8.89c0-.85-.54-1.61-1.36-1.9ZM12,3c2.76,0,5,2.17,5,4.83,0,.63-.08,1.26-.26,1.95,0,0,0,0,0,0-.01.07-.03.13-.05.2-.92,3.05-3.58,5.1-4.68,5.84-.06-.04-.13-.09-.2-.14-.87-.6-2.37-1.82-3.47-3.55-.31-.48-.59-.99-.81-1.55-.08-.21-.16-.43-.22-.66,0,0,0,0,0,0,0-.01,0-.02,0-.03-.2-.66-.3-1.35-.3-2.05,0-2.66,2.24-4.83,5-4.83ZM20,20.67l-4.36-1.45c-.42-.14-.86-.14-1.27,0l-5.37,1.78-5-1.66v-8.89s1.54.51,1.54.51c.04.11.08.22.12.33,0,0,0,.02,0,.03,1.63,4.18,5.67,6.46,5.85,6.56.15.08.32.13.49.13s.33-.04.49-.13c.07-.04.68-.38,1.49-1.01.01,0,.02-.02.04-.03.11-.09.23-.18.35-.28.03-.03.07-.05.1-.08.11-.09.22-.19.33-.29.05-.04.1-.08.15-.13.11-.1.21-.2.32-.3.06-.06.11-.11.17-.17.1-.1.2-.21.31-.31.06-.07.13-.13.19-.2.1-.11.2-.22.29-.33.07-.08.13-.16.2-.23.09-.11.19-.23.28-.35.07-.09.13-.17.2-.26.09-.12.18-.25.26-.37.06-.1.13-.19.19-.29.08-.13.16-.26.24-.39.06-.1.12-.21.17-.32.07-.14.15-.28.22-.42.05-.11.1-.22.15-.34.07-.15.13-.29.19-.45,0-.02.02-.05.03-.07l1.63.55v8.89Z"></path>
  <path class="cls-1" d="M12,10.5c1.65,0,3-1.35,3-3s-1.35-3-3-3-3,1.35-3,3,1.35,3,3,3ZM12,6.5c.55,0,1,.45,1,1s-.45,1-1,1-1-.45-1-1,.45-1,1-1Z"></path>
</symbol><symbol viewBox="0 0 24 24" id="inco-icons-authority">
  <defs>
    <style>
      .cls-1 {
        fill: #000;
        stroke-width: 0px;
      }
    </style>
  </defs>
  <path class="cls-1" d="M20,13.18v-.18c0-1.65-1.35-3-3-3s-3,1.35-3,3v.18c-1.16.41-2,1.51-2,2.82v3c0,1.65,1.35,3,3,3h4c1.65,0,3-1.35,3-3v-3c0-1.3-.84-2.4-2-2.82ZM17,12c.55,0,1,.45,1,1h-2c0-.55.45-1,1-1ZM20,19c0,.55-.45,1-1,1h-4c-.55,0-1-.45-1-1v-3c0-.55.45-1,1-1h4c.55,0,1,.45,1,1v3Z"></path>
  <path class="cls-1" d="M16.81,16.52c-.07,0-.13.03-.19.06-.06.02-.12.05-.18.09l-.15.12c-.18.19-.29.44-.29.71s.11.52.29.71c.05.04.1.08.15.12.06.04.12.07.18.09.06.03.12.05.19.06.06,0,.13.02.19.02.27,0,.52-.11.71-.29.04-.05.08-.1.12-.16.04-.05.07-.11.09-.17.03-.06.05-.12.06-.18.01-.07.02-.13.02-.2,0-.26-.11-.52-.29-.71-.23-.23-.57-.33-.9-.27Z"></path>
  <path class="cls-1" d="M9,10c2.21,0,4-1.79,4-4s-1.79-4-4-4-4,1.79-4,4,1.79,4,4,4ZM9,4c1.1,0,2,.9,2,2s-.9,2-2,2-2-.9-2-2,.9-2,2-2Z"></path>
  <path class="cls-1" d="M11.33,11.4c-.75-.26-1.53-.4-2.33-.4-3.86,0-7,3.14-7,7v1c0,.55.45,1,1,1s1-.45,1-1v-1c0-2.76,2.24-5,5-5,.57,0,1.13.1,1.67.28.52.18,1.09-.09,1.28-.61.18-.52-.09-1.09-.61-1.28Z"></path>
</symbol><symbol viewBox="0 0 24 24" id="inco-icons-bell">
  <defs>
    <style>
      .cls-1 {
        fill: #000;
        stroke-width: 0px;
      }
    </style>
  </defs>
  <path class="cls-1" d="M18.85,18H5.15c-.73,0-1.4-.4-1.75-1.03-.35-.63-.34-1.38.04-1.99.7-1.15,1.55-3.26,1.57-6.84.02-3.77,3.02-6.97,6.68-7.13,1.93-.09,3.77.6,5.16,1.93,1.4,1.33,2.16,3.13,2.16,5.06,0,3.65.85,5.81,1.57,6.98.38.61.39,1.36.04,1.99-.36.64-1.03,1.03-1.75,1.03ZM12,3c-.08,0-.16,0-.23,0-2.61.12-4.75,2.42-4.77,5.14-.02,4.04-1.03,6.51-1.87,7.88l13.72-.02c-.84-1.36-1.85-3.88-1.85-8,0-1.38-.55-2.66-1.55-3.61-.94-.9-2.16-1.39-3.45-1.39Z"></path>
  <path class="cls-1" d="M12,23c-.55,0-1.1-.12-1.61-.38-.5-.25-.92-.62-1.22-1.07-.31-.46-.18-1.08.27-1.39.46-.31,1.08-.18,1.39.27.11.16.26.29.46.39.66.33,1.52.15,1.88-.39.31-.46.93-.58,1.39-.28.46.31.58.93.28,1.39-.62.93-1.71,1.45-2.83,1.45Z"></path>
</symbol><symbol viewBox="0 0 24 24" id="inco-icons-business">
  <defs>
    <style>
      .cls-1 {
        fill: #000;
        stroke-width: 0px;
      }
    </style>
  </defs>
  <path class="cls-1" d="M20,6h-3v-1c0-1.65-1.35-3-3-3h-4c-1.65,0-3,1.35-3,3v1h-3c-1.65,0-3,1.35-3,3v10c0,1.65,1.35,3,3,3h16c1.65,0,3-1.35,3-3v-10c0-1.65-1.35-3-3-3ZM9,5c0-.55.45-1,1-1h4c.55,0,1,.45,1,1v1h-6v-1ZM4,8h16c.55,0,1,.45,1,1v3.26l-9,2.7-9-2.7v-3.26c0-.55.45-1,1-1ZM20,20H4c-.55,0-1-.45-1-1v-4.66l8.71,2.61c.09.03.19.04.29.04s.19-.01.29-.04l8.71-2.61v4.66c0,.55-.45,1-1,1Z"></path>
  <path class="cls-1" d="M11.29,13.39c.19.18.45.29.71.29s.52-.11.71-.29c.09-.1.16-.21.21-.33.05-.12.08-.25.08-.38s-.03-.26-.08-.39c-.05-.12-.12-.23-.21-.32-.28-.28-.73-.37-1.09-.22-.13.05-.24.13-.33.22-.18.19-.29.44-.29.71,0,.13.03.26.08.38.05.12.12.23.21.33Z"></path>
</symbol><symbol viewBox="0 0 24 24" id="inco-icons-camera">
  <defs>
    <style>
      .cls-1 {
        fill: #000;
        stroke-width: 0px;
      }
    </style>
  </defs>
  <path class="cls-1" d="M20,6h-2.3l-.5-1.7c-.3-.8-1-1.3-1.9-1.3h-6.6c-.9,0-1.6.5-1.9,1.4l-.5,1.6h-2.3c-1.7,0-3,1.3-3,3v9c0,1.7,1.3,3,3,3h16c1.7,0,3-1.3,3-3v-9c0-1.7-1.3-3-3-3ZM21,18c0,.6-.4,1-1,1H4c-.6,0-1-.4-1-1v-9c0-.6.4-1,1-1h3c.4,0,.8-.3.9-.7l.8-2.3h6.6s.8,2.3.8,2.3c.1.4.5.7.9.7h3c.6,0,1,.4,1,1v9Z"></path>
  <path class="cls-1" d="M12,8c-2.8,0-5,2.2-5,5s2.2,5,5,5,5-2.2,5-5-2.2-5-5-5ZM12,16c-1.7,0-3-1.3-3-3s1.3-3,3-3,3,1.3,3,3-1.3,3-3,3Z"></path>
</symbol><symbol viewBox="0 0 24 24" id="inco-icons-cancel">
  <defs>
    <style>
      .cls-1 {
        fill: #000;
        stroke-width: 0px;
      }
    </style>
  </defs>
  <path class="cls-1" d="M13.41,12l6.29-6.29c.39-.39.39-1.02,0-1.41s-1.02-.39-1.41,0l-6.29,6.29-6.29-6.29c-.39-.39-1.02-.39-1.41,0s-.39,1.02,0,1.41l6.29,6.29-6.29,6.29c-.39.39-.39,1.02,0,1.41.2.2.45.29.71.29s.51-.1.71-.29l6.29-6.29,6.29,6.29c.2.2.45.29.71.29s.51-.1.71-.29c.39-.39.39-1.02,0-1.41l-6.29-6.29Z"></path>
</symbol><symbol viewBox="0 0 24 24" id="inco-icons-checked_box">
  <defs>
    <style>
      .cls-1 {
        fill: #fff;
        stroke-width: 0px;
      }
    </style>
  </defs>
  <path class="cls-1" d="M16.7,9.7l-5.5,6c-.2.2-.5.3-.7.3h0c-.3,0-.6-.1-.7-.4l-2.5-3c-.3-.4-.3-1.1,0-1.4.4-.3,1.1-.3,1.4.1l1.8,2.1,4.7-5.1c.4-.4,1-.4,1.4,0,.4.4.4,1,0,1.4Z"></path>
</symbol><symbol viewBox="0 0 24 24" id="inco-icons-clear">
  <defs>
    <style>
      .cls-1 {
        fill: #000;
        stroke-width: 0px;
      }
    </style>
  </defs>
  <path class="cls-1" d="M12,2C6.5,2,2,6.5,2,12s4.5,10,10,10,10-4.5,10-10S17.5,2,12,2ZM15.7,14.3c.4.4.4,1,0,1.4-.2.2-.5.3-.7.3s-.5-.1-.7-.3l-2.3-2.3-2.3,2.3c-.2.2-.5.3-.7.3s-.5-.1-.7-.3c-.4-.4-.4-1,0-1.4l2.3-2.3-2.3-2.3c-.4-.4-.4-1,0-1.4.4-.4,1-.4,1.4,0l2.3,2.3,2.3-2.3c.4-.4,1-.4,1.4,0s.4,1,0,1.4l-2.3,2.3,2.3,2.3Z"></path>
</symbol><symbol viewBox="0 0 24 24" id="inco-icons-client_division">
  <defs>
    <style>
      .cls-1 {
        fill: #000;
        stroke-width: 0px;
      }
    </style>
  </defs>
  <path class="cls-1" d="M12,2C6.49,2,2,6.49,2,12s4.49,10,10,10,10-4.49,10-10S17.51,2,12,2ZM12,20c-4.41,0-8-3.59-8-8S7.59,4,12,4s8,3.59,8,8-3.59,8-8,8Z"></path>
  <path class="cls-1" d="M15.75,10.24h-7.49c-.43,0-.66.5-.38.83l3.75,4.33c.2.23.56.23.76,0l3.75-4.33c.28-.32.05-.83-.38-.83Z"></path>
</symbol><symbol viewBox="0 0 24 24" id="inco-icons-company">
  <defs>
    <style>
      .cls-1 {
        fill: #000;
        stroke-width: 0px;
      }
    </style>
  </defs>
  <path class="cls-1" d="M20,7h-4v-3c0-1.65-1.35-3-3-3H4c-1.65,0-3,1.35-3,3v16c0,1.65,1.35,3,3,3h16c1.65,0,3-1.35,3-3v-10c0-1.65-1.35-3-3-3ZM3,20V4c0-.55.45-1,1-1h9c.55,0,1,.45,1,1v17H4c-.55,0-1-.45-1-1ZM21,20c0,.55-.45,1-1,1h-4v-12h4c.55,0,1,.45,1,1v10Z"></path>
  <path class="cls-1" d="M11,5h-5c-.55,0-1,.45-1,1s.45,1,1,1h5c.55,0,1-.45,1-1s-.45-1-1-1Z"></path>
  <path class="cls-1" d="M11,9h-5c-.55,0-1,.45-1,1s.45,1,1,1h5c.55,0,1-.45,1-1s-.45-1-1-1Z"></path>
  <path class="cls-1" d="M11,13h-5c-.55,0-1,.45-1,1s.45,1,1,1h5c.55,0,1-.45,1-1s-.45-1-1-1Z"></path>
  <path class="cls-1" d="M11,17h-5c-.55,0-1,.45-1,1s.45,1,1,1h5c.55,0,1-.45,1-1s-.45-1-1-1Z"></path>
  <path class="cls-1" d="M19.06,11.17c-.06-.04-.12-.07-.18-.09-.06-.03-.12-.05-.19-.06-.12-.03-.26-.03-.38,0-.07,0-.13.03-.19.06-.06.02-.12.05-.18.09l-.15.12c-.18.19-.29.45-.29.71s.11.52.29.71c.05.04.1.09.15.12.06.04.12.07.18.09.06.03.12.05.19.06.06,0,.13.02.19.02s.13-.01.19-.02c.07-.01.13-.03.19-.06.06-.02.12-.05.18-.09.05-.03.1-.08.15-.12.18-.19.29-.45.29-.71s-.11-.52-.29-.71c-.05-.04-.1-.08-.15-.12Z"></path>
  <path class="cls-1" d="M19.06,14.17c-.06-.04-.12-.07-.18-.09-.06-.03-.12-.05-.19-.06-.12-.03-.26-.03-.38,0-.07,0-.13.03-.19.06-.06.02-.12.05-.18.09-.05.03-.1.08-.15.12-.18.19-.29.45-.29.71s.11.52.29.71c.05.04.1.08.15.12.06.04.12.07.18.09.06.03.12.05.19.06.06,0,.13.02.19.02s.13-.01.19-.02c.07-.01.13-.03.19-.06.06-.02.12-.05.18-.09.05-.04.1-.08.15-.12.18-.19.29-.45.29-.71s-.11-.52-.29-.71c-.05-.04-.1-.09-.15-.12Z"></path>
  <path class="cls-1" d="M19.06,17.17c-.06-.04-.12-.07-.18-.09-.06-.03-.12-.05-.19-.06-.12-.03-.26-.02-.38,0-.07,0-.13.03-.19.06-.06.02-.12.05-.18.09l-.15.12c-.18.19-.29.45-.29.71,0,.07,0,.13.02.2.01.06.03.12.06.18.02.06.05.12.09.18.03.05.08.1.12.15.05.04.1.08.15.12.06.04.12.07.18.09.06.03.12.05.19.06.06,0,.13.02.19.02s.13-.01.19-.02c.07-.01.13-.03.19-.06.06-.02.12-.05.18-.09.05-.04.1-.08.15-.12.04-.05.08-.1.12-.15.04-.06.07-.12.09-.18.03-.06.05-.12.06-.18.01-.07.02-.13.02-.2,0-.26-.11-.52-.29-.71-.05-.04-.1-.08-.15-.12Z"></path>
</symbol><symbol viewBox="0 0 24 24" id="inco-icons-crm">
  <defs>
    <style>
      .cls-1 {
        fill: #000;
        stroke-width: 0px;
      }
    </style>
  </defs>
  <path class="cls-1" d="M7,8c1.93,0,3.5-1.57,3.5-3.5s-1.57-3.5-3.5-3.5-3.5,1.57-3.5,3.5,1.57,3.5,3.5,3.5ZM7,3c.83,0,1.5.67,1.5,1.5s-.67,1.5-1.5,1.5-1.5-.67-1.5-1.5.67-1.5,1.5-1.5Z"></path>
  <path class="cls-1" d="M17,8c1.93,0,3.5-1.57,3.5-3.5s-1.57-3.5-3.5-3.5-3.5,1.57-3.5,3.5,1.57,3.5,3.5,3.5ZM17,3c.83,0,1.5.67,1.5,1.5s-.67,1.5-1.5,1.5-1.5-.67-1.5-1.5.67-1.5,1.5-1.5Z"></path>
  <path class="cls-1" d="M8.5,12c0,1.93,1.57,3.5,3.5,3.5s3.5-1.57,3.5-3.5-1.57-3.5-3.5-3.5-3.5,1.57-3.5,3.5ZM12,10.5c.83,0,1.5.67,1.5,1.5s-.67,1.5-1.5,1.5-1.5-.67-1.5-1.5.67-1.5,1.5-1.5Z"></path>
  <path class="cls-1" d="M12,16c-3.31,0-6,2.69-6,6,0,.55.45,1,1,1s1-.45,1-1c0-2.21,1.79-4,4-4s4,1.79,4,4c0,.55.45,1,1,1s1-.45,1-1c0-3.31-2.69-6-6-6Z"></path>
  <path class="cls-1" d="M8,9.5c0-.55-.45-1-1-1-4.75,0-6,3.92-6,6,0,.55.45,1,1,1s1-.45,1-1c0-.16.05-4,4-4,.55,0,1-.45,1-1Z"></path>
  <path class="cls-1" d="M17,8.5c-.55,0-1,.45-1,1s.45,1,1,1c3.85,0,4,3.59,4,4,0,.55.45,1,1,1s1-.45,1-1c0-2.08-1.25-6-6-6Z"></path>
</symbol><symbol viewBox="0 0 24 24" id="inco-icons-customer">
  <defs>
    <style>
      .cls-1 {
        fill: #000;
        stroke-width: 0px;
      }
    </style>
  </defs>
  <path class="cls-1" d="M12,11c2.48,0,4.5-2.02,4.5-4.5s-2.02-4.5-4.5-4.5-4.5,2.02-4.5,4.5,2.02,4.5,4.5,4.5ZM12,4c1.38,0,2.5,1.12,2.5,2.5s-1.12,2.5-2.5,2.5-2.5-1.12-2.5-2.5,1.12-2.5,2.5-2.5Z"></path>
  <path class="cls-1" d="M12,12c-4.96,0-9,4.04-9,9,0,.55.45,1,1,1s1-.45,1-1c0-3.86,3.14-7,7-7s7,3.14,7,7c0,.55.45,1,1,1s1-.45,1-1c0-4.96-4.04-9-9-9Z"></path>
</symbol><symbol viewBox="0 0 24 24" id="inco-icons-data_display">
  <defs>
    <style>
      .cls-1 {
        fill: #000;
        stroke-width: 0px;
      }
    </style>
  </defs>
  <path class="cls-1" d="M19,2H5c-1.65,0-3,1.35-3,3v10c0,1.65,1.35,3,3,3h14c1.65,0,3-1.35,3-3V5c0-1.65-1.35-3-3-3ZM20,15c0,.55-.45,1-1,1H5c-.55,0-1-.45-1-1V5c0-.55.45-1,1-1h14c.55,0,1,.45,1,1v10Z"></path>
  <path class="cls-1" d="M12,5.5c-2.64,0-4.94,1.69-5.73,4.2-.06.2-.06.41,0,.6.79,2.51,3.1,4.2,5.73,4.2s4.94-1.69,5.73-4.2c.06-.2.06-.41,0-.6-.79-2.51-3.1-4.2-5.73-4.2ZM12,12.5c-1.65,0-3.11-.99-3.72-2.5.61-1.51,2.07-2.5,3.72-2.5s3.11.99,3.72,2.5c-.61,1.51-2.07,2.5-3.72,2.5Z"></path>
  <path class="cls-1" d="M16,20h-8c-.55,0-1,.45-1,1s.45,1,1,1h8c.55,0,1-.45,1-1s-.45-1-1-1Z"></path>
  <path class="cls-1" d="M12,8.5c-.83,0-1.5.67-1.5,1.5h0c0,.84.67,1.5,1.5,1.5s1.5-.68,1.5-1.5-.67-1.5-1.5-1.5Z"></path>
</symbol><symbol viewBox="0 0 24 24" id="inco-icons-date">
  <defs>
    <style>
      .cls-1 {
        fill: #000;
        stroke-width: 0px;
      }
    </style>
  </defs>
  <path class="cls-1" d="M19,3.14v-1.14c0-.55-.45-1-1-1s-1,.45-1,1v1H7v-1c0-.55-.45-1-1-1s-1,.45-1,1v1.14c-1.72.45-3,2-3,3.86v12c0,2.21,1.79,4,4,4h12c2.21,0,4-1.79,4-4V7c0-1.86-1.28-3.41-3-3.86ZM6,5h12c1.1,0,2,.9,2,2H4c0-1.1.9-2,2-2ZM18,21H6c-1.1,0-2-.9-2-2v-10h16v10c0,1.1-.9,2-2,2Z"></path>
  <path class="cls-1" d="M11,11h-4c-.55,0-1,.45-1,1v4c0,.55.45,1,1,1h4c.55,0,1-.45,1-1v-4c0-.55-.45-1-1-1ZM10,15h-2v-2h2v2Z"></path>
</symbol><symbol viewBox="0 0 16 16" id="inco-icons-delete">
  <path class="cls-1" d="M13.25,3.33h-1.81c-.28-1.36-1.47-2.33-2.86-2.33h-1.17c-1.39,0-2.58.98-2.86,2.33h-1.81c-.32,0-.58.26-.58.58s.26.58.58.58h.58v7.58c0,1.61,1.31,2.91,2.92,2.92h3.5c1.61,0,2.91-1.31,2.92-2.92v-7.58h.58c.32,0,.58-.26.58-.58s-.26-.58-.58-.58ZM7.42,2.17h1.17c.74,0,1.4.47,1.65,1.17h-4.47c.25-.7.91-1.17,1.65-1.17ZM11.5,12.08c0,.97-.78,1.75-1.75,1.75h-3.5c-.97,0-1.75-.78-1.75-1.75v-7.58h7v7.58Z"></path>
  <path class="cls-1" d="M6.83,11.5c.32,0,.58-.26.58-.58v-3.5c0-.32-.26-.58-.58-.58s-.58.26-.58.58v3.5c0,.32.26.58.58.58Z"></path>
  <path class="cls-1" d="M9.17,11.5c.32,0,.58-.26.58-.58v-3.5c0-.32-.26-.58-.58-.58s-.58.26-.58.58v3.5c0,.32.26.58.58.58Z"></path>
</symbol><symbol viewBox="0 0 24 24" id="inco-icons-department">
  <defs>
    <style>
      .cls-1 {
        fill: #000;
        stroke-width: 0px;
      }
    </style>
  </defs>
  <path class="cls-1" d="M21,15h-2v-3c0-.55-.45-1-1-1h-5v-2h2c1.1,0,2-.9,2-2v-3c0-1.1-.9-2-2-2h-6c-1.1,0-2,.9-2,2v3c0,1.1.9,2,2,2h2v2h-5c-.55,0-1,.45-1,1v3h-2c-1.1,0-2,.9-2,2v3c0,1.1.9,2,2,2h6c1.1,0,2-.9,2-2v-3c0-1.1-.9-2-2-2h-2v-2h10v2h-2c-1.1,0-2,.9-2,2v3c0,1.1.9,2,2,2h6c1.1,0,2-.9,2-2v-3c0-1.1-.9-2-2-2ZM9,4h6v3s-6,0-6,0v-3ZM9,20H3v-3h6v3ZM15,20v-3h6v3s-6,0-6,0Z"></path>
</symbol><symbol viewBox="0 0 16 16" id="inco-icons-document">
  <path class="cls-1" d="M10.92,9.17c0,.32-.26.58-.58.58h-4.67c-.32,0-.58-.26-.58-.58s.26-.58.58-.58h4.67c.32,0,.58.26.58.58ZM8.58,10.92h-2.92c-.32,0-.58.26-.58.58s.26.58.58.58h2.92c.32,0,.58-.26.58-.58s-.26-.58-.58-.58ZM13.83,7.12v4.97c0,1.61-1.31,2.91-2.92,2.92h-5.83c-1.61,0-2.91-1.31-2.92-2.92V3.92c0-1.61,1.31-2.91,2.92-2.92h2.63c1.08,0,2.12.43,2.89,1.2l2.03,2.03c.77.76,1.2,1.8,1.2,2.89ZM9.78,3.02c-.18-.18-.39-.33-.61-.45v2.52c0,.32.26.58.58.58h2.52c-.12-.22-.28-.43-.46-.61l-2.03-2.03ZM12.67,7.12c0-.1-.02-.19-.03-.28h-2.89c-.97,0-1.75-.78-1.75-1.75v-2.89c-.09,0-.19-.03-.28-.03h-2.63c-.97,0-1.75.78-1.75,1.75v8.17c0,.97.78,1.75,1.75,1.75h5.83c.97,0,1.75-.78,1.75-1.75v-4.97Z"></path>
</symbol><symbol viewBox="0 0 24 24" id="inco-icons-download">
  <defs>
    <style>
      .cls-1 {
        fill: #000;
        stroke-width: 0px;
      }
    </style>
  </defs>
  <path class="cls-1" d="M21,15.5c-.55,0-1,.45-1,1v2.25c0,.69-.56,1.25-1.25,1.25H5.25c-.69,0-1.25-.56-1.25-1.25v-2.25c0-.55-.45-1-1-1s-1,.45-1,1v2.25c0,1.79,1.46,3.25,3.25,3.25h13.5c1.79,0,3.25-1.46,3.25-3.25v-2.25c0-.55-.45-1-1-1Z"></path>
  <path class="cls-1" d="M11.29,17.21c.09.09.2.17.33.22.12.05.25.08.38.08s.26-.03.38-.08c.12-.05.23-.12.33-.22l4.5-4.5c.39-.39.39-1.02,0-1.41s-1.02-.39-1.41,0l-2.79,2.79V3c0-.55-.45-1-1-1s-1,.45-1,1v11.09l-2.79-2.79c-.39-.39-1.02-.39-1.41,0s-.39,1.02,0,1.41l4.5,4.5Z"></path>
</symbol><symbol viewBox="0 0 16 16" id="inco-icons-drag_indicator">
  <circle class="cls-1" cx="5.67" cy="2.17" r="1.17"></circle>
  <circle class="cls-1" cx="5.67" cy="8" r="1.17"></circle>
  <circle class="cls-1" cx="5.67" cy="13.83" r="1.17"></circle>
  <circle class="cls-1" cx="10.33" cy="2.17" r="1.17"></circle>
  <circle class="cls-1" cx="10.33" cy="8" r="1.17"></circle>
  <circle class="cls-1" cx="10.33" cy="13.83" r="1.17"></circle>
</symbol><symbol viewBox="0 0 24 24" id="inco-icons-edit">
  <defs>
    <style>
      .cls-1 {
        fill: #000;
        stroke-width: 0px;
      }
    </style>
  </defs>
  <path class="cls-1" d="M20.99,3.01c-1.34-1.34-3.53-1.34-4.87,0L3.01,16.12c-.65.65-1.01,1.52-1.01,2.44v2.44c0,.55.45,1,1,1h2.44c.92,0,1.78-.36,2.44-1.01l13.11-13.11c1.34-1.34,1.34-3.53,0-4.87ZM6.47,19.58c-.27.27-.64.42-1.02.42h-1.44v-1.44c0-.39.15-.75.42-1.02L14.31,7.64l2.04,2.04-9.89,9.89ZM19.58,6.47l-1.81,1.81-2.04-2.04,1.81-1.81c.56-.56,1.48-.56,2.04,0,.56.56.56,1.48,0,2.04Z"></path>
</symbol><symbol viewBox="0 0 24 24" id="inco-icons-education">
  <defs>
    <style>
      .cls-1 {
        fill: #000;
        stroke-width: 0px;
      }
    </style>
  </defs>
  <path class="cls-1" d="M21.8,6.14l-8.56-3.87c-.79-.36-1.69-.36-2.48,0L2.2,6.14c-.74.33-1.19,1.05-1.19,1.86s.46,1.52,1.2,1.86l2.8,1.27v6.87c0,2.21,1.79,4,4,4h6c2.21,0,4-1.79,4-4v-6.87l1-.45v4.47c0,.55.45,1,1,1s1-.45,1-1v-5.41c.61-.37,1-1,1-1.73,0-.81-.46-1.52-1.2-1.86ZM17,18c0,1.1-.9,2-2,2h-6c-1.1,0-2-.9-2-2v-5.97l3.76,1.7c.39.18.82.27,1.24.27s.85-.09,1.24-.27l3.76-1.7v5.97ZM20.98,8.04l-3.37,1.52s-.01,0-.02,0l-5.17,2.34c-.27.12-.57.12-.84,0l-5.17-2.34s0,0,0,0l-3.39-1.61,8.56-3.87c.14-.06.28-.09.42-.09s.28.03.42.09l8.58,3.91s0,.03-.02.04Z"></path>
</symbol><symbol viewBox="0 0 24 24" id="inco-icons-email">
  <defs>
    <style>
      .cls-1 {
        fill: #000;
        stroke-width: 0px;
      }
    </style>
  </defs>
  <path class="cls-1" d="M19,3.93H5c-1.69,0-3.07,1.38-3.07,3.07v10c0,1.69,1.38,3.07,3.07,3.07h14c1.69,0,3.07-1.38,3.07-3.07V7c0-1.69-1.38-3.07-3.07-3.07ZM5,6.07h14c.51,0,.93.42.93.93v.46l-7.93,3.38-7.93-3.38v-.46c0-.51.42-.93.93-.93ZM19,17.93H5c-.51,0-.93-.42-.93-.93v-7.22l7.51,3.2c.13.06.28.09.42.09s.29-.03.42-.09l7.51-3.2v7.22c0,.51-.42.93-.93.93Z"></path>
</symbol><symbol viewBox="0 0 16 16" id="inco-icons-excel">
  <path class="cls-1" d="M10.33,9.17h-1.75v-1.17c0-.64-.52-1.17-1.17-1.17h-1.75c-.64,0-1.17.52-1.17,1.17v3.5c0,.64.52,1.17,1.17,1.17h4.67c.64,0,1.17-.52,1.17-1.17v-1.17c0-.64-.52-1.17-1.17-1.17ZM7.42,11.5h-1.75v-1.17h1.75v1.17ZM7.42,9.17h-1.75v-1.17h1.75v1.17ZM10.33,11.5h-1.75v-1.17h1.75v1.17ZM12.64,4.23l-2.03-2.03c-.77-.77-1.8-1.2-2.89-1.2h-2.63c-1.61,0-2.92,1.31-2.92,2.92v8.17c0,1.61,1.31,2.92,2.92,2.92h5.83c1.61,0,2.92-1.31,2.92-2.92v-4.97c0-1.09-.43-2.12-1.2-2.89ZM11.81,5.05c.19.19.34.39.47.61h-2.53c-.32,0-.58-.26-.58-.58v-2.53c.22.13.43.28.61.47l2.03,2.03ZM12.67,12.08c0,.96-.79,1.75-1.75,1.75h-5.83c-.96,0-1.75-.79-1.75-1.75V3.92c0-.96.79-1.75,1.75-1.75h2.63c.1,0,.19,0,.28.01v2.9c0,.96.79,1.75,1.75,1.75h2.9c0,.09.01.19.01.28v4.97Z"></path>
</symbol><symbol viewBox="0 0 24 24" id="inco-icons-expand">
  <defs>
    <style>
      .cls-1 {
        fill: #000;
        stroke-width: 0px;
      }
    </style>
  </defs>
  <path class="cls-1" d="M12,16.5c-.26,0-.51-.1-.71-.29l-7-7c-.39-.39-.39-1.02,0-1.41s1.02-.39,1.41,0l6.29,6.29,6.29-6.29c.39-.39,1.02-.39,1.41,0s.39,1.02,0,1.41l-7,7c-.2.2-.45.29-.71.29Z"></path>
</symbol><symbol viewBox="0 0 16 16" id="inco-icons-expand_more">
  <path class="cls-1" d="M4.17,5.88c.23-.23.6-.23.82,0l3.01,3.01,3.01-3.01c.23-.23.6-.23.82,0s.23.6,0,.82l-3.42,3.42c-.23.23-.6.23-.82,0l-3.42-3.42c-.23-.23-.23-.6,0-.82Z"></path>
</symbol><symbol viewBox="0 0 24 24" id="inco-icons-external-link">
  <defs>
    <style>
      .cls-1 {
        fill: #000;
        stroke-width: 0px;
      }
    </style>
  </defs>
  <path class="cls-1" d="M19,10.47c-.55,0-1,.45-1,1v6.69c0,1.02-.83,1.84-1.84,1.84H5.84c-1.02,0-1.84-.83-1.84-1.84V7.84c0-1.02.83-1.84,1.84-1.84h6.69c.55,0,1-.45,1-1s-.45-1-1-1h-6.69c-2.12,0-3.84,1.72-3.84,3.84v10.31c0,2.12,1.72,3.84,3.84,3.84h10.31c2.12,0,3.84-1.72,3.84-3.84v-6.69c0-.55-.45-1-1-1Z"></path>
  <path class="cls-1" d="M21.42,2.59s0,0,0,0,0,0,0,0c-.36-.36-.86-.58-1.41-.58h-3c-.55,0-1,.45-1,1s.45,1,1,1h1.59l-8.29,8.29c-.39.39-.39,1.02,0,1.41.2.2.45.29.71.29s.51-.1.71-.29l8.29-8.29v1.59c0,.55.45,1,1,1s1-.45,1-1v-3c0-.55-.22-1.05-.58-1.41Z"></path>
</symbol><symbol viewBox="0 0 24 24" id="inco-icons-fax">
  <defs>
    <style>
      .cls-1 {
        fill: #000;
        stroke-width: 0px;
      }
    </style>
  </defs>
  <path class="cls-1" d="M20,4.93h-.93v-2.93c0-.59-.48-1.07-1.07-1.07H6c-.59,0-1.07.48-1.07,1.07v2.93h-.93c-1.69,0-3.07,1.38-3.07,3.07v8c0,1.14.93,2.07,2.07,2.07h1.93v3.93c0,.59.48,1.07,1.07,1.07h12c.59,0,1.07-.48,1.07-1.07v-3.93h1.93c1.14,0,2.07-.93,2.07-2.07v-8c0-1.69-1.38-3.07-3.07-3.07ZM7.07,3.07h9.86v1.86H7.07v-1.86ZM16.93,17v3.93H7.07v-5.86h9.86v1.93ZM19.07,15.93v-1.93c0-.59-.48-1.07-1.07-1.07H6c-.59,0-1.07.48-1.07,1.07v1.96l-1.86.04v-8c0-.51.42-.93.93-.93h16c.51,0,.93.42.93.93l.07,7.93h-1.93Z"></path>
  <path class="cls-1" d="M8,8.93h-2c-.59,0-1.07.48-1.07,1.07s.48,1.07,1.07,1.07h2c.59,0,1.07-.48,1.07-1.07s-.48-1.07-1.07-1.07Z"></path>
</symbol><symbol viewBox="0 0 24 24" id="inco-icons-file">
  <defs>
    <style>
      .cls-1 {
        fill: #000;
        stroke-width: 0px;
      }
    </style>
  </defs>
  <path class="cls-1" d="M20.12,5.71l-3.83-3.83c-.57-.57-1.32-.88-2.12-.88H6c-1.65,0-3,1.35-3,3v16c0,1.65,1.35,3,3,3h12c1.65,0,3-1.35,3-3V7.83c0-.8-.31-1.55-.88-2.12ZM18.59,7h-3.59v-3.59l3.59,3.59ZM19,20c0,.55-.45,1-1,1H6c-.55,0-1-.45-1-1V4c0-.55.45-1,1-1h7v5c0,.55.45,1,1,1h5v11Z"></path>
</symbol><symbol viewBox="0 0 24 24" id="inco-icons-file_ai">
  <!-- Generator: Adobe Illustrator 28.7.1, SVG Export Plug-In . SVG Version: 1.2.0 Build 142)  -->
  <g>
    <g id="Layer_1">
      <g>
        <path d="M20.1,5.7l-3.8-3.8c-.6-.6-1.3-.9-2.1-.9H6c-1.7,0-3,1.3-3,3v16c0,1.7,1.3,3,3,3h12c1.7,0,3-1.3,3-3V7.8c0-.8-.3-1.6-.9-2.1ZM18.6,7h-3.6v-3.6l3.6,3.6ZM19,20c0,.6-.4,1-1,1H6c-.6,0-1-.4-1-1V4c0-.6.4-1,1-1h7v5c0,.6.4,1,1,1h5v11Z"></path>
        <path d="M10.6,13l-1,3v2h1v-1h1v1h1v-2l-1-3h-1ZM10.6,16l.5-1.5.5,1.5h-1Z"></path>
        <rect x="13.4" y="13" width="1" height="5"></rect>
      </g>
    </g>
  </g>
</symbol><symbol viewBox="0 0 24 24" id="inco-icons-file_box">
  <defs>
    <style>
      .cls-1 {
        fill: #000;
        stroke-width: 0px;
      }
    </style>
  </defs>
  <path class="cls-1" d="M19,2H5c-1.65,0-3,1.35-3,3v2c0,.55.45,1,1,1v11c0,1.65,1.35,3,3,3h12c1.65,0,3-1.35,3-3v-11c.55,0,1-.45,1-1v-2c0-1.65-1.35-3-3-3ZM4,5c0-.55.45-1,1-1h14c.55,0,1,.45,1,1v1H4v-1ZM19,19c0,.55-.45,1-1,1H6c-.55,0-1-.45-1-1v-11h14v11Z"></path>
  <path class="cls-1" d="M9.3,13h5.4c.55,0,1-.45,1-1s-.45-1-1-1h-5.4c-.55,0-1,.45-1,1s.45,1,1,1Z"></path>
</symbol><symbol viewBox="0 0 24 24" id="inco-icons-file_document">
  <defs>
    <style>
      .cls-1 {
        fill: #000;
        stroke-width: 0px;
      }
    </style>
  </defs>
  <path class="cls-1" d="M20.12,5.71l-3.83-3.83c-.57-.57-1.32-.88-2.12-.88H6c-1.65,0-3,1.35-3,3v16c0,1.65,1.35,3,3,3h12c1.65,0,3-1.35,3-3V7.83c0-.8-.31-1.56-.88-2.12ZM18.59,7h-3.59v-3.59l3.59,3.59ZM19,20c0,.55-.45,1-1,1H6c-.55,0-1-.45-1-1V4c0-.55.45-1,1-1h7v5c0,.55.45,1,1,1h5v11Z"></path>
  <path class="cls-1" d="M7,14c0,.55.45,1,1,1h8c.55,0,1-.45,1-1s-.45-1-1-1h-8c-.55,0-1,.45-1,1Z"></path>
  <path class="cls-1" d="M14,17h-6c-.55,0-1,.45-1,1s.45,1,1,1h6c.55,0,1-.45,1-1s-.45-1-1-1Z"></path>
</symbol><symbol viewBox="0 0 24 24" id="inco-icons-file_eps">
  <!-- Generator: Adobe Illustrator 28.7.1, SVG Export Plug-In . SVG Version: 1.2.0 Build 142)  -->
  <g>
    <g id="Layer_1">
      <g>
        <path d="M20.1,5.7l-3.8-3.8c-.6-.6-1.3-.9-2.1-.9H6c-1.7,0-3,1.3-3,3v16c0,1.7,1.3,3,3,3h12c1.7,0,3-1.3,3-3V7.8c0-.8-.3-1.6-.9-2.1ZM18.6,7h-3.6v-3.6l3.6,3.6ZM19,20c0,.6-.4,1-1,1H6c-.6,0-1-.4-1-1V4c0-.6.4-1,1-1h7v5c0,.6.4,1,1,1h5v11Z"></path>
        <path d="M12.6,13h-2v5h1v-1h1c.6,0,1-.4,1-1v-2c0-.6-.4-1-1-1ZM12.6,16h-1v-2h1v2Z"></path>
        <polygon points="6.9 14 6.9 15 6.9 16 6.9 17 6.9 18 9.9 18 9.9 17 7.9 17 7.9 16 9.9 16 9.9 15 7.9 15 7.9 14 9.9 14 9.9 13 6.9 13 6.9 14"></polygon>
        <path d="M14.6,18h2c.3,0,.5-.2.5-.5v-2c0-.3-.2-.5-.5-.5h-1.5v-1h2v-.5c0-.3-.2-.5-.5-.5h-2c-.3,0-.5.2-.5.5v2c0,.3.2.5.5.5h1.5v1h-2v.5c0,.3.2.5.5.5Z"></path>
      </g>
    </g>
  </g>
</symbol><symbol viewBox="0 0 24 24" id="inco-icons-file_excel">
  <defs>
    <style>
      .cls-1 {
        fill: #000;
        stroke-width: 0px;
      }
    </style>
  </defs>
  <path class="cls-1" d="M20.12,5.71l-3.83-3.83c-.57-.57-1.32-.88-2.12-.88H6c-1.65,0-3,1.35-3,3v16c0,1.65,1.35,3,3,3h12c1.65,0,3-1.35,3-3V7.83c0-.8-.31-1.55-.88-2.12ZM15,3.41l3.59,3.59h-3.59v-3.59ZM19,20c0,.55-.45,1-1,1H6c-.55,0-1-.45-1-1V4c0-.55.45-1,1-1h7v5c0,.55.45,1,1,1h5v11Z"></path>
  <path class="cls-1" d="M13.29,13.29l-1.29,1.29-1.29-1.29c-.39-.39-1.02-.39-1.41,0s-.39,1.02,0,1.41l1.29,1.29-1.29,1.29c-.39.39-.39,1.02,0,1.41.2.2.45.29.71.29s.51-.1.71-.29l1.29-1.29,1.29,1.29c.2.2.45.29.71.29s.51-.1.71-.29c.39-.39.39-1.02,0-1.41l-1.29-1.29,1.29-1.29c.39-.39.39-1.02,0-1.41s-1.02-.39-1.41,0Z"></path>
</symbol><symbol viewBox="0 0 24 24" id="inco-icons-file_hwp">
  <defs>
    <style>
      .cls-1 {
        fill: #000;
        stroke-width: 0px;
      }
    </style>
  </defs>
  <path class="cls-1" d="M20.12,5.71l-3.83-3.83c-.57-.57-1.32-.88-2.12-.88H6c-1.65,0-3,1.35-3,3v16c0,1.65,1.35,3,3,3h12c1.65,0,3-1.35,3-3V7.83c0-.8-.31-1.56-.88-2.12ZM18.59,7h-3.59v-3.59l3.59,3.59ZM19,20c0,.55-.45,1-1,1H6c-.55,0-1-.45-1-1V4c0-.55.45-1,1-1h7v5c0,.55.45,1,1,1h5v11Z"></path>
  <path class="cls-1" d="M15.5,17h1c.55,0,1-.45,1-1v-2c0-.55-.45-1-1-1h-2v5h1v-1ZM15.5,14h1v2h-1v-2Z"></path>
  <polygon class="cls-1" points="8.5 15 7.5 15 7.5 13 6.5 13 6.5 15 6.5 16 6.5 18 7.5 18 7.5 16 8.5 16 8.5 18 9.5 18 9.5 16 9.5 15 9.5 13 8.5 13 8.5 15"></polygon>
  <polygon class="cls-1" points="13 16 12.75 16.67 12.5 16 12.5 13 11.5 13 11.5 16 11.25 16.67 11 16 11 13 10 13 10 16 10.75 18 11.75 18 12 17.33 12.25 18 13.25 18 14 16 14 13 13 13 13 16"></polygon>
</symbol><symbol viewBox="0 0 24 24" id="inco-icons-file_image">
  <defs>
    <style>
      .cls-1 {
        fill: #000;
        stroke-width: 0px;
      }
    </style>
  </defs>
  <path class="cls-1" d="M20.12,5.71l-3.83-3.83c-.57-.57-1.32-.88-2.12-.88H6c-1.65,0-3,1.35-3,3v16c0,1.65,1.35,3,3,3h12c1.65,0,3-1.35,3-3V7.83c0-.8-.31-1.56-.88-2.12ZM15,3.41l3.59,3.59h-3.59v-3.59ZM19,20c0,.55-.45,1-1,1H6c-.41,0-.77-.25-.92-.61l5.52-4.73c.19-.17.49-.16.68.03l.96.96c.94.95,2.59.95,3.54,0l3.23-3.23v6.59ZM19,10.59l-4.65,4.65c-.13.13-.28.15-.35.15s-.23-.02-.35-.15l-.96-.96c-.92-.92-2.41-.98-3.4-.13l-4.29,3.68V4c0-.55.45-1,1-1h7v5c0,.55.45,1,1,1h5v1.59Z"></path>
  <path class="cls-1" d="M7.94,7.94c-.28.28-.44.67-.44,1.06s.16.78.44,1.06.67.44,1.06.44.78-.16,1.06-.44c.28-.28.44-.66.44-1.06s-.16-.78-.44-1.06c-.56-.56-1.56-.56-2.12,0Z"></path>
</symbol><symbol viewBox="0 0 24 24" id="inco-icons-file_map">
  <defs>
    <style>
      .cls-1 {
        fill: #000;
        stroke-width: 0px;
      }
    </style>
  </defs>
  <path class="cls-1" d="M20.12,5.71l-3.83-3.83c-.57-.57-1.32-.88-2.12-.88H6c-1.65,0-3,1.35-3,3v16c0,1.65,1.35,3,3,3h12c1.65,0,3-1.35,3-3V7.83c0-.8-.31-1.56-.88-2.12ZM15,3.41l3.59,3.59h-3.59v-3.59ZM19,20c0,.55-.45,1-1,1H6c-.55,0-1-.45-1-1V4c0-.55.45-1,1-1h7v5c0,.55.45,1,1,1h5v11Z"></path>
  <path class="cls-1" d="M7.51,14.94c0,2.48,2.02,4.5,4.5,4.5s4.5-2.02,4.5-4.5-2.02-4.5-4.5-4.5-4.5,2.02-4.5,4.5ZM8.57,15.44h1.4c.1.99.39,1.95.91,2.79-1.22-.42-2.12-1.49-2.31-2.79ZM9.97,14.44h-1.41c.19-1.31,1.09-2.37,2.31-2.79-.51.84-.81,1.8-.9,2.79ZM12.01,18.16c-.59-.8-.94-1.74-1.05-2.71h2.1c-.11.98-.46,1.92-1.05,2.71ZM15.46,14.44h-1.4c-.09-.99-.39-1.95-.91-2.79,1.22.42,2.12,1.49,2.31,2.79ZM14.06,15.44h1.41c-.19,1.31-1.09,2.37-2.31,2.79.51-.84.81-1.8.91-2.79ZM10.96,14.44c.11-.98.46-1.92,1.05-2.71.59.8.94,1.74,1.05,2.71h-2.1Z"></path>
</symbol><symbol viewBox="0 0 24 24" id="inco-icons-file_pdf">
  <defs>
    <style>
      .cls-1 {
        fill: #000;
        stroke-width: 0px;
      }
    </style>
  </defs>
  <path class="cls-1" d="M20.12,5.71l-3.83-3.83c-.57-.57-1.32-.88-2.12-.88H6c-1.65,0-3,1.35-3,3v16c0,1.65,1.35,3,3,3h12c1.65,0,3-1.35,3-3V7.83c0-.8-.31-1.56-.88-2.12ZM18.59,7h-3.59v-3.59l3.59,3.59ZM19,20c0,.55-.45,1-1,1H6c-.55,0-1-.45-1-1V4c0-.55.45-1,1-1h7v5c0,.55.45,1,1,1h5v11Z"></path>
  <path class="cls-1" d="M8.5,13h-2v5h1v-1h1c.55,0,1-.45,1-1v-2c0-.55-.45-1-1-1ZM8.5,16h-1v-2h1v2Z"></path>
  <path class="cls-1" d="M12.5,13h-2v5h2c.55,0,1-.45,1-1v-3c0-.55-.45-1-1-1ZM12.5,17h-1v-3h1v3Z"></path>
  <polygon class="cls-1" points="15.5 16 17.5 16 17.5 15 15.5 15 15.5 14 17.5 14 17.5 13 14.5 13 14.5 18 15.5 18 15.5 16"></polygon>
</symbol><symbol viewBox="0 0 24 24" id="inco-icons-file_ppt">
  <defs>
    <style>
      .cls-1 {
        fill: #000;
        stroke-width: 0px;
      }
    </style>
  </defs>
  <path class="cls-1" d="M20.12,5.71l-3.83-3.83c-.57-.57-1.32-.88-2.12-.88H6c-1.65,0-3,1.35-3,3v16c0,1.65,1.35,3,3,3h12c1.65,0,3-1.35,3-3V7.83c0-.8-.31-1.56-.88-2.12ZM18.59,7h-3.59v-3.59l3.59,3.59ZM19,20c0,.55-.45,1-1,1H6c-.55,0-1-.45-1-1V4c0-.55.45-1,1-1h7v5c0,.55.45,1,1,1h5v11Z"></path>
  <path class="cls-1" d="M10,12c-.55,0-1,.45-1,1v5c0,.55.45,1,1,1s1-.45,1-1v-1h1.5c1.38,0,2.5-1.12,2.5-2.5s-1.12-2.5-2.5-2.5h-2.5ZM13,14.5c0,.28-.22.5-.5.5h-1.5v-1h1.5c.28,0,.5.22.5.5Z"></path>
</symbol><symbol viewBox="0 0 24 24" id="inco-icons-file_psd">
  <!-- Generator: Adobe Illustrator 28.7.1, SVG Export Plug-In . SVG Version: 1.2.0 Build 142)  -->
  <g>
    <g id="Layer_1">
      <g>
        <path d="M20.1,5.7l-3.8-3.8c-.6-.6-1.3-.9-2.1-.9H6c-1.7,0-3,1.3-3,3v16c0,1.7,1.3,3,3,3h12c1.7,0,3-1.3,3-3V7.8c0-.8-.3-1.6-.9-2.1ZM18.6,7h-3.6v-3.6l3.6,3.6ZM19,20c0,.6-.4,1-1,1H6c-.6,0-1-.4-1-1V4c0-.6.4-1,1-1h7v5c0,.6.4,1,1,1h5v11Z"></path>
        <path d="M8.8,13h-2v5h1v-1h1c.6,0,1-.4,1-1v-2c0-.6-.4-1-1-1ZM8.8,16h-1v-2h1v2Z"></path>
        <path d="M17.2,17v-3c0-.5-.5-1-1-1h-2v5h2c.5,0,1-.5,1-1ZM15.2,14h1v3h-1v-3Z"></path>
        <path d="M13,13h-2c-.3,0-.5.2-.5.5v2c0,.3.2.5.5.5h1.5v1h-2v.5c0,.3.2.5.5.5h2c.3,0,.5-.2.5-.5v-2c0-.3-.2-.5-.5-.5h-1.5v-1h2v-.5c0-.3-.2-.5-.5-.5Z"></path>
      </g>
    </g>
  </g>
</symbol><symbol viewBox="0 0 24 24" id="inco-icons-file_svg">
  <!-- Generator: Adobe Illustrator 28.7.1, SVG Export Plug-In . SVG Version: 1.2.0 Build 142)  -->
  <g>
    <g id="Layer_1">
      <g>
        <path d="M20.1,5.7l-3.8-3.8c-.6-.6-1.3-.9-2.1-.9H6c-1.7,0-3,1.3-3,3v16c0,1.7,1.3,3,3,3h12c1.7,0,3-1.3,3-3V7.8c0-.8-.3-1.6-.9-2.1ZM18.6,7h-3.6v-3.6l3.6,3.6ZM19,20c0,.6-.4,1-1,1H6c-.6,0-1-.4-1-1V4c0-.6.4-1,1-1h7v5c0,.6.4,1,1,1h5v11Z"></path>
        <path d="M9.5,13h-2c-.3,0-.5.2-.5.5v2c0,.3.2.5.5.5h1.5v1h-2v.5c0,.3.2.5.5.5h2c.3,0,.5-.2.5-.5v-2c0-.3-.2-.5-.5-.5h-1.5v-1h2v-.5c0-.3-.2-.5-.5-.5Z"></path>
        <polygon points="12.5 16 12 17 11.5 16 11.5 13 10.5 13 10.5 16 11.5 18 12.5 18 13.5 16 13.5 13 12.5 13 12.5 16"></polygon>
        <path d="M14,17.5c0,.3.2.5.5.5h2c.3,0,.5-.2.5-.5v-2.2h-1.5v1h.5v.8h-1v-3h1v.5h1v-1c0-.3-.2-.5-.5-.5h-2c-.3,0-.5.2-.5.5v4Z"></path>
      </g>
    </g>
  </g>
</symbol><symbol viewBox="0 0 24 24" id="inco-icons-file_text">
  <defs>
    <style>
      .cls-1 {
        fill: #000;
        stroke-width: 0px;
      }
    </style>
  </defs>
  <path class="cls-1" d="M20.12,5.71l-3.83-3.83c-.57-.57-1.32-.88-2.12-.88H6c-1.65,0-3,1.35-3,3v16c0,1.65,1.35,3,3,3h12c1.65,0,3-1.35,3-3V7.83c0-.8-.31-1.56-.88-2.12ZM18.59,7h-3.59v-3.59l3.59,3.59ZM19,20c0,.55-.45,1-1,1H6c-.55,0-1-.45-1-1V4c0-.55.45-1,1-1h7v5c0,.55.45,1,1,1h5v11Z"></path>
  <path class="cls-1" d="M7,14c0,.55.45,1,1,1h8c.55,0,1-.45,1-1s-.45-1-1-1h-8c-.55,0-1,.45-1,1Z"></path>
  <path class="cls-1" d="M14,17h-6c-.55,0-1,.45-1,1s.45,1,1,1h6c.55,0,1-.45,1-1s-.45-1-1-1Z"></path>
</symbol><symbol viewBox="0 0 24 24" id="inco-icons-file_video">
  <defs>
    <style>
      .cls-1 {
        fill: #000;
        stroke-width: 0px;
      }
    </style>
  </defs>
  <path class="cls-1" d="M20.12,5.71l-3.83-3.83c-.57-.57-1.32-.88-2.12-.88H6c-1.65,0-3,1.35-3,3v16c0,1.65,1.35,3,3,3h12c1.65,0,3-1.35,3-3V7.83c0-.8-.31-1.56-.88-2.12ZM15,3.41l3.59,3.59h-3.59v-3.59ZM19,20c0,.55-.45,1-1,1H6c-.55,0-1-.45-1-1V4c0-.55.45-1,1-1h7v5c0,.55.45,1,1,1h5v11Z"></path>
  <path class="cls-1" d="M9.01,11.13c-.31.18-.51.51-.51.87v6c0,.36.19.69.51.87.15.09.32.13.49.13s.36-.05.51-.14l5-3c.3-.18.49-.51.49-.86s-.18-.68-.49-.86l-5-3c-.31-.19-.69-.19-1.01-.01ZM10.5,13.77l2.06,1.23-2.06,1.23v-2.47Z"></path>
</symbol><symbol viewBox="0 0 24 24" id="inco-icons-file_word">
  <defs>
    <style>
      .cls-1 {
        fill: #000;
        stroke-width: 0px;
      }
    </style>
  </defs>
  <path class="cls-1" d="M20.12,5.71l-3.83-3.83c-.57-.57-1.32-.88-2.12-.88H6c-1.65,0-3,1.35-3,3v16c0,1.65,1.35,3,3,3h12c1.65,0,3-1.35,3-3V7.83c0-.8-.31-1.56-.88-2.12ZM15,3.41l3.59,3.59h-3.59v-3.59ZM19,20c0,.55-.45,1-1,1H6c-.55,0-1-.45-1-1V4c0-.55.45-1,1-1h7v5c0,.55.45,1,1,1h5v11Z"></path>
  <path class="cls-1" d="M12.94,13.27s-.01-.02-.02-.03c-.03-.07-.07-.12-.11-.18-.03-.05-.06-.1-.1-.14-.04-.04-.1-.07-.15-.11-.06-.04-.11-.08-.17-.11-.01,0-.02-.01-.03-.02-.05-.02-.1-.01-.15-.02-.07-.01-.13-.03-.2-.03-.07,0-.14.02-.21.03-.05.01-.1,0-.14.02-.01,0-.02.01-.03.02-.07.03-.12.07-.18.11-.05.03-.1.06-.14.1-.04.04-.07.1-.1.15-.04.06-.08.11-.11.18,0,.01-.01.02-.02.03l-.56,1.5-.56-1.5c-.19-.52-.77-.78-1.29-.58-.52.19-.78.77-.58,1.29l1.5,4s.01.02.02.03c.01.03.03.06.05.09.04.08.09.15.15.21.03.03.05.05.08.08.07.06.15.11.23.14.02,0,.04.03.06.04,0,0,.02,0,.03,0,.1.04.21.06.32.06s.22-.02.32-.06c0,0,.02,0,.03,0,.02,0,.04-.03.06-.04.08-.04.16-.08.23-.14.03-.02.06-.05.08-.08.06-.06.11-.13.15-.21.02-.03.04-.06.05-.09,0-.01.01-.02.02-.03l.56-1.5.56,1.5s.01.02.02.03c.01.03.03.06.05.09.04.08.09.15.15.21.03.03.05.05.08.08.07.06.15.11.23.14.02,0,.04.03.06.04,0,0,.02,0,.03,0,.1.04.21.06.32.06s.22-.02.32-.06c0,0,.02,0,.03,0,.02,0,.04-.03.06-.04.08-.04.16-.08.23-.14.03-.02.06-.05.08-.08.06-.06.11-.13.15-.21.02-.03.04-.06.05-.09,0-.01.01-.02.02-.03l1.5-4c.19-.52-.07-1.09-.58-1.29-.52-.19-1.09.07-1.29.58l-.56,1.5-.56-1.5Z"></path>
</symbol><symbol viewBox="0 0 24 24" id="inco-icons-file_xd">
  <!-- Generator: Adobe Illustrator 28.7.1, SVG Export Plug-In . SVG Version: 1.2.0 Build 142)  -->
  <g>
    <g id="Layer_1">
      <g>
        <path d="M20.1,5.7l-3.8-3.8c-.6-.6-1.3-.9-2.1-.9H6c-1.7,0-3,1.3-3,3v16c0,1.7,1.3,3,3,3h12c1.7,0,3-1.3,3-3V7.8c0-.8-.3-1.6-.9-2.1ZM18.6,7h-3.6v-3.6l3.6,3.6ZM19,20c0,.6-.4,1-1,1H6c-.6,0-1-.4-1-1V4c0-.6.4-1,1-1h7v5c0,.6.4,1,1,1h5v11Z"></path>
        <path d="M12.4,18h2c.5,0,1-.5,1-1v-3c0-.5-.5-1-1-1h-2v5ZM13.4,14h1v3h-1v-3Z"></path>
        <polygon points="10.6 14.8 9.6 14.8 9.6 13 8.6 13 8.6 14.8 9.4 15.5 8.6 16.2 8.6 18 9.6 18 9.6 16.2 10.6 16.2 10.6 18 11.6 18 11.6 16.2 10.9 15.5 11.6 14.8 11.6 13 10.6 13 10.6 14.8"></polygon>
      </g>
    </g>
  </g>
</symbol><symbol viewBox="0 0 24 24" id="inco-icons-file_zip">
  <defs>
    <style>
      .cls-1 {
        fill: #000;
        stroke-width: 0px;
      }
    </style>
  </defs>
  <path class="cls-1" d="M20.12,5.71l-3.83-3.83c-.57-.57-1.32-.88-2.12-.88H6c-1.65,0-3,1.35-3,3v16c0,1.65,1.35,3,3,3h12c1.65,0,3-1.35,3-3V7.83c0-.8-.31-1.55-.88-2.12ZM18.59,7h-3.59v-3.59l3.59,3.59ZM19,20c0,.55-.45,1-1,1H6c-.55,0-1-.45-1-1V4c0-.55.45-1,1-1h2v.5c0,.55.45,1,1,1s1-.45,1-1v-.5h3v5c0,.55.45,1,1,1h5v11Z"></path>
  <path class="cls-1" d="M9,11.5c.55,0,1-.45,1-1v-.5c0-.55-.45-1-1-1s-1,.45-1,1v.5c0,.55.45,1,1,1Z"></path>
  <path class="cls-1" d="M9,8c.55,0,1-.45,1-1v-.5c0-.55-.45-1-1-1s-1,.45-1,1v.5c0,.55.45,1,1,1Z"></path>
  <path class="cls-1" d="M9.94,13.15c-.15-.39-.52-.65-.94-.65s-.79.26-.94.65l-.5,1.33c-.04.11-.06.23-.06.35v.67c0,.55.45,1,1,1h1c.55,0,1-.45,1-1v-.67c0-.12-.02-.24-.06-.35l-.5-1.33Z"></path>
</symbol><symbol viewBox="0 0 24 24" id="inco-icons-filter">
  <defs>
    <style>
      .cls-1 {
        fill: #000;
        stroke-width: 0px;
      }
    </style>
  </defs>
  <path class="cls-1" d="M14,22c-.15,0-.31-.04-.45-.11l-4-2c-.34-.17-.55-.52-.55-.89v-6.17L2.63,5.29c-.51-.6-.62-1.42-.29-2.13s1.03-1.16,1.81-1.16h15.69c.79,0,1.48.44,1.81,1.16s.22,1.53-.29,2.13l-6.37,7.53v8.17c0,.35-.18.67-.47.85-.16.1-.34.15-.53.15ZM11,18.38l2,1v-6.92c0-.24.08-.47.24-.65l6.61-7.81H4.16l6.61,7.81c.15.18.24.41.24.65v5.92Z"></path>
</symbol><symbol viewBox="0 0 24 24" id="inco-icons-folder">
  <defs>
    <style>
      .cls-1 {
        fill: #000;
        stroke-width: 0px;
      }
    </style>
  </defs>
  <path class="cls-1" d="M20,20.5H4c-1.7,0-3-1.4-3-3V5.5c0-1.7,1.3-3,3-3h5c.3,0,.5.1.7.3l2.7,2.7h7.6c1.6,0,3,1.3,3,3v9c0,1.6-1.4,3-3,3h0Z"></path>
</symbol><symbol viewBox="0 0 24 24" id="inco-icons-folder_add">
  <defs>
    <style>
      .cls-1 {
        fill: #000;
        stroke-width: 0px;
      }
    </style>
  </defs>
  <path class="cls-1" d="M20,6h-7.59l-2.71-2.71c-.19-.19-.44-.29-.71-.29h-5c-1.65,0-3,1.35-3,3v12c0,1.65,1.35,3,3,3h16c1.65,0,3-1.35,3-3v-9c0-1.65-1.35-3-3-3ZM21,18c0,.55-.45,1-1,1H4c-.55,0-1-.45-1-1V6c0-.55.45-1,1-1h4.59l2.71,2.71c.19.19.44.29.71.29h8c.55,0,1,.45,1,1v9Z"></path>
  <path class="cls-1" d="M14.5,12.5h-1.5v-1.5c0-.55-.45-1-1-1s-1,.45-1,1v1.5h-1.5c-.55,0-1,.45-1,1s.45,1,1,1h1.5v1.5c0,.55.45,1,1,1s1-.45,1-1v-1.5h1.5c.55,0,1-.45,1-1s-.45-1-1-1Z"></path>
</symbol><symbol viewBox="0 0 24 24" id="inco-icons-government">
  <defs>
    <style>
      .cls-1 {
        fill: #000;
        stroke-width: 0px;
      }
    </style>
  </defs>
  <path class="cls-1" d="M21,20h-.8v-7.15c.61-.24,1.07-.76,1.21-1.44.2-.93-.27-1.86-1.15-2.24l-7.27-3.22v-.15h1.7c.44,0,.83-.29.96-.71.13-.42-.04-.88-.4-1.12l-2.7-1.8s-.08-.04-.12-.06c-.03-.01-.05-.03-.08-.04-.11-.04-.22-.07-.34-.07,0,0-.01,0-.02,0-.01,0-.03,0-.04,0-.1,0-.2.02-.3.06-.03.01-.05.02-.08.03-.02,0-.04.01-.05.02-.09.05-.16.1-.23.17-.01,0-.02.02-.03.03-.07.07-.12.16-.17.25-.01.03-.03.06-.04.08-.04.11-.07.22-.07.35v2.95l-7.27,3.22c-.87.39-1.34,1.31-1.15,2.24.14.68.61,1.2,1.21,1.44v7.15h-.8c-.55,0-1,.45-1,1s.45,1,1,1h18c.55,0,1-.45,1-1s-.45-1-1-1ZM7.4,20h-1.6v-7h1.6v7ZM11,20h-1.6v-7h1.6v7ZM14.6,20h-1.6v-7h1.6v7ZM18.2,20h-1.6v-7h1.6v7ZM4.54,11l7.46-3.31,7.45,3.31H4.54Z"></path>
</symbol><symbol viewBox="0 0 320 320" id="inco-icons-gpt"><path d="m297.06 130.97c7.26-21.79 4.76-45.66-6.85-65.48-17.46-30.4-52.56-46.04-86.84-38.68-15.25-17.18-37.16-26.95-60.13-26.81-35.04-.08-66.13 22.48-76.91 55.82-22.51 4.61-41.94 18.7-53.31 38.67-17.59 30.32-13.58 68.54 9.92 94.54-7.26 21.79-4.76 45.66 6.85 65.48 17.46 30.4 52.56 46.04 86.84 38.68 15.24 17.18 37.16 26.95 60.13 26.8 35.06.09 66.16-22.49 76.94-55.86 22.51-4.61 41.94-18.7 53.31-38.67 17.57-30.32 13.55-68.51-9.94-94.51zm-120.28 168.11c-14.03.02-27.62-4.89-38.39-13.88.49-.26 1.34-.73 1.89-1.07l63.72-36.8c3.26-1.85 5.26-5.32 5.24-9.07v-89.83l26.93 15.55c.29.14.48.42.52.74v74.39c-.04 33.08-26.83 59.9-59.91 59.97zm-128.84-55.03c-7.03-12.14-9.56-26.37-7.15-40.18.47.28 1.3.79 1.89 1.13l63.72 36.8c3.23 1.89 7.23 1.89 10.47 0l77.79-44.92v31.1c.02.32-.13.63-.38.83l-64.41 37.19c-28.69 16.52-65.33 6.7-81.92-21.95zm-16.77-139.09c7-12.16 18.05-21.46 31.21-26.29 0 .55-.03 1.52-.03 2.2v73.61c-.02 3.74 1.98 7.21 5.23 9.06l77.79 44.91-26.93 15.55c-.27.18-.61.21-.91.08l-64.42-37.22c-28.63-16.58-38.45-53.21-21.95-81.89zm221.26 51.49-77.79-44.92 26.93-15.54c.27-.18.61-.21.91-.08l64.42 37.19c28.68 16.57 38.51 53.26 21.94 81.94-7.01 12.14-18.05 21.44-31.2 26.28v-75.81c.03-3.74-1.96-7.2-5.2-9.06zm26.8-40.34c-.47-.29-1.3-.79-1.89-1.13l-63.72-36.8c-3.23-1.89-7.23-1.89-10.47 0l-77.79 44.92v-31.1c-.02-.32.13-.63.38-.83l64.41-37.16c28.69-16.55 65.37-6.7 81.91 22 6.99 12.12 9.52 26.31 7.15 40.1zm-168.51 55.43-26.94-15.55c-.29-.14-.48-.42-.52-.74v-74.39c.02-33.12 26.89-59.96 60.01-59.94 14.01 0 27.57 4.92 38.34 13.88-.49.26-1.33.73-1.89 1.07l-63.72 36.8c-3.26 1.85-5.26 5.31-5.24 9.06l-.04 89.79zm14.63-31.54 34.65-20.01 34.65 20v40.01l-34.65 20-34.65-20z"></path></symbol><symbol viewBox="0 0 16 16" id="inco-icons-help">
  <path class="cls-1" d="M8,1c-3.87,0-7,3.13-7,7s3.13,7,7,7,7-3.13,7-7c0-3.86-3.14-7-7-7ZM8,13.83c-3.22,0-5.83-2.61-5.83-5.83s2.61-5.83,5.83-5.83,5.83,2.61,5.83,5.83c0,3.22-2.61,5.83-5.83,5.83Z"></path>
  <path class="cls-1" d="M8.42,3.95c-1.27-.23-2.48.61-2.71,1.88-.03.14-.04.28-.04.42,0,.32.26.58.58.58s.58-.26.58-.58c0-.64.52-1.17,1.17-1.17.07,0,.15,0,.22.02.47.09.84.46.93.93.09.5-.14,1-.58,1.24-.73.42-1.17,1.2-1.15,2.04v.43c0,.32.26.58.58.58s.58-.26.58-.58v-.43c-.01-.41.19-.8.54-1.02,1.13-.62,1.54-2.04.92-3.17-.34-.62-.94-1.05-1.63-1.17Z"></path>
  <path class="cls-1" d="M8,10.92h0c.32,0,.58.26.58.58h0c0,.32-.26.58-.58.58h0c-.32,0-.58-.26-.58-.58h0c0-.32.26-.58.58-.58Z"></path>
</symbol><symbol viewBox="0 0 24 24" id="inco-icons-help_circle">
  <defs>
    <style>
      .cls-1 {
        fill: #000;
        stroke-width: 0px;
      }
    </style>
  </defs>
  <path class="cls-1" d="M12,1.5C6.21,1.5,1.5,6.21,1.5,12c0,2.91,1.22,5.71,3.36,7.69,1.93,1.81,4.47,2.81,7.14,2.81s5.21-1,7.14-2.81c2.14-1.98,3.36-4.78,3.36-7.69,0-5.79-4.71-10.5-10.5-10.5ZM17.78,18.23c-1.56,1.47-3.62,2.27-5.78,2.27s-4.21-.81-5.78-2.28c-1.75-1.62-2.72-3.83-2.72-6.22C3.5,7.31,7.31,3.5,12,3.5s8.5,3.81,8.5,8.5c0,2.39-.97,4.6-2.72,6.23Z"></path>
  <path class="cls-1" d="M13.26,6.22c-2.12-.72-4.45.37-5.2,2.44-.19.52.08,1.09.6,1.28.52.19,1.09-.08,1.28-.6.38-1.05,1.58-1.6,2.67-1.23.83.28,1.39,1.04,1.39,1.89,0,1.03-1.72,1.85-2.32,2.05-.41.14-.68.52-.68.95v1c0,.55.45,1,1,1s1-.45,1-1v-.33c1.08-.5,3-1.66,3-3.67,0-1.7-1.1-3.22-2.74-3.78Z"></path>
  <path class="cls-1" d="M12.01,16h0c-.55,0-1,.45-1,1s.45,1,1,1,1-.45,1-1-.45-1-1-1Z"></path>
</symbol><symbol viewBox="0 0 24 24" id="inco-icons-history">
  <defs>
    <style>
      .cls-1 {
        fill: #000;
        stroke-width: 0px;
      }
    </style>
  </defs>
  <path class="cls-1" d="M12,7c-.55,0-1,.45-1,1v4s.02.06.02.09c0,.07.02.13.04.2.02.06.04.12.07.17.03.06.06.11.1.15.04.05.09.1.14.14.03.02.04.05.07.07l3,2c.17.11.36.17.55.17.32,0,.64-.16.83-.45.31-.46.18-1.08-.28-1.39l-2.55-1.7v-3.46c0-.55-.45-1-1-1Z"></path>
  <path class="cls-1" d="M12,2c-2.2,0-4.29.72-6,2.01h0c0-.56-.45-1.01-1-1.01s-1,.45-1,1v2.5c0,.55.45,1,1,1h2.5c.55,0,1-.45,1-1s-.45-1-1-1h-.15c1.34-.96,2.95-1.5,4.65-1.5,4.41,0,8,3.59,8,8s-3.59,8-8,8-8-3.59-8-8c0-.55-.45-1-1-1s-1,.45-1,1c0,5.51,4.49,10,10,10s10-4.49,10-10S17.51,2,12,2Z"></path>
</symbol><symbol viewBox="0 0 24 24" id="inco-icons-hospital">
  <defs>
    <style>
      .cls-1 {
        fill: #000;
        stroke-width: 0px;
      }
    </style>
  </defs>
  <path class="cls-1" d="M13,9.5v-1h1c.55,0,1-.45,1-1s-.45-1-1-1h-1v-1c0-.55-.45-1-1-1s-1,.45-1,1v1h-1c-.55,0-1,.45-1,1s.45,1,1,1h1v1c0,.55.45,1,1,1s1-.45,1-1Z"></path>
  <path class="cls-1" d="M10.5,13h-1c-.55,0-1,.45-1,1s.45,1,1,1h1c.55,0,1-.45,1-1s-.45-1-1-1Z"></path>
  <path class="cls-1" d="M10.5,17h-1c-.55,0-1,.45-1,1s.45,1,1,1h1c.55,0,1-.45,1-1s-.45-1-1-1Z"></path>
  <path class="cls-1" d="M14.5,13h-1c-.55,0-1,.45-1,1s.45,1,1,1h1c.55,0,1-.45,1-1s-.45-1-1-1Z"></path>
  <path class="cls-1" d="M14.5,17h-1c-.55,0-1,.45-1,1s.45,1,1,1h1c.55,0,1-.45,1-1s-.45-1-1-1Z"></path>
  <path class="cls-1" d="M20,4.5h-.5v-.5c0-1.65-1.35-3-3-3H7.5c-1.65,0-3,1.35-3,3v.5h-.5c-1.65,0-3,1.35-3,3v12.5c0,1.65,1.35,3,3,3h16c1.65,0,3-1.35,3-3V7.5c0-1.65-1.35-3-3-3ZM3,20V7.5c0-.55.45-1,1-1h.5v14.5h-.5c-.55,0-1-.45-1-1ZM6.5,5.5v-1.5c0-.55.45-1,1-1h9c.55,0,1,.45,1,1v17H6.5V5.5ZM21,20c0,.55-.45,1-1,1h-.5V6.5h.5c.55,0,1,.45,1,1v12.5Z"></path>
</symbol><symbol viewBox="0 0 16 16" id="inco-icons-image">
  <path class="cls-1" d="M4.5,6.54c0-.48.39-.88.88-.88s.88.39.88.88-.39.88-.88.88-.88-.39-.88-.88ZM13.83,7.12v4.97c0,1.61-1.31,2.92-2.92,2.92h-5.83c-1.61,0-2.92-1.31-2.92-2.92V3.92c0-1.61,1.31-2.92,2.92-2.92h2.63c1.09,0,2.12.42,2.89,1.2l2.03,2.03c.77.77,1.2,1.8,1.2,2.89ZM9.78,3.02c-.19-.19-.39-.34-.61-.47v2.53c0,.32.26.58.58.58h2.53c-.13-.22-.28-.43-.47-.61l-2.03-2.03h0ZM3.33,12.08s0,.03,0,.05l2.95-2.95c.78-.78,2.06-.78,2.84,0l.36.36c.3.3.8.3,1.1,0l2.07-2.07v-.35c0-.1,0-.19-.01-.28h-2.9c-.96,0-1.75-.79-1.75-1.75v-2.9c-.09,0-.19-.01-.28-.01h-2.63c-.96,0-1.75.79-1.75,1.75v8.17h0ZM12.67,12.08v-2.97l-1.25,1.25c-.76.76-2,.76-2.75,0l-.36-.36c-.33-.33-.87-.33-1.19,0l-3.29,3.29c.32.33.77.54,1.26.54h5.83c.96,0,1.75-.79,1.75-1.75Z"></path>
</symbol><symbol viewBox="0 0 16 16" id="inco-icons-include">
  <path class="cls-1" d="M14.49,8.23l-3.16-3.26c-.22-.23-.6-.24-.82-.01-.23.22-.24.6-.01.82l3,3.09H3.92c-.96,0-1.75-.79-1.75-1.75V2.46c0-.32-.26-.58-.58-.58s-.58.26-.58.58v4.67c0,1.61,1.31,2.92,2.92,2.92h9.58l-3,3.09c-.22.23-.22.6.01.82.11.11.26.16.41.16s.3-.06.42-.18l3.15-3.26c.68-.68.68-1.79,0-2.47h0Z"></path>
</symbol><symbol viewBox="0 0 16 16" id="inco-icons-info">
  <path class="cls-1" d="M8,1c-3.87,0-7,3.13-7,7s3.13,7,7,7,7-3.13,7-7c0-3.86-3.14-7-7-7ZM8,13.83c-3.22,0-5.83-2.61-5.83-5.83s2.61-5.83,5.83-5.83,5.83,2.61,5.83,5.83c0,3.22-2.61,5.83-5.83,5.83Z"></path>
  <circle class="cls-1" cx="8" cy="11.5" r=".58"></circle>
  <path class="cls-1" d="M8,5.08c-.32,0-.58.26-.58.58v3.5c0,.32.26.58.58.58s.58-.26.58-.58v-3.5c0-.32-.26-.58-.58-.58Z"></path>
</symbol><symbol viewBox="0 0 24 24" id="inco-icons-link">
  <defs>
    <style>
      .cls-1 {
        fill: #000;
        stroke-width: 0px;
      }
    </style>
  </defs>
  <path class="cls-1" d="M13.34,16.08l-2.81,2.81c-1.49,1.49-3.92,1.49-5.42,0-.72-.72-1.12-1.68-1.12-2.71s.4-1.99,1.12-2.71l2.81-2.81c.39-.39.39-1.02,0-1.41s-1.02-.39-1.41,0l-2.81,2.81c-1.1,1.1-1.7,2.56-1.7,4.12s.6,3.03,1.7,4.12c1.14,1.14,2.63,1.71,4.12,1.71s2.99-.57,4.12-1.71l2.81-2.81c.39-.39.39-1.02,0-1.41s-1.02-.39-1.41,0Z"></path>
  <path class="cls-1" d="M20.3,3.7c-2.27-2.27-5.97-2.27-8.25,0l-2.81,2.81c-.39.39-.39,1.02,0,1.41s1.02.39,1.41,0l2.81-2.81c1.49-1.49,3.92-1.49,5.42,0,.72.72,1.12,1.68,1.12,2.71s-.4,1.99-1.12,2.71l-2.81,2.81c-.39.39-.39,1.02,0,1.41.2.2.45.29.71.29s.51-.1.71-.29l2.81-2.81c1.1-1.1,1.7-2.56,1.7-4.12s-.6-3.03-1.7-4.12Z"></path>
  <path class="cls-1" d="M13.57,9.02l-4.55,4.55c-.39.39-.39,1.02,0,1.41.2.2.45.29.71.29s.51-.1.71-.29l4.55-4.55c.39-.39.39-1.02,0-1.41s-1.02-.39-1.41,0Z"></path>
</symbol><symbol viewBox="0 0 24 24" id="inco-icons-lock">
  <defs>
    <style>
      .cls-1 {
        fill: #000;
        stroke-width: 0px;
      }
    </style>
  </defs>
  <path class="cls-1" d="M17,7.1v-1.1c0-2.76-2.24-5-5-5s-5,2.24-5,5v1.1c-2.28.46-4,2.48-4,4.9v6c0,2.76,2.24,5,5,5h8c2.76,0,5-2.24,5-5v-6c0-2.41-1.72-4.43-4-4.9ZM12,3c1.65,0,3,1.35,3,3v1h-6v-1c0-1.65,1.35-3,3-3ZM19,18c0,1.65-1.35,3-3,3h-8c-1.65,0-3-1.35-3-3v-6c0-1.65,1.35-3,3-3h8c1.65,0,3,1.35,3,3v6Z"></path>
  <path class="cls-1" d="M12,13c-.55,0-1,.45-1,1v1c0,.55.45,1,1,1s1-.45,1-1v-1c0-.55-.45-1-1-1Z"></path>
</symbol><symbol viewBox="0 0 24 24" id="inco-icons-mainwiki">
  <!-- Generator: Adobe Illustrator 28.7.0, SVG Export Plug-In . SVG Version: 1.2.0 Build 136)  -->
  <g>
    <g id="Layer_1">
      <g id="Layer_1-2" data-name="Layer_1">
        <g>
          <path d="M16.4,7.4l-1.3-.2s-.2,0-.2-.2l-.6-1.2c-.1-.2-.4-.2-.5,0l-.6,1.2s-.1,0-.2.2l-1.3.2c-.2,0-.3.3-.2.5l1,.9s.1.2,0,.3l-.2,1.3c0,.2.2.4.4.3l1.2-.6h.3l1.2.6c.2.1.5,0,.4-.3l-.2-1.3v-.3l1-.9c.2-.2,0-.5-.2-.5Z"></path>
          <path d="M19,1H6c-1.7,0-3,1.3-3,3v16c0,1.7,1.3,3,3,3s1-.4,1-1-.4-1-1-1-1-.4-1-1,.4-1,1-1h2.5v2.8c0,.4.5.7.9.4l.8-.8c.2-.2.5-.2.7,0l.8.8c.3.3.9,0,.9-.4v-2.8h6.5v2h-4c-.6,0-1,.4-1,1s.4,1,1,1h4c1.1,0,2-.9,2-2V3c0-1.1-.9-2-2-2h0ZM7,17h-2.1V4c0-.6.4-1,1-1h1v14h0ZM19,17h-10V3h10v14Z"></path>
        </g>
      </g>
    </g>
  </g>
</symbol><symbol viewBox="0 0 24 24" id="inco-icons-manager">
  <defs>
    <style>
      .cls-1 {
        fill: #000;
        stroke-width: 0px;
      }
    </style>
  </defs>
  <path class="cls-1" d="M12,13c2.3,0,4.17-1.87,4.17-4.17s-1.87-4.17-4.17-4.17-4.17,1.87-4.17,4.17,1.87,4.17,4.17,4.17ZM12,6.67c1.19,0,2.17.97,2.17,2.17s-.97,2.17-2.17,2.17-2.17-.97-2.17-2.17.97-2.17,2.17-2.17Z"></path>
  <path class="cls-1" d="M19.15,19.68c2.13-1.98,3.35-4.78,3.35-7.68,0-5.79-4.71-10.5-10.5-10.5S1.5,6.21,1.5,12c0,2.91,1.22,5.71,3.36,7.69,1.94,1.81,4.47,2.81,7.14,2.81.33,0,.67-.02.99-.05,2.3-.22,4.46-1.18,6.15-2.76h0s0,0,0,0c0,0,0,0,0,0ZM12,3.5c4.69,0,8.5,3.81,8.5,8.5,0,1.99-.68,3.85-1.92,5.36-1.58-1.99-3.99-3.2-6.58-3.2s-5,1.2-6.58,3.2c-1.24-1.51-1.92-3.37-1.92-5.36C3.5,7.31,7.31,3.5,12,3.5ZM11.24,20.46c-.08,0-.16-.02-.24-.03-.17-.02-.34-.04-.5-.07-.09-.02-.18-.04-.28-.06-.15-.03-.31-.07-.46-.11-.09-.03-.18-.05-.28-.08-.15-.05-.3-.1-.44-.15-.09-.03-.17-.07-.26-.1-.15-.06-.3-.13-.45-.2-.08-.04-.15-.07-.23-.11-.17-.09-.34-.18-.5-.28-.05-.03-.1-.06-.15-.09-.21-.13-.41-.27-.6-.42,1.2-1.62,3.11-2.59,5.14-2.59s3.94.98,5.14,2.59c-.19.15-.39.29-.6.42-.06.04-.12.07-.18.1-.15.09-.31.18-.47.27-.08.04-.16.08-.24.12-.14.07-.29.13-.43.19-.09.04-.18.07-.27.1-.14.05-.29.1-.43.15-.09.03-.19.06-.28.08-.15.04-.3.08-.45.11-.09.02-.19.04-.28.06-.17.03-.33.05-.5.07-.08,0-.16.02-.25.03-.25.02-.5.04-.76.04s-.51-.01-.76-.04Z"></path>
</symbol><symbol viewBox="0 0 24 24" id="inco-icons-menu">
  <defs>
    <style>
      .cls-1 {
        fill: #000;
        stroke-width: 0px;
      }
    </style>
  </defs>
  <path class="cls-1" d="M4,6h16c.55,0,1-.45,1-1s-.45-1-1-1H4c-.55,0-1,.45-1,1s.45,1,1,1Z"></path>
  <path class="cls-1" d="M20,11H4c-.55,0-1,.45-1,1s.45,1,1,1h16c.55,0,1-.45,1-1s-.45-1-1-1Z"></path>
  <path class="cls-1" d="M20,18H4c-.55,0-1,.45-1,1s.45,1,1,1h16c.55,0,1-.45,1-1s-.45-1-1-1Z"></path>
</symbol><symbol viewBox="0 0 16 16" id="inco-icons-more">
  <circle class="cls-1" cx="8" cy="2.17" r="1.17"></circle>
  <circle class="cls-1" cx="8" cy="8" r="1.17"></circle>
  <circle class="cls-1" cx="8" cy="13.83" r="1.17"></circle>
</symbol><symbol viewBox="0 0 24 24" id="inco-icons-more_vertical">
  <defs>
    <style>
      .cls-1 {
        fill: #000;
        stroke-width: 0px;
      }
    </style>
  </defs>
  <path class="cls-1" d="M12,13.75c-.11,0-.23-.01-.34-.03-.11-.03-.22-.06-.33-.1-.1-.05-.21-.1-.3-.16-.1-.07-.19-.14-.27-.22-.32-.33-.51-.78-.51-1.24,0-.11,0-.23.04-.34.02-.11.05-.22.09-.33.05-.1.1-.21.17-.3.06-.1.13-.19.21-.27s.17-.15.27-.21c.09-.07.2-.12.3-.17.11-.04.22-.07.33-.09.57-.12,1.17.07,1.58.47.08.08.15.17.22.27.06.09.11.2.16.3.04.11.07.22.1.33.02.11.03.23.03.34,0,.46-.19.91-.51,1.24-.33.32-.78.51-1.24.51Z"></path>
  <path class="cls-1" d="M12,5.75c-.46,0-.91-.19-1.24-.51-.08-.08-.15-.17-.21-.27-.07-.09-.12-.19-.17-.3-.04-.11-.07-.22-.09-.33-.03-.11-.04-.23-.04-.34s0-.23.04-.34c.02-.11.05-.22.09-.33.05-.11.1-.21.17-.3.06-.1.13-.19.21-.27.66-.65,1.82-.65,2.48,0,.08.08.15.17.22.27.06.09.11.19.16.3.04.11.07.22.1.33.02.11.03.23.03.34s-.01.23-.03.34c-.03.11-.06.22-.1.33-.05.11-.1.21-.16.3-.07.1-.14.19-.22.27-.33.32-.78.51-1.24.51Z"></path>
  <path class="cls-1" d="M12,21.75c-.11,0-.23-.01-.34-.03-.11-.03-.22-.06-.33-.1-.1-.05-.21-.1-.3-.16-.1-.07-.19-.14-.27-.22-.32-.33-.51-.78-.51-1.24s.19-.91.51-1.24c.08-.08.17-.15.27-.21.09-.07.2-.12.3-.17.11-.04.22-.07.33-.09.22-.05.46-.05.68,0,.11.02.22.05.33.09.1.05.21.1.3.17.1.06.19.13.27.21.32.33.51.78.51,1.24s-.19.91-.51,1.24c-.08.08-.17.15-.27.22-.09.06-.2.11-.3.16-.11.04-.22.07-.33.1-.11.02-.23.03-.34.03Z"></path>
</symbol><symbol viewBox="0 0 24 24" id="inco-icons-no_affiliation">
  <defs>
    <style>
      .cls-1 {
        fill: #000;
        stroke-width: 0px;
      }
    </style>
  </defs>
  <path class="cls-1" d="M8.41,4.85c1.12-.56,2.33-.85,3.59-.85,4.41,0,8,3.59,8,8,0,1.26-.29,2.47-.85,3.59-.25.49-.05,1.09.44,1.34.14.07.3.11.45.11.37,0,.72-.2.89-.55.71-1.4,1.06-2.91,1.06-4.49,0-5.51-4.49-10-10-10-1.58,0-3.09.36-4.49,1.06-.49.25-.69.85-.44,1.34.25.49.85.69,1.34.44Z"></path>
  <path class="cls-1" d="M6.34,4.93s0,0,0,0,0,0,0,0l-2.63-2.63c-.39-.39-1.02-.39-1.41,0s-.39,1.02,0,1.41l1.96,1.96c-1.46,1.78-2.26,3.99-2.26,6.33,0,5.51,4.49,10,10,10,2.33,0,4.55-.8,6.33-2.26l1.96,1.96c.2.2.45.29.71.29s.51-.1.71-.29c.39-.39.39-1.02,0-1.41L6.34,4.93ZM12,20c-4.41,0-8-3.59-8-8,0-1.8.6-3.5,1.68-4.9l3.14,3.14h-.57c-.43,0-.66.5-.38.83l3.75,4.33c.2.23.56.23.76,0l.74-.86,3.78,3.78c-1.4,1.09-3.1,1.68-4.9,1.68Z"></path>
  <path class="cls-1" d="M13.24,10.24l1.93,1.93.96-1.1c.28-.32.05-.83-.38-.83h-2.51Z"></path>
</symbol><symbol viewBox="0 0 16 16" id="inco-icons-organization">
  <path class="cls-1" d="M5.08,9.17c0,.32-.26.58-.58.58h-.58c-.32,0-.58-.26-.58-.58s.26-.58.58-.58h.58c.32,0,.58.26.58.58ZM7.42,8.58h-.58c-.32,0-.58.26-.58.58s.26.58.58.58h.58c.32,0,.58-.26.58-.58s-.26-.58-.58-.58ZM4.5,10.92h-.58c-.32,0-.58.26-.58.58s.26.58.58.58h.58c.32,0,.58-.26.58-.58s-.26-.58-.58-.58ZM7.42,10.92h-.58c-.32,0-.58.26-.58.58s.26.58.58.58h.58c.32,0,.58-.26.58-.58s-.26-.58-.58-.58ZM4.5,3.92h-.58c-.32,0-.58.26-.58.58s.26.58.58.58h.58c.32,0,.58-.26.58-.58s-.26-.58-.58-.58ZM7.42,3.92h-.58c-.32,0-.58.26-.58.58s.26.58.58.58h.58c.32,0,.58-.26.58-.58s-.26-.58-.58-.58ZM4.5,6.25h-.58c-.32,0-.58.26-.58.58s.26.58.58.58h.58c.32,0,.58-.26.58-.58s-.26-.58-.58-.58ZM7.42,6.25h-.58c-.32,0-.58.26-.58.58s.26.58.58.58h.58c.32,0,.58-.26.58-.58s-.26-.58-.58-.58ZM15,6.83v5.25c0,1.61-1.31,2.91-2.92,2.92H3.92c-1.61,0-2.91-1.31-2.92-2.92V3.92c0-1.61,1.31-2.91,2.92-2.92h3.5c1.61,0,2.91,1.31,2.92,2.92h1.75c1.61,0,2.91,1.31,2.92,2.92ZM3.92,13.83h5.25V3.92c0-.97-.78-1.75-1.75-1.75h-3.5c-.97,0-1.75.78-1.75,1.75v8.17c0,.97.78,1.75,1.75,1.75ZM13.83,6.83c0-.97-.78-1.75-1.75-1.75h-1.75v8.75h1.75c.97,0,1.75-.78,1.75-1.75v-5.25ZM12.08,8.58c-.32,0-.58.26-.58.58s.26.58.58.58.58-.26.58-.58-.26-.58-.58-.58ZM12.08,10.92c-.32,0-.58.26-.58.58s.26.58.58.58.58-.26.58-.58-.26-.58-.58-.58ZM12.08,6.25c-.32,0-.58.26-.58.58s.26.58.58.58.58-.26.58-.58-.26-.58-.58-.58Z"></path>
</symbol><symbol viewBox="0 0 16 16" id="inco-icons-pdf">
  <path class="cls-1" d="M12.64,4.23l-2.04-2.04c-.77-.77-1.8-1.2-2.89-1.2h-2.63c-1.61,0-2.92,1.31-2.92,2.92v8.17c0,1.61,1.31,2.92,2.92,2.92h5.83c1.61,0,2.92-1.31,2.92-2.92v-4.96c0-1.09-.43-2.12-1.2-2.89ZM11.82,5.05c.19.19.34.39.47.61h-2.53c-.32,0-.58-.26-.58-.58v-2.53c.22.13.43.29.61.47l2.04,2.04h0ZM12.67,12.08c0,.96-.79,1.75-1.75,1.75h-5.83c-.96,0-1.75-.79-1.75-1.75V3.92c0-.96.79-1.75,1.75-1.75h2.63c.09,0,.19,0,.29.01v2.91c0,.96.79,1.75,1.75,1.75h2.9c.01.09.01.19.01.29v4.96ZM5.14,8.58h-.64c-.32,0-.58.26-.58.58v2.59c0,.2.16.36.36.36s.36-.16.36-.36v-.71h.49c.69,0,1.25-.55,1.25-1.23s-.56-1.23-1.25-1.23h0ZM5.14,10.32h-.48v-1h.49c.28,0,.52.23.52.5s-.24.5-.52.5h0ZM12.1,8.95c0,.2-.16.36-.36.36h-.99v.67h.72c.2,0,.36.16.36.36s-.16.36-.36.36h-.72v1.05c0,.2-.16.36-.36.36s-.36-.16-.36-.36v-2.81c0-.2.16-.36.36-.36h1.35c.2,0,.36.16.36.36h0ZM8.05,8.59h-.64c-.32,0-.58.26-.58.58v2.59c0,.2.16.33.36.33h.85c.69,0,1.25-.55,1.25-1.23v-1.04c0-.68-.56-1.23-1.25-1.23h0ZM8.57,10.86c0,.27-.24.5-.52.5h-.48v-2.04h.49c.28,0,.52.23.52.5v1.04h0Z"></path>
</symbol><symbol viewBox="0 0 24 24" id="inco-icons-phone">
  <defs>
    <style>
      .cls-1 {
        fill: #000;
        stroke-width: 0px;
      }
    </style>
  </defs>
  <path class="cls-1" d="M19.57,13.66c-.8-.11-1.58-.3-2.32-.58-1.02-.39-2.19-.14-2.97.64l-.6.59c-1.61-1.04-2.98-2.41-4.02-4.02l.6-.6c.77-.78,1.02-1.94.63-2.96-.28-.75-.47-1.53-.58-2.33-.2-1.39-1.38-2.41-2.8-2.42h-2.71c-.08,0-.17,0-.25.01-1.54.14-2.68,1.51-2.54,3.07.31,2.94,1.33,5.8,2.93,8.28,1.46,2.3,3.44,4.28,5.73,5.73,2.47,1.6,5.32,2.62,8.27,2.94.09,0,.17.01.26.01,1.55,0,2.8-1.27,2.8-2.82v-2.7c.03-1.42-1.01-2.64-2.43-2.84ZM20,16.49v2.72c0,.45-.36.81-.87.81-2.62-.28-5.17-1.19-7.38-2.63-2.05-1.3-3.82-3.07-5.13-5.13-1.44-2.22-2.34-4.78-2.62-7.39-.04-.44.29-.84.81-.88h2.73c.4,0,.75.3.8.69.12.94.36,1.87.69,2.76.11.29.04.63-.18.85l-1.15,1.15c-.32.32-.38.81-.16,1.2,1.38,2.42,3.38,4.43,5.81,5.81.39.22.88.16,1.2-.16l1.15-1.15c.22-.22.56-.29.86-.18.89.33,1.82.56,2.75.69.41.06.71.41.7.82,0,0,0,.02,0,.03Z"></path>
</symbol><symbol viewBox="0 0 16 16" id="inco-icons-plus">
  <path class="cls-1" d="M12.42,7.42h-3.83v-3.83c0-.32-.26-.58-.58-.58s-.58.26-.58.58v3.83h-3.83c-.32,0-.58.26-.58.58s.26.58.58.58h3.83v3.83c0,.32.26.58.58.58s.58-.26.58-.58v-3.83h3.83c.32,0,.58-.26.58-.58s-.26-.58-.58-.58Z"></path>
</symbol><symbol viewBox="0 0 24 24" id="inco-icons-position">
  <defs>
    <style>
      .cls-1 {
        fill: #000;
        stroke-width: 0px;
      }
    </style>
  </defs>
  <path class="cls-1" d="M20,9c0-4.41-3.59-8-8-8S4,4.59,4,9c0,2.66,1.31,5.01,3.31,6.47l-.85,6.4c-.05.38.12.76.44.97s.73.22,1.06.02l4.03-2.42,4.03,2.42c.16.09.34.14.51.14.19,0,.38-.05.55-.16.32-.21.49-.59.44-.97l-.85-6.4c2-1.46,3.31-3.81,3.31-6.47ZM6,9c0-3.31,2.69-6,6-6s6,2.69,6,6-2.69,6-6,6-6-2.69-6-6ZM15.28,20.08l-2.77-1.66c-.32-.19-.71-.19-1.03,0l-2.77,1.66.48-3.59c.87.33,1.82.52,2.8.52s1.93-.19,2.8-.52l.48,3.59Z"></path>
</symbol><symbol viewBox="0 0 16 16" id="inco-icons-ppt">
  <path class="cls-1" d="M12.64,4.23l-2.04-2.04c-.77-.77-1.8-1.2-2.89-1.2h-2.63c-1.61,0-2.92,1.31-2.92,2.92v8.17c0,1.61,1.31,2.92,2.92,2.92h5.83c1.61,0,2.92-1.31,2.92-2.92v-4.96c0-1.09-.43-2.12-1.2-2.89ZM11.82,5.05c.19.19.34.39.47.61h-2.53c-.32,0-.58-.26-.58-.58v-2.53c.22.13.43.29.61.47l2.04,2.04h0ZM12.67,12.08c0,.96-.79,1.75-1.75,1.75h-5.83c-.96,0-1.75-.79-1.75-1.75V3.92c0-.96.79-1.75,1.75-1.75h2.63c.09,0,.19,0,.29.01v2.91c0,.96.79,1.75,1.75,1.75h2.9c.01.09.01.19.01.29v4.96ZM6.83,12.67c-.32,0-.58-.26-.58-.58v-2.92c0-.64.52-1.17,1.17-1.17h.58c.96,0,1.75.79,1.75,1.75s-.79,1.75-1.75,1.75h-.58v.58c0,.32-.26.58-.58.58ZM7.42,10.33h.58c.32,0,.58-.26.58-.58s-.26-.58-.58-.58h-.58v1.17Z"></path>
</symbol><symbol viewBox="0 0 24 24" id="inco-icons-presentation">
  <defs>
    <style>
      .cls-1 {
        fill: #000;
        stroke-width: 0px;
      }
    </style>
  </defs>
  <path class="cls-1" d="M19,18H5c-1.65,0-3-1.35-3-3V5c0-1.65,1.35-3,3-3h14c1.65,0,3,1.35,3,3v10c0,1.65-1.35,3-3,3ZM5,4c-.55,0-1,.45-1,1v10c0,.55.45,1,1,1h14c.55,0,1-.45,1-1V5c0-.55-.45-1-1-1H5Z"></path>
  <path class="cls-1" d="M16,22h-8c-.55,0-1-.45-1-1s.45-1,1-1h8c.55,0,1,.45,1,1s-.45,1-1,1Z"></path>
  <path class="cls-1" d="M9.5,14c-.17,0-.34-.04-.49-.13-.31-.18-.51-.51-.51-.87v-6c0-.36.19-.69.51-.87s.7-.17,1.01.01l5,3c.3.18.49.51.49.86s-.18.68-.49.86l-5,3c-.16.09-.34.14-.51.14ZM10.5,8.77v2.47l2.06-1.23-2.06-1.23Z"></path>
</symbol><symbol viewBox="0 0 16 16" id="inco-icons-private">
  <path class="cls-1" d="M12.15,5.85v-.84c-.03-2.29-1.91-4.12-4.2-4.09-2.25.03-4.06,1.84-4.09,4.09v.84c-1.08.47-1.78,1.53-1.78,2.71v3.56c0,1.64,1.33,2.96,2.96,2.96h5.92c1.63,0,2.96-1.33,2.96-2.96v-3.56c0-1.18-.7-2.24-1.78-2.71ZM5.04,5.01c0-1.64,1.33-2.96,2.96-2.96s2.96,1.33,2.96,2.96v.59h-5.92v-.59ZM12.74,12.12c0,.98-.8,1.78-1.78,1.78h-5.92c-.98,0-1.78-.79-1.78-1.78v-3.56c0-.98.8-1.78,1.78-1.78h5.92c.98,0,1.78.8,1.78,1.78v3.55Z"></path>
  <path class="cls-1" d="M8,9.16c-.33,0-.59.27-.59.59v1.19c-.01.33.24.6.57.62s.6-.24.62-.57v-1.23c0-.33-.27-.59-.59-.59Z"></path>
  <polygon class="cls-1" points="8 9.16 8 9.16 8 9.16 8 9.16"></polygon>
</symbol><symbol viewBox="0 0 24 24" id="inco-icons-project">
  <defs>
    <style>
      .cls-1 {
        fill: #000;
        stroke-width: 0px;
      }
    </style>
  </defs>
  <path class="cls-1" d="M14,3.18v-1.18c0-.55-.45-1-1-1s-1,.45-1,1v1h-1v-1c0-.55-.45-1-1-1s-1,.45-1,1v1h-1v-1c0-.55-.45-1-1-1s-1,.45-1,1v1h-1v-1c0-.55-.45-1-1-1s-1,.45-1,1v1.18c-1.16.41-2,1.51-2,2.82v12c0,2.76,2.24,5,5,5h5c2.76,0,5-2.24,5-5V6c0-1.3-.84-2.4-2-2.82ZM14,18c0,1.65-1.35,3-3,3h-5c-1.65,0-3-1.35-3-3V6c0-.55.45-1,1-1h9c.55,0,1,.45,1,1v12Z"></path>
  <path class="cls-1" d="M20,1c-1.65,0-3,1.35-3,3v15.17c0,.8.31,1.56.88,2.12l1.41,1.41c.2.2.45.29.71.29s.51-.1.71-.29l1.41-1.41c.57-.57.88-1.32.88-2.12V4c0-1.65-1.35-3-3-3ZM21,19.17c0,.27-.1.52-.29.71l-.71.71-.71-.71c-.19-.19-.29-.44-.29-.71V4c0-.55.45-1,1-1s1,.45,1,1v15.17Z"></path>
  <path class="cls-1" d="M11,7h-5c-.55,0-1,.45-1,1s.45,1,1,1h5c.55,0,1-.45,1-1s-.45-1-1-1Z"></path>
  <path class="cls-1" d="M11,11h-5c-.55,0-1,.45-1,1s.45,1,1,1h5c.55,0,1-.45,1-1s-.45-1-1-1Z"></path>
  <path class="cls-1" d="M8,15h-2c-.55,0-1,.45-1,1s.45,1,1,1h2c.55,0,1-.45,1-1s-.45-1-1-1Z"></path>
</symbol><symbol viewBox="0 0 24 24" id="inco-icons-public">
  <defs>
    <style>
      .cls-1 {
        fill: #000;
        stroke-width: 0px;
      }
    </style>
  </defs>
  <path class="cls-1" d="M19.96,18.03c1.28-1.68,2.04-3.76,2.04-6.03,0-3.23-1.54-6.09-3.92-7.92-.04-.04-.08-.06-.12-.09-1.67-1.24-3.73-1.99-5.96-1.99C6.49,2,2,6.49,2,12s4.49,10,10,10c3.21,0,6.06-1.53,7.89-3.88,0,0,0,0,.01,0,.02-.02.03-.05.05-.08ZM20,12c0,1.38-.35,2.68-.97,3.82l-.53-.53c-.07-.07-.1-.15-.1-.25v-1.69c0-1.3-1.05-2.35-2.35-2.35h-3.15c-.44,0-.8-.36-.8-.8v-.45c0-.19.16-.35.35-.35,1.3,0,2.35-1.05,2.35-2.35,0-.19.16-.35.35-.35h.13c.36,0,.73-.09,1.05-.25l.93-.46c1.68,1.47,2.74,3.62,2.74,6.01ZM4.11,13.24l2.27,1.83c.5.4,1.12.62,1.76.62h2.06c.44,0,.8.36.8.8v3.43c-3.53-.44-6.34-3.19-6.89-6.69ZM13,19.93v-3.43c0-1.54-1.26-2.8-2.8-2.8h-2.06c-.18,0-.36-.06-.5-.18l-3.52-2.84c.63-3.78,3.92-6.68,7.88-6.68,1.16,0,2.26.25,3.26.7h-.11c-1.3,0-2.35,1.05-2.35,2.35,0,.19-.16.35-.35.35-1.3,0-2.35,1.05-2.35,2.35v.45c0,1.54,1.26,2.8,2.8,2.8h3.15c.19,0,.35.16.35.35v1.69c0,.63.24,1.22.69,1.66l.75.75c-1.25,1.33-2.94,2.24-4.84,2.48Z"></path>
</symbol><symbol viewBox="0 0 24 24" id="inco-icons-sale_log">
  <defs>
    <style>
      .cls-1 {
        fill: #000;
        stroke-width: 0px;
      }
    </style>
  </defs>
  <path class="cls-1" d="M20.12,5.71l-3.83-3.83c-.57-.57-1.32-.88-2.12-.88H6c-1.65,0-3,1.35-3,3v16c0,1.65,1.35,3,3,3h12c1.65,0,3-1.35,3-3V7.83c0-.8-.31-1.56-.88-2.12ZM18.59,7h-3.59v-3.59l3.59,3.59ZM19,20c0,.55-.45,1-1,1H6c-.55,0-1-.45-1-1V4c0-.55.45-1,1-1h7v5c0,.55.45,1,1,1h5v11Z"></path>
  <path class="cls-1" d="M8,7h2c.55,0,1-.45,1-1s-.45-1-1-1h-2c-.55,0-1,.45-1,1s.45,1,1,1Z"></path>
  <path class="cls-1" d="M8,11h2c.55,0,1-.45,1-1s-.45-1-1-1h-2c-.55,0-1,.45-1,1s.45,1,1,1Z"></path>
  <path class="cls-1" d="M7,15v2c0,1.1.9,2,2,2h6c1.1,0,2-.9,2-2v-2c0-1.1-.9-2-2-2h-6c-1.1,0-2,.9-2,2ZM15,17h-6v-2h6v2Z"></path>
</symbol><symbol viewBox="0 0 24 24" id="inco-icons-sales_discovery">
  <defs>
    <style>
      .cls-1 {
        fill: #000;
        stroke-width: 0px;
      }
    </style>
  </defs>
  <path class="cls-1" d="M21.18,10.38c-.36-.42-.99-.47-1.41-.12-.42.36-.47.99-.12,1.41.87,1.02,1.34,2.32,1.34,3.66v3.59c0,1.15-.93,2.08-2.08,2.08h-3.59c-1.31,0-2.59-.46-3.6-1.29-.43-.35-1.06-.29-1.41.13-.35.43-.29,1.06.13,1.41,1.37,1.13,3.1,1.75,4.88,1.75h3.59c2.25,0,4.08-1.83,4.08-4.08v-3.59c0-1.81-.65-3.58-1.82-4.96Z"></path>
  <path class="cls-1" d="M10.2,5.13c-1.7-.58-3.58.3-4.18,1.96-.19.52.08,1.09.6,1.28.52.19,1.09-.08,1.28-.6.23-.65.98-.98,1.65-.75.51.17.85.64.85,1.15,0,.53-1,1.09-1.54,1.27-.52.17-.81.74-.63,1.26.14.42.53.68.95.68.1,0,.21-.02.32-.05.3-.1,2.91-1.03,2.91-3.17,0-1.37-.88-2.59-2.2-3.05Z"></path>
  <path class="cls-1" d="M9.19,12.07h0c-.55,0-1,.45-1,1s.45,1,1,1,1-.45,1-1-.45-1-1-1Z"></path>
  <path class="cls-1" d="M14.68,18.52c.19.17.43.26.67.26s.48-.09.67-.26l2.55-2.33c.41-.37.44-1.01.06-1.41-.37-.41-1-.44-1.41-.06l-1.88,1.72-.71-.64c1.7-1.38,2.8-3.48,2.8-5.83v-1.44c0-4.14-3.36-7.5-7.5-7.5h-1.44C4.36,1,1,4.36,1,8.5v4.94c0,2.21,1.79,4,4,4h4.94c1.03,0,2.02-.21,2.92-.59l1.82,1.66ZM5,15.44c-1.1,0-2-.9-2-2v-4.94c0-3.03,2.47-5.5,5.5-5.5h1.44c3.03,0,5.5,2.47,5.5,5.5v1.44c0,3.03-2.47,5.5-5.5,5.5h-4.94Z"></path>
</symbol><symbol viewBox="0 0 24 24" id="inco-icons-sales_offer">
  <defs>
    <style>
      .cls-1 {
        fill: #000;
        stroke-width: 0px;
      }
    </style>
  </defs>
  <path class="cls-1" d="M12.5,21H4.5c-.55,0-1-.45-1-1V4c0-.55.45-1,1-1h7v5c0,.55.45,1,1,1h6c.55,0,1-.45,1-1v-.17c0-.8-.31-1.56-.88-2.12l-3.83-3.83c-.57-.57-1.32-.88-2.12-.88H4.5c-1.65,0-3,1.35-3,3v16c0,1.65,1.35,3,3,3h8c.55,0,1-.45,1-1s-.45-1-1-1ZM13.5,3.41l3.59,3.59h-3.59v-3.59Z"></path>
  <path class="cls-1" d="M20.17,15.81l-3.61-.6c-.38-.06-.66-.39-.66-.78,0-.43.35-.79.79-.79h3.03c.32,0,.6.19.73.48.21.51.8.75,1.31.54.51-.21.75-.8.54-1.31-.43-1.04-1.44-1.72-2.57-1.72h-.51v-.65c0-.55-.45-1-1-1s-1,.45-1,1v.65h-.51c-1.54,0-2.79,1.25-2.79,2.79,0,1.37.98,2.52,2.33,2.75l3.61.6c.38.06.66.39.66.78,0,.43-.35.79-.79.79h-3.03c-.32,0-.6-.19-.73-.48-.21-.51-.8-.75-1.31-.54-.51.21-.75.8-.54,1.31.43,1.04,1.44,1.72,2.57,1.72h.51v.65c0,.55.45,1,1,1s1-.45,1-1v-.65h.51c1.54,0,2.79-1.25,2.79-2.79,0-1.37-.98-2.52-2.33-2.75Z"></path>
  <path class="cls-1" d="M6.5,7h2c.55,0,1-.45,1-1s-.45-1-1-1h-2c-.55,0-1,.45-1,1s.45,1,1,1Z"></path>
  <path class="cls-1" d="M6.5,11h2c.55,0,1-.45,1-1s-.45-1-1-1h-2c-.55,0-1,.45-1,1s.45,1,1,1Z"></path>
  <path class="cls-1" d="M11.5,15c.55,0,1-.45,1-1s-.45-1-1-1h-4c-1.1,0-2,.9-2,2v2c0,1.1.9,2,2,2h4c.55,0,1-.45,1-1s-.45-1-1-1h-4v-2h4Z"></path>
</symbol><symbol viewBox="0 0 24 24" id="inco-icons-sales_stop">
  <defs>
    <style>
      .cls-1 {
        fill: #000;
        stroke-width: 0px;
      }
    </style>
  </defs>
  <path class="cls-1" d="M12,2C6.49,2,2,6.49,2,12s4.49,10,10,10,10-4.49,10-10S17.51,2,12,2ZM12,20c-4.41,0-8-3.59-8-8S7.59,4,12,4s8,3.59,8,8-3.59,8-8,8Z"></path>
  <path class="cls-1" d="M10,9c-.55,0-1,.45-1,1v4c0,.55.45,1,1,1s1-.45,1-1v-4c0-.55-.45-1-1-1Z"></path>
  <path class="cls-1" d="M14,9c-.55,0-1,.45-1,1v4c0,.55.45,1,1,1s1-.45,1-1v-4c0-.55-.45-1-1-1Z"></path>
</symbol><symbol viewBox="0 0 24 24" id="inco-icons-sales_success">
  <defs>
    <style>
      .cls-1 {
        fill: #000;
        stroke-width: 0px;
      }
    </style>
  </defs>
  <path class="cls-1" d="M8.88,19h-4.5c-.55,0-1-.45-1-1V4c0-.55.45-1,1-1h7v5c0,.55.45,1,1,1h5v1.02c0,.55.45,1,1,1s1-.45,1-1v-2.2c0-.8-.31-1.56-.88-2.12l-3.83-3.83c-.57-.57-1.32-.88-2.12-.88H4.38c-1.65,0-3,1.35-3,3v14c0,1.65,1.35,3,3,3h4.5c.55,0,1-.45,1-1s-.45-1-1-1ZM13.38,3.42l3.59,3.58h-3.59v-3.58Z"></path>
  <path class="cls-1" d="M22.02,12.35h0c-.91-.91-2.4-.91-3.31,0l-6.74,6.74c-.44.44-.68,1.04-.68,1.65v1.26c0,.6.49,1.08,1.08,1.08h1.26c.62,0,1.21-.24,1.66-.69l6.74-6.74c.91-.91.91-2.4,0-3.31ZM20.49,14.13l-6.74,6.74s-.08.05-.12.05h-.17v-.17s.02-.09.05-.12l6.74-6.74c.07-.07.18-.07.24,0s.07.18,0,.24Z"></path>
  <path class="cls-1" d="M11.41,12.23c-.55,0-1,.45-1,1,0,1-1,1.77-1.41,1.77-.07,0-.18-.06-.32-.16.17-.31.34-.65.51-1.02.48-1.07.65-2.2.5-3.27-.31-2.27-1.74-2.52-2.34-2.52s-2.03.25-2.34,2.52c-.15,1.07.03,2.2.5,3.28.15.33.35.72.61,1.11-.06.04-.1.06-.12.07-.55,0-1,.45-1,1s.45,1,1,1c.51,0,1-.19,1.46-.58.46.35.98.58,1.54.58,1.54,0,3.41-1.68,3.41-3.77,0-.55-.45-1-1-1ZM7.36,13.01s0,.02-.01.03c0,0,0-.02-.01-.03-.33-.73-.45-1.49-.35-2.19.03-.18.13-.79.36-.79s.34.6.36.79c.1.7-.02,1.46-.35,2.19Z"></path>
</symbol><symbol viewBox="0 0 24 24" id="inco-icons-save">
  <defs>
    <style>
      .cls-1 {
        fill: #000;
        stroke-width: 0px;
      }
    </style>
  </defs>
  <path class="cls-1" d="M21.1,5.7l-2.8-2.8c-.6-.6-1.3-.9-2.1-.9H6c-2.2,0-4,1.8-4,4v12c0,2.2,1.8,4,4,4h12c2.2,0,4-1.8,4-4V7.8c0-.8-.3-1.6-.9-2.1ZM15,4v1.7c0,.2,0,.3,0,.3h-5.8c0,0,0-.2,0-.3v-1.7h6ZM20,18c0,1.1-.9,2-2,2H6c-1.1,0-2-.9-2-2V6c0-1.1.9-2,2-2h1v1.7c0,1.3.9,2.3,2,2.3h6c1.1,0,2-1,2-2.3v-1.3l2.7,2.7c.2.2.3.4.3.7v10.2Z"></path>
  <path class="cls-1" d="M12,10c-2.2,0-4,1.8-4,4s1.8,4,4,4,4-1.8,4-4-1.8-4-4-4ZM12,16c-1.1,0-2-.9-2-2s.9-2,2-2,2,.9,2,2-.9,2-2,2Z"></path>
</symbol><symbol viewBox="0 0 24 24" id="inco-icons-search">
  <defs>
    <style>
      .cls-1 {
        fill: #000;
        stroke-width: 0px;
      }
    </style>
  </defs>
  <path class="cls-1" d="M22.71,21.29l-5.68-5.68c1.23-1.54,1.98-3.49,1.98-5.61,0-4.96-4.04-9-9-9S1,5.04,1,10s4.04,9,9,9c2.12,0,4.07-.74,5.61-1.98l5.68,5.68c.2.2.45.29.71.29s.51-.1.71-.29c.39-.39.39-1.02,0-1.41ZM3,10c0-3.86,3.14-7,7-7s7,3.14,7,7-3.14,7-7,7-7-3.14-7-7Z"></path>
</symbol><symbol viewBox="0 0 24 24" id="inco-icons-secret_file">
  <defs>
    <style>
      .cls-1 {
        fill: #000;
        stroke-width: 0px;
      }
    </style>
  </defs>
  <path class="cls-1" d="M12,21H4c-.55,0-1-.45-1-1V4c0-.55.45-1,1-1h7v5c0,.55.45,1,1,1h6c.55,0,1-.45,1-1v-.17c0-.8-.31-1.56-.88-2.12l-3.83-3.83c-.57-.57-1.32-.88-2.12-.88H4c-1.65,0-3,1.35-3,3v16c0,1.65,1.35,3,3,3h8c.55,0,1-.45,1-1s-.45-1-1-1ZM13,3.41l3.59,3.59h-3.59v-3.59Z"></path>
  <path class="cls-1" d="M10,12h-4c-.55,0-1,.45-1,1s.45,1,1,1h4c.55,0,1-.45,1-1s-.45-1-1-1Z"></path>
  <path class="cls-1" d="M10,16h-4c-.55,0-1,.45-1,1s.45,1,1,1h4c.55,0,1-.45,1-1s-.45-1-1-1Z"></path>
  <path class="cls-1" d="M22.45,12.11l-4-2c-.28-.14-.61-.14-.89,0l-4,2c-.34.17-.55.52-.55.89v4c0,1.57.75,3.06,2,4l2.4,1.8c.18.13.39.2.6.2s.42-.07.6-.2l2.4-1.8c1.25-.94,2-2.43,2-4v-4c0-.38-.21-.73-.55-.89ZM21,17c0,.94-.45,1.84-1.2,2.4l-1.8,1.35-1.8-1.35c-.75-.56-1.2-1.46-1.2-2.4v-3.38l3-1.5,3,1.5v3.38Z"></path>
</symbol><symbol viewBox="0 0 16 16" id="inco-icons-security_file">
  <path class="cls-1" d="M8,13.83H3.92c-.96,0-1.75-.78-1.75-1.75V3.91c0-.96.78-1.75,1.75-1.75h2.63c.1,0,.19,0,.28.01v2.9c0,.96.78,1.75,1.75,1.75h3.39c.18,0,.35-.08.46-.23s.15-.33.1-.5c-.18-.71-.55-1.36-1.07-1.88l-2.03-2.03c-.77-.77-1.8-1.2-2.89-1.2h-2.63c-1.61,0-2.91,1.31-2.91,2.91v8.16c0,1.61,1.31,2.91,2.91,2.91h4.08c.32,0,.58-.26.58-.58s-.26-.58-.58-.58ZM8,2.55c.22.13.43.28.61.47l2.03,2.03c.18.18.34.39.47.61h-2.53c-.32,0-.58-.26-.58-.58v-2.53ZM7.42,11.49c0,.32-.26.58-.58.58h-2.91c-.32,0-.58-.26-.58-.58s.26-.58.58-.58h2.91c.32,0,.58.26.58.58ZM7.42,9.16c0,.32-.26.58-.58.58h-2.91c-.32,0-.58-.26-.58-.58s.26-.58.58-.58h2.91c.32,0,.58.26.58.58ZM14.2,8.18l-2.22-.74c-.12-.04-.25-.04-.37,0l-2.22.74c-.48.16-.8.6-.8,1.11v1.94c0,2.08,2.17,3.32,2.83,3.66,0,0,.18.12.38.12s.34-.09.34-.09c.67-.27,2.87-1.34,2.87-3.69v-1.94c0-.5-.32-.95-.8-1.11h0ZM13.83,11.22c0,1.5-1.41,2.29-2.01,2.55-.53-.29-2.07-1.22-2.07-2.55v-1.94l2.04-.68,2.04.68v1.94Z"></path>
</symbol><symbol viewBox="0 0 24 24" id="inco-icons-setting">
  <defs>
    <style>
      .cls-1 {
        fill: #000;
        stroke-width: 0px;
      }
    </style>
  </defs>
  <path class="cls-1" d="M12,7.67c-2.39,0-4.33,1.94-4.33,4.33s1.94,4.33,4.33,4.33,4.33-1.94,4.33-4.33-1.94-4.33-4.33-4.33ZM12,14.33c-1.29,0-2.33-1.05-2.33-2.33s1.05-2.33,2.33-2.33,2.33,1.05,2.33,2.33-1.05,2.33-2.33,2.33Z"></path>
  <path class="cls-1" d="M20.05,8.78s-.07,0-.1-.07c-.03-.07,0-.1.02-.12.56-.56.86-1.3.86-2.09s-.31-1.53-.86-2.09l-.38-.38c-1.12-1.12-3.06-1.12-4.18,0-.02.02-.05.05-.12.02-.07-.03-.07-.08-.07-.1,0-1.63-1.32-2.95-2.95-2.95h-.54c-1.63,0-2.95,1.32-2.95,2.95,0,.03,0,.07-.07.1-.07.03-.1,0-.12-.02-1.12-1.12-3.06-1.12-4.18,0l-.38.38c-.56.56-.86,1.3-.86,2.09s.31,1.53.86,2.09c.02.02.05.05.02.12-.03.07-.08.07-.1.07-1.63,0-2.95,1.32-2.95,2.95v.54c0,1.63,1.32,2.95,2.95,2.95.03,0,.07,0,.1.07.03.07,0,.1-.02.12-.56.56-.86,1.3-.86,2.09s.31,1.53.86,2.09l.38.38c1.12,1.12,3.06,1.12,4.18,0,.02-.02.05-.05.12-.02.07.03.07.08.07.1,0,1.63,1.32,2.95,2.95,2.95h.54c1.63,0,2.95-1.32,2.95-2.95,0-.03,0-.07.07-.1.07-.03.1,0,.12.02,1.12,1.12,3.06,1.12,4.18,0l.38-.38c.56-.56.86-1.3.86-2.09s-.31-1.53-.86-2.09c-.02-.02-.05-.05-.02-.12.03-.07.07-.07.1-.07,1.63,0,2.95-1.32,2.95-2.95v-.54c0-1.63-1.32-2.95-2.95-2.95ZM21,12.27c0,.53-.43.95-.95.95-.86,0-1.62.51-1.95,1.3s-.15,1.69.46,2.3c.18.18.28.42.28.67s-.1.49-.28.67l-.38.38c-.37.37-.98.37-1.35,0-.61-.61-1.51-.78-2.3-.46-.79.33-1.3,1.09-1.3,1.95,0,.53-.43.95-.95.95h-.54c-.53,0-.95-.43-.95-.95,0-.86-.51-1.62-1.3-1.95-.26-.11-.54-.16-.81-.16-.55,0-1.09.21-1.49.62-.37.37-.98.37-1.35,0l-.38-.38c-.18-.18-.28-.42-.28-.67s.1-.49.28-.67c.61-.61.79-1.51.46-2.3s-1.09-1.3-1.95-1.3c-.53,0-.95-.43-.95-.95v-.54c0-.53.43-.95.95-.95.86,0,1.62-.51,1.95-1.3.33-.79.15-1.69-.46-2.3-.18-.18-.28-.42-.28-.67s.1-.49.28-.67l.38-.38c.36-.36.99-.36,1.35,0,.61.61,1.51.79,2.3.46.79-.33,1.3-1.09,1.3-1.95,0-.53.43-.95.95-.95h.54c.53,0,.95.43.95.95,0,.86.51,1.62,1.3,1.95.79.33,1.69.15,2.3-.46.36-.36.99-.36,1.35,0l.38.38c.18.18.28.42.28.67s-.1.49-.28.67c-.61.61-.79,1.51-.46,2.3.33.79,1.09,1.3,1.95,1.3.53,0,.95.43.95.95v.54Z"></path>
</symbol><symbol viewBox="0 0 24 24" id="inco-icons-share">
  <defs>
    <style>
      .cls-1 {
        fill: #000;
        stroke-width: 0px;
      }
    </style>
  </defs>
  <path class="cls-1" d="M18,14c-1.2,0-2.27.54-3,1.38l-5.09-2.55c.06-.27.09-.55.09-.84s-.03-.57-.09-.84l5.09-2.55c.73.84,1.8,1.38,3,1.38,2.21,0,4-1.79,4-4s-1.79-4-4-4-4,1.79-4,4c0,.29.03.57.09.84l-5.09,2.55c-.73-.84-1.8-1.38-3-1.38-2.21,0-4,1.79-4,4s1.79,4,4,4c1.2,0,2.27-.54,3-1.38l5.09,2.55c-.06.27-.09.55-.09.84,0,2.21,1.79,4,4,4s4-1.79,4-4-1.79-4-4-4ZM18,4c1.1,0,2,.9,2,2s-.9,2-2,2-2-.9-2-2,.9-2,2-2ZM6,14c-1.1,0-2-.9-2-2s.9-2,2-2,2,.9,2,2-.9,2-2,2ZM18,20c-1.1,0-2-.9-2-2s.9-2,2-2,2,.9,2,2-.9,2-2,2Z"></path>
</symbol><symbol viewBox="0 0 24 24" id="inco-icons-star_fill">
  <!-- Generator: Adobe Illustrator 29.0.0, SVG Export Plug-In . SVG Version: 2.1.0 Build 186)  -->
  <path d="M16.9,21.5c-.3,0-.6,0-.9-.2l-3.9-2.1-3.9,2.1c-.7.4-1.5.3-2.1-.2-.6-.5-.9-1.2-.8-2l.7-4.4-3.2-3.1c-.5-.5-.7-1.3-.5-2,.2-.7.9-1.3,1.6-1.4l4.4-.6,2-4c.3-.7,1-1.1,1.8-1.1s1.5.4,1.8,1.1l2,4,4.4.6c.8.1,1.4.6,1.6,1.4s0,1.5-.5,2l-3.2,3.1.7,4.4c.1.8-.2,1.5-.8,2-.3.3-.8.4-1.2.4Z"></path>
</symbol><symbol viewBox="0 0 24 24" id="inco-icons-star_outline">
  <!-- Generator: Adobe Illustrator 29.0.0, SVG Export Plug-In . SVG Version: 2.1.0 Build 186)  -->
  <path d="M16.9,21.5c-.3,0-.6,0-.9-.2l-3.9-2.1-3.9,2.1c-.7.4-1.5.3-2.1-.2-.6-.5-.9-1.2-.8-2l.7-4.4-3.2-3.1c-.5-.5-.7-1.3-.5-2,.2-.7.9-1.3,1.6-1.4l4.4-.6,2-4c.3-.7,1-1.1,1.8-1.1s1.5.4,1.8,1.1l2,4,4.4.6c.8.1,1.4.6,1.6,1.4s0,1.5-.5,2l-3.2,3.1.7,4.4c.1.8-.2,1.5-.8,2-.3.3-.8.4-1.2.4ZM12,17.2c.3,0,.6,0,.9.2l3.9,2.1-.7-4.4c-.1-.6.1-1.3.6-1.8l3.2-3.1-4.4-.6c-.7,0-1.2-.5-1.5-1.1l-2-4h0s-2,4-2,4c-.3.6-.9,1-1.5,1.1l-4.4.6,3.2,3.1c.5.5.7,1.1.6,1.8l-.7,4.4,3.9-2.1c.3-.2.6-.2.9-.2Z"></path>
</symbol><symbol viewBox="0 0 24 24" id="inco-icons-step">
  <defs>
    <style>
      .cls-1 {
        fill: #000;
        stroke-width: 0px;
      }
    </style>
  </defs>
  <path class="cls-1" d="M22,23H2c-.55,0-1-.45-1-1v-4.5c0-.83.67-1.5,1.5-1.5h3.5v-3.5c0-.83.67-1.5,1.5-1.5h3.5v-3.5c0-.83.67-1.5,1.5-1.5h3.5v-3.5c0-.83.67-1.5,1.5-1.5h4.5c.55,0,1,.45,1,1v20c0,.55-.45,1-1,1ZM3,21h18V3h-3v3.5c0,.83-.67,1.5-1.5,1.5h-3.5v3.5c0,.83-.67,1.5-1.5,1.5h-3.5v3.5c0,.83-.67,1.5-1.5,1.5h-3.5v3Z"></path>
</symbol><symbol viewBox="0 0 24 24" id="inco-icons-table_list">
  <!-- Generator: Adobe Illustrator 29.0.1, SVG Export Plug-In . SVG Version: 2.1.0 Build 192)  -->
  <g>
    <path d="M4.5,13.8c-.5,0-.9-.2-1.2-.5-.3-.3-.5-.8-.5-1.2s0-.2,0-.3c0-.1,0-.2.1-.3,0-.1.1-.2.2-.3,0-.1.1-.2.2-.3.6-.7,1.8-.7,2.5,0,0,0,.1.2.2.3,0,0,.1.2.2.3,0,.1,0,.2,0,.3,0,.1,0,.2,0,.3,0,.5-.2.9-.5,1.2-.3.3-.8.5-1.2.5Z"></path>
    <path d="M4.5,6.8c-.5,0-.9-.2-1.2-.5-.2-.2-.3-.4-.4-.6,0-.2-.1-.4-.1-.7s0-.2,0-.3c0-.1,0-.2,0-.3,0-.1.1-.2.2-.3,0-.1.1-.2.2-.3.7-.7,1.8-.7,2.5,0,0,0,.1.2.2.3,0,0,.1.2.2.3,0,.1,0,.2,0,.3,0,.1,0,.2,0,.3,0,.2,0,.5-.1.7,0,.2-.2.4-.4.6-.2.2-.4.3-.6.4s-.4.1-.7.1Z"></path>
    <path d="M4.5,20.8c-.5,0-.9-.2-1.2-.5-.3-.3-.5-.8-.5-1.2s.2-.9.5-1.2c.4-.4,1-.6,1.6-.5.1,0,.2,0,.3,0,0,0,.2,0,.3.2,0,0,.2.1.3.2,0,0,.1.2.2.3,0,0,.1.2.2.3,0,.1,0,.2,0,.3,0,.1,0,.2,0,.3,0,.5-.2.9-.5,1.2-.3.3-.8.5-1.2.5Z"></path>
  </g>
  <g>
    <path d="M20.5,6h-11c-.6,0-1-.4-1-1s.4-1,1-1h11c.6,0,1,.4,1,1s-.4,1-1,1Z"></path>
    <path d="M20.5,13h-11c-.6,0-1-.4-1-1s.4-1,1-1h11c.6,0,1,.4,1,1s-.4,1-1,1Z"></path>
    <path d="M20.5,20h-11c-.6,0-1-.4-1-1s.4-1,1-1h11c.6,0,1,.4,1,1s-.4,1-1,1Z"></path>
  </g>
</symbol><symbol viewBox="0 0 24 24" id="inco-icons-tag">
  <defs>
    <style>
      .cls-1 {
        fill: #000;
        stroke-width: 0px;
      }
    </style>
  </defs>
  <path class="cls-1" d="M7.27,6.27c-.55,0-1,.45-1,1h0c0,.56.45,1,1,1s1-.45,1-1-.45-1-1-1Z"></path>
  <path class="cls-1" d="M21.66,9.7L13.75,1.79c-.19-.19-.44-.29-.71-.29H2.5c-.27,0-.52.1-.71.29s-.29.44-.29.71v10.55c0,.27.1.52.29.71l7.91,7.91c.54.54,1.26.84,2.02.84s1.48-.3,2.03-.84l7.91-7.91c.54-.54.84-1.26.84-2.03s-.3-1.48-.84-2.02ZM20.25,12.34l-7.91,7.91c-.33.33-.89.33-1.22,0l-7.62-7.62V3.5s9.13,0,9.13,0l7.62,7.62c.16.16.25.38.25.61s-.09.45-.25.61Z"></path>
</symbol><symbol viewBox="0 0 24 24" id="inco-icons-text">
  <defs>
    <style>
      .cls-1 {
        fill: #000;
        stroke-width: 0px;
      }
    </style>
  </defs>
  <path class="cls-1" d="M20,3H4c-.55,0-1,.45-1,1v3c0,.55.45,1,1,1s1-.45,1-1v-2h6v14h-2c-.55,0-1,.45-1,1s.45,1,1,1h6c.55,0,1-.45,1-1s-.45-1-1-1h-2V5h6v2c0,.55.45,1,1,1s1-.45,1-1v-3c0-.55-.45-1-1-1Z"></path>
</symbol><symbol viewBox="0 0 16 16" id="inco-icons-theme">
  <g id="_그룹_65" data-name="그룹 65">
    <g id="_그룹_64" data-name="그룹 64">
      <g id="_그룹_63" data-name="그룹 63">
        <g id="_그룹_62" data-name="그룹 62">
          <path id="_패스_35" data-name="패스 35" class="cls-1" d="M12.08,3.33h-.64c-.28-1.36-1.47-2.33-2.86-2.33h-1.17c-1.39,0-2.58.98-2.86,2.33h-.64c-1.61,0-2.91,1.31-2.92,2.92v5.83c0,1.61,1.31,2.92,2.92,2.92h8.17c1.61,0,2.91-1.31,2.92-2.92v-5.83c0-1.61-1.31-2.91-2.92-2.92M7.42,2.17h1.17c.74,0,1.4.47,1.64,1.17h-4.45c.25-.7.9-1.16,1.64-1.17M3.92,4.5h8.17c.97,0,1.75.78,1.75,1.75h0v1.75H2.17v-1.75c0-.97.78-1.75,1.75-1.75M12.08,13.84H3.92c-.97,0-1.75-.78-1.75-1.75v-2.92h5.25v.58c0,.32.26.58.58.58s.58-.26.58-.58v-.58h5.25v2.92c0,.97-.78,1.75-1.75,1.75,0,0,0,0,0,0"></path>
        </g>
      </g>
    </g>
  </g>
</symbol><symbol viewBox="0 0 16 16" id="inco-icons-time">
  <path class="cls-1" d="M8.58,7.76v-2.68c0-.32-.26-.58-.58-.58s-.58.26-.58.58v2.92c0,.15.06.3.17.41l1.75,1.75c.23.22.6.22.82-.01.22-.23.22-.58,0-.81l-1.58-1.58Z"></path>
  <path class="cls-1" d="M8,1c-3.86,0-7,3.14-7,7s3.14,7,7,7,7-3.14,7-7S11.86,1,8,1ZM8,13.83c-3.22,0-5.83-2.62-5.83-5.83s2.62-5.83,5.83-5.83,5.83,2.62,5.83,5.83-2.62,5.83-5.83,5.83Z"></path>
</symbol><symbol viewBox="0 0 24 24" id="inco-icons-to_end_page">
  <!-- Generator: Adobe Illustrator 28.7.1, SVG Export Plug-In . SVG Version: 1.2.0 Build 142)  -->
  <g>
    <g id="Layer_1">
      <g>
        <path d="M4.5,20c-.3,0-.5,0-.7-.3-.4-.4-.4-1,0-1.4l6.3-6.3L3.8,5.7c-.4-.4-.4-1,0-1.4s1-.4,1.4,0l7,7c.4.4.4,1,0,1.4l-7,7c-.2.2-.5.3-.7.3Z"></path>
        <path d="M12.5,20c-.3,0-.5,0-.7-.3-.4-.4-.4-1,0-1.4l6.3-6.3-6.3-6.3c-.4-.4-.4-1,0-1.4s1-.4,1.4,0l7,7c.4.4.4,1,0,1.4l-7,7c-.2.2-.5.3-.7.3Z"></path>
      </g>
    </g>
  </g>
</symbol><symbol viewBox="0 0 24 24" id="inco-icons-top">
  <defs>
    <style>
      .cls-1 {
        fill: #000;
        stroke-width: 0px;
      }
    </style>
  </defs>
  <path class="cls-1" d="M19,2H5c-.55,0-1,.45-1,1s.45,1,1,1h14c.55,0,1-.45,1-1s-.45-1-1-1Z"></path>
  <path class="cls-1" d="M8.43,8h2.57v13c0,.55.45,1,1,1s1-.45,1-1v-13h2.57c.47,0,.68-.6.31-.89l-3.89-3.11-3.89,3.11c-.37.3-.16.89.31.89Z"></path>
</symbol><symbol viewBox="0 0 24 24" id="inco-icons-unchecked_box">
  <defs>
    <style>
      .cls-1 {
        fill: #000;
        stroke-width: 0px;
      }
    </style>
  </defs>
  <path class="cls-1" d="M18,22H6c-2.21,0-4-1.79-4-4V6c0-2.21,1.79-4,4-4h12c2.21,0,4,1.79,4,4v12c0,2.21-1.79,4-4,4ZM6,4c-1.1,0-2,.9-2,2v12c0,1.1.9,2,2,2h12c1.1,0,2-.9,2-2V6c0-1.1-.9-2-2-2H6Z"></path>
</symbol><symbol viewBox="0 0 24 24" id="inco-icons-upload">
  <defs>
    <style>
      .cls-1 {
        fill: #000;
        stroke-width: 0px;
      }
    </style>
  </defs>
  <path class="cls-1" d="M21,15.5c-.55,0-1,.45-1,1v2.25c0,.69-.56,1.25-1.25,1.25H5.25c-.69,0-1.25-.56-1.25-1.25v-2.25c0-.55-.45-1-1-1s-1,.45-1,1v2.25c0,1.79,1.46,3.25,3.25,3.25h13.5c1.79,0,3.25-1.46,3.25-3.25v-2.25c0-.55-.45-1-1-1Z"></path>
  <path class="cls-1" d="M8.21,8.21l2.79-2.79v11.09c0,.55.45,1,1,1s1-.45,1-1V5.41l2.79,2.79c.2.2.45.29.71.29s.51-.1.71-.29c.39-.39.39-1.02,0-1.41l-4.5-4.5c-.09-.09-.2-.17-.33-.22-.24-.1-.52-.1-.76,0-.12.05-.23.12-.33.22l-4.5,4.5c-.39.39-.39,1.02,0,1.41s1.02.39,1.41,0Z"></path>
</symbol><symbol viewBox="0 0 24 24" id="inco-icons-warning">
  <defs>
    <style>
      .cls-1 {
        fill: #000;
        stroke-width: 0px;
      }
    </style>
  </defs>
  <path class="cls-1" d="M23.04,17.54L14.56,3.39c-.42-.69-1.07-1.17-1.85-1.36-.78-.19-1.58-.07-2.27.35-.41.25-.76.6-1.01,1.01,0,0,0,0,0,0L.95,17.55c-.4.69-.51,1.5-.3,2.28s.7,1.42,1.4,1.82c.45.26.95.4,1.48.4h16.95c1.65-.02,2.98-1.38,2.97-3.03,0-.51-.15-1.02-.41-1.48ZM20.47,20.05H3.54c-.17,0-.34-.05-.49-.13-.23-.13-.4-.35-.47-.61-.07-.26-.03-.53.09-.75L11.15,4.43c.08-.14.2-.25.34-.33.23-.14.5-.18.76-.12.26.06.48.22.61.45l8.46,14.13c.09.15.13.32.13.49,0,.55-.44,1.01-.98,1.01Z"></path>
  <path class="cls-1" d="M12,14.05c.55,0,1-.45,1-1v-4c0-.55-.45-1-1-1s-1,.45-1,1v4c0,.55.45,1,1,1Z"></path>
  <path class="cls-1" d="M12.01,16.05h-.01c-.55,0-1,.45-1,1s.45,1,1.01,1,1-.45,1-1-.45-1-1-1Z"></path>
</symbol></svg>