<svg xmlns="http://www.w3.org/2000/svg" viewBox="0 0 16 16">
  <path class="cls-1" d="M10.33,9.75c0,.32-.26.58-.58.58h-1.17v1.17c0,.32-.26.58-.58.58s-.58-.26-.58-.58v-1.17h-1.17c-.32,0-.58-.26-.58-.58s.26-.58.58-.58h1.17v-1.17c0-.32.26-.58.58-.58s.58.26.58.58v1.17h1.17c.32,0,.58.26.58.58ZM15,5.67v5.83c0,1.61-1.31,2.91-2.92,2.92H3.92c-1.61,0-2.91-1.31-2.92-2.92v-7c0-1.61,1.31-2.91,2.92-2.92h1.47c.27,0,.54.06.78.18l1.84.92c.08.04.17.06.26.06h3.81c1.61,0,2.91,1.31,2.92,2.92ZM2.17,4.5v.58h11.56c-.25-.7-.9-1.16-1.64-1.17h-3.81c-.27,0-.54-.06-.78-.18l-1.84-.92c-.08-.04-.17-.06-.26-.06h-1.47c-.97,0-1.75.78-1.75,1.75ZM13.83,11.5v-5.25H2.17v5.25c0,.97.78,1.75,1.75,1.75h8.17c.97,0,1.75-.78,1.75-1.75Z"/>
</svg>