<svg id="Layer_1" data-name="Layer 1" xmlns="http://www.w3.org/2000/svg" viewBox="0 0 24 24">
  <defs>
    <style>
      .cls-1 {
        fill: #000;
        stroke-width: 0px;
      }
    </style>
  </defs>
  <path class="cls-1" d="M20.64,9.88l-1.77-.59c.08-.48.13-.97.13-1.46,0-3.77-3.14-6.83-7-6.83s-7,3.06-7,6.83c0,.29.03.57.06.86l-.42-.14c-.61-.21-1.29-.11-1.81.27-.52.38-.83.98-.83,1.63v8.89c0,.85.54,1.61,1.36,1.9l5,1.66c.21.07.42.1.64.1s.43-.03.63-.1l5.37-1.78,4.35,1.45c.61.21,1.29.11,1.81-.27.52-.37.83-.98.83-1.63v-8.89c0-.85-.54-1.61-1.36-1.9ZM12,3c2.76,0,5,2.17,5,4.83,0,.63-.08,1.26-.26,1.95,0,0,0,0,0,0-.01.07-.03.13-.05.2-.92,3.05-3.58,5.1-4.68,5.84-.06-.04-.13-.09-.2-.14-.87-.6-2.37-1.82-3.47-3.55-.31-.48-.59-.99-.81-1.55-.08-.21-.16-.43-.22-.66,0,0,0,0,0,0,0-.01,0-.02,0-.03-.2-.66-.3-1.35-.3-2.05,0-2.66,2.24-4.83,5-4.83ZM20,20.67l-4.36-1.45c-.42-.14-.86-.14-1.27,0l-5.37,1.78-5-1.66v-8.89s1.54.51,1.54.51c.04.11.08.22.12.33,0,0,0,.02,0,.03,1.63,4.18,5.67,6.46,5.85,6.56.15.08.32.13.49.13s.33-.04.49-.13c.07-.04.68-.38,1.49-1.01.01,0,.02-.02.04-.03.11-.09.23-.18.35-.28.03-.03.07-.05.1-.08.11-.09.22-.19.33-.29.05-.04.1-.08.15-.13.11-.1.21-.2.32-.3.06-.06.11-.11.17-.17.1-.1.2-.21.31-.31.06-.07.13-.13.19-.2.1-.11.2-.22.29-.33.07-.08.13-.16.2-.23.09-.11.19-.23.28-.35.07-.09.13-.17.2-.26.09-.12.18-.25.26-.37.06-.1.13-.19.19-.29.08-.13.16-.26.24-.39.06-.1.12-.21.17-.32.07-.14.15-.28.22-.42.05-.11.1-.22.15-.34.07-.15.13-.29.19-.45,0-.02.02-.05.03-.07l1.63.55v8.89Z"/>
  <path class="cls-1" d="M12,10.5c1.65,0,3-1.35,3-3s-1.35-3-3-3-3,1.35-3,3,1.35,3,3,3ZM12,6.5c.55,0,1,.45,1,1s-.45,1-1,1-1-.45-1-1,.45-1,1-1Z"/>
</svg>