<svg id="Layer_1" data-name="Layer 1" xmlns="http://www.w3.org/2000/svg" viewBox="0 0 24 24">
  <defs>
    <style>
      .cls-1 {
        fill: #000;
        stroke-width: 0px;
      }
    </style>
  </defs>
  <path class="cls-1" d="M20,13.18v-.18c0-1.65-1.35-3-3-3s-3,1.35-3,3v.18c-1.16.41-2,1.51-2,2.82v3c0,1.65,1.35,3,3,3h4c1.65,0,3-1.35,3-3v-3c0-1.3-.84-2.4-2-2.82ZM17,12c.55,0,1,.45,1,1h-2c0-.55.45-1,1-1ZM20,19c0,.55-.45,1-1,1h-4c-.55,0-1-.45-1-1v-3c0-.55.45-1,1-1h4c.55,0,1,.45,1,1v3Z"/>
  <path class="cls-1" d="M16.81,16.52c-.07,0-.13.03-.19.06-.06.02-.12.05-.18.09l-.15.12c-.18.19-.29.44-.29.71s.11.52.29.71c.05.04.1.08.15.12.06.04.12.07.18.09.06.03.12.05.19.06.06,0,.13.02.19.02.27,0,.52-.11.71-.29.04-.05.08-.1.12-.16.04-.05.07-.11.09-.17.03-.06.05-.12.06-.18.01-.07.02-.13.02-.2,0-.26-.11-.52-.29-.71-.23-.23-.57-.33-.9-.27Z"/>
  <path class="cls-1" d="M9,10c2.21,0,4-1.79,4-4s-1.79-4-4-4-4,1.79-4,4,1.79,4,4,4ZM9,4c1.1,0,2,.9,2,2s-.9,2-2,2-2-.9-2-2,.9-2,2-2Z"/>
  <path class="cls-1" d="M11.33,11.4c-.75-.26-1.53-.4-2.33-.4-3.86,0-7,3.14-7,7v1c0,.55.45,1,1,1s1-.45,1-1v-1c0-2.76,2.24-5,5-5,.57,0,1.13.1,1.67.28.52.18,1.09-.09,1.28-.61.18-.52-.09-1.09-.61-1.28Z"/>
</svg>