<svg id="Layer_1" data-name="Layer 1" xmlns="http://www.w3.org/2000/svg" viewBox="0 0 24 24">
  <defs>
    <style>
      .cls-1 {
        fill: #000;
        stroke-width: 0px;
      }
    </style>
  </defs>
  <path class="cls-1" d="M18.85,18H5.15c-.73,0-1.4-.4-1.75-1.03-.35-.63-.34-1.38.04-1.99.7-1.15,1.55-3.26,1.57-6.84.02-3.77,3.02-6.97,6.68-7.13,1.93-.09,3.77.6,5.16,1.93,1.4,1.33,2.16,3.13,2.16,5.06,0,3.65.85,5.81,1.57,6.98.38.61.39,1.36.04,1.99-.36.64-1.03,1.03-1.75,1.03ZM12,3c-.08,0-.16,0-.23,0-2.61.12-4.75,2.42-4.77,5.14-.02,4.04-1.03,6.51-1.87,7.88l13.72-.02c-.84-1.36-1.85-3.88-1.85-8,0-1.38-.55-2.66-1.55-3.61-.94-.9-2.16-1.39-3.45-1.39Z"/>
  <path class="cls-1" d="M12,23c-.55,0-1.1-.12-1.61-.38-.5-.25-.92-.62-1.22-1.07-.31-.46-.18-1.08.27-1.39.46-.31,1.08-.18,1.39.27.11.16.26.29.46.39.66.33,1.52.15,1.88-.39.31-.46.93-.58,1.39-.28.46.31.58.93.28,1.39-.62.93-1.71,1.45-2.83,1.45Z"/>
</svg>