<svg id="Layer_1" data-name="Layer 1" xmlns="http://www.w3.org/2000/svg" viewBox="0 0 24 24">
  <defs>
    <style>
      .cls-1 {
        fill: #000;
        stroke-width: 0px;
      }
    </style>
  </defs>
  <path class="cls-1" d="M20,6h-3v-1c0-1.65-1.35-3-3-3h-4c-1.65,0-3,1.35-3,3v1h-3c-1.65,0-3,1.35-3,3v10c0,1.65,1.35,3,3,3h16c1.65,0,3-1.35,3-3v-10c0-1.65-1.35-3-3-3ZM9,5c0-.55.45-1,1-1h4c.55,0,1,.45,1,1v1h-6v-1ZM4,8h16c.55,0,1,.45,1,1v3.26l-9,2.7-9-2.7v-3.26c0-.55.45-1,1-1ZM20,20H4c-.55,0-1-.45-1-1v-4.66l8.71,2.61c.09.03.19.04.29.04s.19-.01.29-.04l8.71-2.61v4.66c0,.55-.45,1-1,1Z"/>
  <path class="cls-1" d="M11.29,13.39c.19.18.45.29.71.29s.52-.11.71-.29c.09-.1.16-.21.21-.33.05-.12.08-.25.08-.38s-.03-.26-.08-.39c-.05-.12-.12-.23-.21-.32-.28-.28-.73-.37-1.09-.22-.13.05-.24.13-.33.22-.18.19-.29.44-.29.71,0,.13.03.26.08.38.05.12.12.23.21.33Z"/>
</svg>