<svg id="Layer_1" data-name="Layer 1" xmlns="http://www.w3.org/2000/svg" version="1.1" viewBox="0 0 24 24">
  <defs>
    <style>
      .cls-1 {
        fill: #000;
        stroke-width: 0px;
      }
    </style>
  </defs>
  <path class="cls-1" d="M20,6h-2.3l-.5-1.7c-.3-.8-1-1.3-1.9-1.3h-6.6c-.9,0-1.6.5-1.9,1.4l-.5,1.6h-2.3c-1.7,0-3,1.3-3,3v9c0,1.7,1.3,3,3,3h16c1.7,0,3-1.3,3-3v-9c0-1.7-1.3-3-3-3ZM21,18c0,.6-.4,1-1,1H4c-.6,0-1-.4-1-1v-9c0-.6.4-1,1-1h3c.4,0,.8-.3.9-.7l.8-2.3h6.6s.8,2.3.8,2.3c.1.4.5.7.9.7h3c.6,0,1,.4,1,1v9Z"/>
  <path class="cls-1" d="M12,8c-2.8,0-5,2.2-5,5s2.2,5,5,5,5-2.2,5-5-2.2-5-5-5ZM12,16c-1.7,0-3-1.3-3-3s1.3-3,3-3,3,1.3,3,3-1.3,3-3,3Z"/>
</svg>