<svg id="Layer_1" data-name="Layer 1" xmlns="http://www.w3.org/2000/svg" viewBox="0 0 24 24">
  <defs>
    <style>
      .cls-1 {
        fill: #000;
        stroke-width: 0px;
      }
    </style>
  </defs>
  <path class="cls-1" d="M13.41,12l6.29-6.29c.39-.39.39-1.02,0-1.41s-1.02-.39-1.41,0l-6.29,6.29-6.29-6.29c-.39-.39-1.02-.39-1.41,0s-.39,1.02,0,1.41l6.29,6.29-6.29,6.29c-.39.39-.39,1.02,0,1.41.2.2.45.29.71.29s.51-.1.71-.29l6.29-6.29,6.29,6.29c.2.2.45.29.71.29s.51-.1.71-.29c.39-.39.39-1.02,0-1.41l-6.29-6.29Z"/>
</svg>