<svg id="Layer_1" data-name="Layer 1" xmlns="http://www.w3.org/2000/svg" version="1.1" viewBox="0 0 24 24">
  <defs>
    <style>
      .cls-1 {
        fill: #000;
        stroke-width: 0px;
      }
    </style>
  </defs>
  <path class="cls-1" d="M12,2C6.5,2,2,6.5,2,12s4.5,10,10,10,10-4.5,10-10S17.5,2,12,2ZM15.7,14.3c.4.4.4,1,0,1.4-.2.2-.5.3-.7.3s-.5-.1-.7-.3l-2.3-2.3-2.3,2.3c-.2.2-.5.3-.7.3s-.5-.1-.7-.3c-.4-.4-.4-1,0-1.4l2.3-2.3-2.3-2.3c-.4-.4-.4-1,0-1.4.4-.4,1-.4,1.4,0l2.3,2.3,2.3-2.3c.4-.4,1-.4,1.4,0s.4,1,0,1.4l-2.3,2.3,2.3,2.3Z"/>
</svg>