<svg id="Layer_1" data-name="Layer 1" xmlns="http://www.w3.org/2000/svg" viewBox="0 0 24 24">
  <defs>
    <style>
      .cls-1 {
        fill: #000;
        stroke-width: 0px;
      }
    </style>
  </defs>
  <path class="cls-1" d="M20,7h-4v-3c0-1.65-1.35-3-3-3H4c-1.65,0-3,1.35-3,3v16c0,1.65,1.35,3,3,3h16c1.65,0,3-1.35,3-3v-10c0-1.65-1.35-3-3-3ZM3,20V4c0-.55.45-1,1-1h9c.55,0,1,.45,1,1v17H4c-.55,0-1-.45-1-1ZM21,20c0,.55-.45,1-1,1h-4v-12h4c.55,0,1,.45,1,1v10Z"/>
  <path class="cls-1" d="M11,5h-5c-.55,0-1,.45-1,1s.45,1,1,1h5c.55,0,1-.45,1-1s-.45-1-1-1Z"/>
  <path class="cls-1" d="M11,9h-5c-.55,0-1,.45-1,1s.45,1,1,1h5c.55,0,1-.45,1-1s-.45-1-1-1Z"/>
  <path class="cls-1" d="M11,13h-5c-.55,0-1,.45-1,1s.45,1,1,1h5c.55,0,1-.45,1-1s-.45-1-1-1Z"/>
  <path class="cls-1" d="M11,17h-5c-.55,0-1,.45-1,1s.45,1,1,1h5c.55,0,1-.45,1-1s-.45-1-1-1Z"/>
  <path class="cls-1" d="M19.06,11.17c-.06-.04-.12-.07-.18-.09-.06-.03-.12-.05-.19-.06-.12-.03-.26-.03-.38,0-.07,0-.13.03-.19.06-.06.02-.12.05-.18.09l-.15.12c-.18.19-.29.45-.29.71s.11.52.29.71c.05.04.1.09.15.12.06.04.12.07.18.09.06.03.12.05.19.06.06,0,.13.02.19.02s.13-.01.19-.02c.07-.01.13-.03.19-.06.06-.02.12-.05.18-.09.05-.03.1-.08.15-.12.18-.19.29-.45.29-.71s-.11-.52-.29-.71c-.05-.04-.1-.08-.15-.12Z"/>
  <path class="cls-1" d="M19.06,14.17c-.06-.04-.12-.07-.18-.09-.06-.03-.12-.05-.19-.06-.12-.03-.26-.03-.38,0-.07,0-.13.03-.19.06-.06.02-.12.05-.18.09-.05.03-.1.08-.15.12-.18.19-.29.45-.29.71s.11.52.29.71c.05.04.1.08.15.12.06.04.12.07.18.09.06.03.12.05.19.06.06,0,.13.02.19.02s.13-.01.19-.02c.07-.01.13-.03.19-.06.06-.02.12-.05.18-.09.05-.04.1-.08.15-.12.18-.19.29-.45.29-.71s-.11-.52-.29-.71c-.05-.04-.1-.09-.15-.12Z"/>
  <path class="cls-1" d="M19.06,17.17c-.06-.04-.12-.07-.18-.09-.06-.03-.12-.05-.19-.06-.12-.03-.26-.02-.38,0-.07,0-.13.03-.19.06-.06.02-.12.05-.18.09l-.15.12c-.18.19-.29.45-.29.71,0,.07,0,.13.02.2.01.06.03.12.06.18.02.06.05.12.09.18.03.05.08.1.12.15.05.04.1.08.15.12.06.04.12.07.18.09.06.03.12.05.19.06.06,0,.13.02.19.02s.13-.01.19-.02c.07-.01.13-.03.19-.06.06-.02.12-.05.18-.09.05-.04.1-.08.15-.12.04-.05.08-.1.12-.15.04-.06.07-.12.09-.18.03-.06.05-.12.06-.18.01-.07.02-.13.02-.2,0-.26-.11-.52-.29-.71-.05-.04-.1-.08-.15-.12Z"/>
</svg>