<svg id="Layer_1" data-name="Layer 1" xmlns="http://www.w3.org/2000/svg" viewBox="0 0 24 24">
  <defs>
    <style>
      .cls-1 {
        fill: #000;
        stroke-width: 0px;
      }
    </style>
  </defs>
  <path class="cls-1" d="M7,8c1.93,0,3.5-1.57,3.5-3.5s-1.57-3.5-3.5-3.5-3.5,1.57-3.5,3.5,1.57,3.5,3.5,3.5ZM7,3c.83,0,1.5.67,1.5,1.5s-.67,1.5-1.5,1.5-1.5-.67-1.5-1.5.67-1.5,1.5-1.5Z"/>
  <path class="cls-1" d="M17,8c1.93,0,3.5-1.57,3.5-3.5s-1.57-3.5-3.5-3.5-3.5,1.57-3.5,3.5,1.57,3.5,3.5,3.5ZM17,3c.83,0,1.5.67,1.5,1.5s-.67,1.5-1.5,1.5-1.5-.67-1.5-1.5.67-1.5,1.5-1.5Z"/>
  <path class="cls-1" d="M8.5,12c0,1.93,1.57,3.5,3.5,3.5s3.5-1.57,3.5-3.5-1.57-3.5-3.5-3.5-3.5,1.57-3.5,3.5ZM12,10.5c.83,0,1.5.67,1.5,1.5s-.67,1.5-1.5,1.5-1.5-.67-1.5-1.5.67-1.5,1.5-1.5Z"/>
  <path class="cls-1" d="M12,16c-3.31,0-6,2.69-6,6,0,.55.45,1,1,1s1-.45,1-1c0-2.21,1.79-4,4-4s4,1.79,4,4c0,.55.45,1,1,1s1-.45,1-1c0-3.31-2.69-6-6-6Z"/>
  <path class="cls-1" d="M8,9.5c0-.55-.45-1-1-1-4.75,0-6,3.92-6,6,0,.55.45,1,1,1s1-.45,1-1c0-.16.05-4,4-4,.55,0,1-.45,1-1Z"/>
  <path class="cls-1" d="M17,8.5c-.55,0-1,.45-1,1s.45,1,1,1c3.85,0,4,3.59,4,4,0,.55.45,1,1,1s1-.45,1-1c0-2.08-1.25-6-6-6Z"/>
</svg>