<svg id="Layer_1" data-name="Layer 1" xmlns="http://www.w3.org/2000/svg" viewBox="0 0 24 24">
  <defs>
    <style>
      .cls-1 {
        fill: #000;
        stroke-width: 0px;
      }
    </style>
  </defs>
  <path class="cls-1" d="M12,11c2.48,0,4.5-2.02,4.5-4.5s-2.02-4.5-4.5-4.5-4.5,2.02-4.5,4.5,2.02,4.5,4.5,4.5ZM12,4c1.38,0,2.5,1.12,2.5,2.5s-1.12,2.5-2.5,2.5-2.5-1.12-2.5-2.5,1.12-2.5,2.5-2.5Z"/>
  <path class="cls-1" d="M12,12c-4.96,0-9,4.04-9,9,0,.55.45,1,1,1s1-.45,1-1c0-3.86,3.14-7,7-7s7,3.14,7,7c0,.55.45,1,1,1s1-.45,1-1c0-4.96-4.04-9-9-9Z"/>
</svg>