<svg id="Layer_1" data-name="Layer 1" xmlns="http://www.w3.org/2000/svg" viewBox="0 0 24 24">
  <defs>
    <style>
      .cls-1 {
        fill: #000;
        stroke-width: 0px;
      }
    </style>
  </defs>
  <path class="cls-1" d="M19,2H5c-1.65,0-3,1.35-3,3v10c0,1.65,1.35,3,3,3h14c1.65,0,3-1.35,3-3V5c0-1.65-1.35-3-3-3ZM20,15c0,.55-.45,1-1,1H5c-.55,0-1-.45-1-1V5c0-.55.45-1,1-1h14c.55,0,1,.45,1,1v10Z"/>
  <path class="cls-1" d="M12,5.5c-2.64,0-4.94,1.69-5.73,4.2-.06.2-.06.41,0,.6.79,2.51,3.1,4.2,5.73,4.2s4.94-1.69,5.73-4.2c.06-.2.06-.41,0-.6-.79-2.51-3.1-4.2-5.73-4.2ZM12,12.5c-1.65,0-3.11-.99-3.72-2.5.61-1.51,2.07-2.5,3.72-2.5s3.11.99,3.72,2.5c-.61,1.51-2.07,2.5-3.72,2.5Z"/>
  <path class="cls-1" d="M16,20h-8c-.55,0-1,.45-1,1s.45,1,1,1h8c.55,0,1-.45,1-1s-.45-1-1-1Z"/>
  <path class="cls-1" d="M12,8.5c-.83,0-1.5.67-1.5,1.5h0c0,.84.67,1.5,1.5,1.5s1.5-.68,1.5-1.5-.67-1.5-1.5-1.5Z"/>
</svg>