<svg id="Layer_1" data-name="Layer 1" xmlns="http://www.w3.org/2000/svg" viewBox="0 0 24 24">
  <defs>
    <style>
      .cls-1 {
        fill: #000;
        stroke-width: 0px;
      }
    </style>
  </defs>
  <path class="cls-1" d="M19,3.14v-1.14c0-.55-.45-1-1-1s-1,.45-1,1v1H7v-1c0-.55-.45-1-1-1s-1,.45-1,1v1.14c-1.72.45-3,2-3,3.86v12c0,2.21,1.79,4,4,4h12c2.21,0,4-1.79,4-4V7c0-1.86-1.28-3.41-3-3.86ZM6,5h12c1.1,0,2,.9,2,2H4c0-1.1.9-2,2-2ZM18,21H6c-1.1,0-2-.9-2-2v-10h16v10c0,1.1-.9,2-2,2Z"/>
  <path class="cls-1" d="M11,11h-4c-.55,0-1,.45-1,1v4c0,.55.45,1,1,1h4c.55,0,1-.45,1-1v-4c0-.55-.45-1-1-1ZM10,15h-2v-2h2v2Z"/>
</svg>