<svg xmlns="http://www.w3.org/2000/svg" viewBox="0 0 16 16">
  <path class="cls-1" d="M13.25,3.33h-1.81c-.28-1.36-1.47-2.33-2.86-2.33h-1.17c-1.39,0-2.58.98-2.86,2.33h-1.81c-.32,0-.58.26-.58.58s.26.58.58.58h.58v7.58c0,1.61,1.31,2.91,2.92,2.92h3.5c1.61,0,2.91-1.31,2.92-2.92v-7.58h.58c.32,0,.58-.26.58-.58s-.26-.58-.58-.58ZM7.42,2.17h1.17c.74,0,1.4.47,1.65,1.17h-4.47c.25-.7.91-1.17,1.65-1.17ZM11.5,12.08c0,.97-.78,1.75-1.75,1.75h-3.5c-.97,0-1.75-.78-1.75-1.75v-7.58h7v7.58Z"/>
  <path class="cls-1" d="M6.83,11.5c.32,0,.58-.26.58-.58v-3.5c0-.32-.26-.58-.58-.58s-.58.26-.58.58v3.5c0,.32.26.58.58.58Z"/>
  <path class="cls-1" d="M9.17,11.5c.32,0,.58-.26.58-.58v-3.5c0-.32-.26-.58-.58-.58s-.58.26-.58.58v3.5c0,.32.26.58.58.58Z"/>
</svg>