<svg id="Layer_1" data-name="Layer 1" xmlns="http://www.w3.org/2000/svg" viewBox="0 0 24 24">
  <defs>
    <style>
      .cls-1 {
        fill: #000;
        stroke-width: 0px;
      }
    </style>
  </defs>
  <path class="cls-1" d="M21,15h-2v-3c0-.55-.45-1-1-1h-5v-2h2c1.1,0,2-.9,2-2v-3c0-1.1-.9-2-2-2h-6c-1.1,0-2,.9-2,2v3c0,1.1.9,2,2,2h2v2h-5c-.55,0-1,.45-1,1v3h-2c-1.1,0-2,.9-2,2v3c0,1.1.9,2,2,2h6c1.1,0,2-.9,2-2v-3c0-1.1-.9-2-2-2h-2v-2h10v2h-2c-1.1,0-2,.9-2,2v3c0,1.1.9,2,2,2h6c1.1,0,2-.9,2-2v-3c0-1.1-.9-2-2-2ZM9,4h6v3s-6,0-6,0v-3ZM9,20H3v-3h6v3ZM15,20v-3h6v3s-6,0-6,0Z"/>
</svg>