<svg xmlns="http://www.w3.org/2000/svg" viewBox="0 0 16 16">
  <path class="cls-1" d="M10.92,9.17c0,.32-.26.58-.58.58h-4.67c-.32,0-.58-.26-.58-.58s.26-.58.58-.58h4.67c.32,0,.58.26.58.58ZM8.58,10.92h-2.92c-.32,0-.58.26-.58.58s.26.58.58.58h2.92c.32,0,.58-.26.58-.58s-.26-.58-.58-.58ZM13.83,7.12v4.97c0,1.61-1.31,2.91-2.92,2.92h-5.83c-1.61,0-2.91-1.31-2.92-2.92V3.92c0-1.61,1.31-2.91,2.92-2.92h2.63c1.08,0,2.12.43,2.89,1.2l2.03,2.03c.77.76,1.2,1.8,1.2,2.89ZM9.78,3.02c-.18-.18-.39-.33-.61-.45v2.52c0,.32.26.58.58.58h2.52c-.12-.22-.28-.43-.46-.61l-2.03-2.03ZM12.67,7.12c0-.1-.02-.19-.03-.28h-2.89c-.97,0-1.75-.78-1.75-1.75v-2.89c-.09,0-.19-.03-.28-.03h-2.63c-.97,0-1.75.78-1.75,1.75v8.17c0,.97.78,1.75,1.75,1.75h5.83c.97,0,1.75-.78,1.75-1.75v-4.97Z"/>
</svg>