<svg id="Layer_1" data-name="Layer 1" xmlns="http://www.w3.org/2000/svg" viewBox="0 0 24 24">
  <defs>
    <style>
      .cls-1 {
        fill: #000;
        stroke-width: 0px;
      }
    </style>
  </defs>
  <path class="cls-1" d="M21,15.5c-.55,0-1,.45-1,1v2.25c0,.69-.56,1.25-1.25,1.25H5.25c-.69,0-1.25-.56-1.25-1.25v-2.25c0-.55-.45-1-1-1s-1,.45-1,1v2.25c0,1.79,1.46,3.25,3.25,3.25h13.5c1.79,0,3.25-1.46,3.25-3.25v-2.25c0-.55-.45-1-1-1Z"/>
  <path class="cls-1" d="M11.29,17.21c.09.09.2.17.33.22.12.05.25.08.38.08s.26-.03.38-.08c.12-.05.23-.12.33-.22l4.5-4.5c.39-.39.39-1.02,0-1.41s-1.02-.39-1.41,0l-2.79,2.79V3c0-.55-.45-1-1-1s-1,.45-1,1v11.09l-2.79-2.79c-.39-.39-1.02-.39-1.41,0s-.39,1.02,0,1.41l4.5,4.5Z"/>
</svg>