<svg id="Layer_1" data-name="Layer 1" xmlns="http://www.w3.org/2000/svg" viewBox="0 0 24 24">
  <defs>
    <style>
      .cls-1 {
        fill: #000;
        stroke-width: 0px;
      }
    </style>
  </defs>
  <path class="cls-1" d="M20.99,3.01c-1.34-1.34-3.53-1.34-4.87,0L3.01,16.12c-.65.65-1.01,1.52-1.01,2.44v2.44c0,.55.45,1,1,1h2.44c.92,0,1.78-.36,2.44-1.01l13.11-13.11c1.34-1.34,1.34-3.53,0-4.87ZM6.47,19.58c-.27.27-.64.42-1.02.42h-1.44v-1.44c0-.39.15-.75.42-1.02L14.31,7.64l2.04,2.04-9.89,9.89ZM19.58,6.47l-1.81,1.81-2.04-2.04,1.81-1.81c.56-.56,1.48-.56,2.04,0,.56.56.56,1.48,0,2.04Z"/>
</svg>