<svg id="Layer_1" data-name="Layer 1" xmlns="http://www.w3.org/2000/svg" viewBox="0 0 24 24">
  <defs>
    <style>
      .cls-1 {
        fill: #000;
        stroke-width: 0px;
      }
    </style>
  </defs>
  <path class="cls-1" d="M21.8,6.14l-8.56-3.87c-.79-.36-1.69-.36-2.48,0L2.2,6.14c-.74.33-1.19,1.05-1.19,1.86s.46,1.52,1.2,1.86l2.8,1.27v6.87c0,2.21,1.79,4,4,4h6c2.21,0,4-1.79,4-4v-6.87l1-.45v4.47c0,.55.45,1,1,1s1-.45,1-1v-5.41c.61-.37,1-1,1-1.73,0-.81-.46-1.52-1.2-1.86ZM17,18c0,1.1-.9,2-2,2h-6c-1.1,0-2-.9-2-2v-5.97l3.76,1.7c.39.18.82.27,1.24.27s.85-.09,1.24-.27l3.76-1.7v5.97ZM20.98,8.04l-3.37,1.52s-.01,0-.02,0l-5.17,2.34c-.27.12-.57.12-.84,0l-5.17-2.34s0,0,0,0l-3.39-1.61,8.56-3.87c.14-.06.28-.09.42-.09s.28.03.42.09l8.58,3.91s0,.03-.02.04Z"/>
</svg>