<svg id="Layer_1" data-name="Layer 1" xmlns="http://www.w3.org/2000/svg" viewBox="0 0 24 24">
  <defs>
    <style>
      .cls-1 {
        fill: #000;
        stroke-width: 0px;
      }
    </style>
  </defs>
  <path class="cls-1" d="M19,3.93H5c-1.69,0-3.07,1.38-3.07,3.07v10c0,1.69,1.38,3.07,3.07,3.07h14c1.69,0,3.07-1.38,3.07-3.07V7c0-1.69-1.38-3.07-3.07-3.07ZM5,6.07h14c.51,0,.93.42.93.93v.46l-7.93,3.38-7.93-3.38v-.46c0-.51.42-.93.93-.93ZM19,17.93H5c-.51,0-.93-.42-.93-.93v-7.22l7.51,3.2c.13.06.28.09.42.09s.29-.03.42-.09l7.51-3.2v7.22c0,.51-.42.93-.93.93Z"/>
</svg>