<svg xmlns="http://www.w3.org/2000/svg" viewBox="0 0 16 16">
  <path class="cls-1" d="M10.33,9.17h-1.75v-1.17c0-.64-.52-1.17-1.17-1.17h-1.75c-.64,0-1.17.52-1.17,1.17v3.5c0,.64.52,1.17,1.17,1.17h4.67c.64,0,1.17-.52,1.17-1.17v-1.17c0-.64-.52-1.17-1.17-1.17ZM7.42,11.5h-1.75v-1.17h1.75v1.17ZM7.42,9.17h-1.75v-1.17h1.75v1.17ZM10.33,11.5h-1.75v-1.17h1.75v1.17ZM12.64,4.23l-2.03-2.03c-.77-.77-1.8-1.2-2.89-1.2h-2.63c-1.61,0-2.92,1.31-2.92,2.92v8.17c0,1.61,1.31,2.92,2.92,2.92h5.83c1.61,0,2.92-1.31,2.92-2.92v-4.97c0-1.09-.43-2.12-1.2-2.89ZM11.81,5.05c.19.19.34.39.47.61h-2.53c-.32,0-.58-.26-.58-.58v-2.53c.22.13.43.28.61.47l2.03,2.03ZM12.67,12.08c0,.96-.79,1.75-1.75,1.75h-5.83c-.96,0-1.75-.79-1.75-1.75V3.92c0-.96.79-1.75,1.75-1.75h2.63c.1,0,.19,0,.28.01v2.9c0,.96.79,1.75,1.75,1.75h2.9c0,.09.01.19.01.28v4.97Z"/>
</svg>