<svg id="Layer_1" data-name="Layer 1" xmlns="http://www.w3.org/2000/svg" viewBox="0 0 24 24">
  <defs>
    <style>
      .cls-1 {
        fill: #000;
        stroke-width: 0px;
      }
    </style>
  </defs>
  <path class="cls-1" d="M19,10.47c-.55,0-1,.45-1,1v6.69c0,1.02-.83,1.84-1.84,1.84H5.84c-1.02,0-1.84-.83-1.84-1.84V7.84c0-1.02.83-1.84,1.84-1.84h6.69c.55,0,1-.45,1-1s-.45-1-1-1h-6.69c-2.12,0-3.84,1.72-3.84,3.84v10.31c0,2.12,1.72,3.84,3.84,3.84h10.31c2.12,0,3.84-1.72,3.84-3.84v-6.69c0-.55-.45-1-1-1Z"/>
  <path class="cls-1" d="M21.42,2.59s0,0,0,0,0,0,0,0c-.36-.36-.86-.58-1.41-.58h-3c-.55,0-1,.45-1,1s.45,1,1,1h1.59l-8.29,8.29c-.39.39-.39,1.02,0,1.41.2.2.45.29.71.29s.51-.1.71-.29l8.29-8.29v1.59c0,.55.45,1,1,1s1-.45,1-1v-3c0-.55-.22-1.05-.58-1.41Z"/>
</svg>