<svg id="Layer_1" data-name="Layer 1" xmlns="http://www.w3.org/2000/svg" viewBox="0 0 24 24">
  <defs>
    <style>
      .cls-1 {
        fill: #000;
        stroke-width: 0px;
      }
    </style>
  </defs>
  <path class="cls-1" d="M20,4.93h-.93v-2.93c0-.59-.48-1.07-1.07-1.07H6c-.59,0-1.07.48-1.07,1.07v2.93h-.93c-1.69,0-3.07,1.38-3.07,3.07v8c0,1.14.93,2.07,2.07,2.07h1.93v3.93c0,.59.48,1.07,1.07,1.07h12c.59,0,1.07-.48,1.07-1.07v-3.93h1.93c1.14,0,2.07-.93,2.07-2.07v-8c0-1.69-1.38-3.07-3.07-3.07ZM7.07,3.07h9.86v1.86H7.07v-1.86ZM16.93,17v3.93H7.07v-5.86h9.86v1.93ZM19.07,15.93v-1.93c0-.59-.48-1.07-1.07-1.07H6c-.59,0-1.07.48-1.07,1.07v1.96l-1.86.04v-8c0-.51.42-.93.93-.93h16c.51,0,.93.42.93.93l.07,7.93h-1.93Z"/>
  <path class="cls-1" d="M8,8.93h-2c-.59,0-1.07.48-1.07,1.07s.48,1.07,1.07,1.07h2c.59,0,1.07-.48,1.07-1.07s-.48-1.07-1.07-1.07Z"/>
</svg>