<svg xmlns="http://www.w3.org/2000/svg" version="1.1" viewBox="0 0 24 24">
  <!-- Generator: Adobe Illustrator 28.7.1, SVG Export Plug-In . SVG Version: 1.2.0 Build 142)  -->
  <g>
    <g id="Layer_1">
      <g>
        <path d="M20.1,5.7l-3.8-3.8c-.6-.6-1.3-.9-2.1-.9H6c-1.7,0-3,1.3-3,3v16c0,1.7,1.3,3,3,3h12c1.7,0,3-1.3,3-3V7.8c0-.8-.3-1.6-.9-2.1ZM18.6,7h-3.6v-3.6l3.6,3.6ZM19,20c0,.6-.4,1-1,1H6c-.6,0-1-.4-1-1V4c0-.6.4-1,1-1h7v5c0,.6.4,1,1,1h5v11Z"/>
        <path d="M12.4,18h2c.5,0,1-.5,1-1v-3c0-.5-.5-1-1-1h-2v5ZM13.4,14h1v3h-1v-3Z"/>
        <polygon points="10.6 14.8 9.6 14.8 9.6 13 8.6 13 8.6 14.8 9.4 15.5 8.6 16.2 8.6 18 9.6 18 9.6 16.2 10.6 16.2 10.6 18 11.6 18 11.6 16.2 10.9 15.5 11.6 14.8 11.6 13 10.6 13 10.6 14.8"/>
      </g>
    </g>
  </g>
</svg>