<svg id="Layer_1" data-name="Layer 1" xmlns="http://www.w3.org/2000/svg" viewBox="0 0 24 24">
  <defs>
    <style>
      .cls-1 {
        fill: #000;
        stroke-width: 0px;
      }
    </style>
  </defs>
  <path class="cls-1" d="M20.12,5.71l-3.83-3.83c-.57-.57-1.32-.88-2.12-.88H6c-1.65,0-3,1.35-3,3v16c0,1.65,1.35,3,3,3h12c1.65,0,3-1.35,3-3V7.83c0-.8-.31-1.56-.88-2.12ZM15,3.41l3.59,3.59h-3.59v-3.59ZM19,20c0,.55-.45,1-1,1H6c-.55,0-1-.45-1-1V4c0-.55.45-1,1-1h7v5c0,.55.45,1,1,1h5v11Z"/>
  <path class="cls-1" d="M7.51,14.94c0,2.48,2.02,4.5,4.5,4.5s4.5-2.02,4.5-4.5-2.02-4.5-4.5-4.5-4.5,2.02-4.5,4.5ZM8.57,15.44h1.4c.1.99.39,1.95.91,2.79-1.22-.42-2.12-1.49-2.31-2.79ZM9.97,14.44h-1.41c.19-1.31,1.09-2.37,2.31-2.79-.51.84-.81,1.8-.9,2.79ZM12.01,18.16c-.59-.8-.94-1.74-1.05-2.71h2.1c-.11.98-.46,1.92-1.05,2.71ZM15.46,14.44h-1.4c-.09-.99-.39-1.95-.91-2.79,1.22.42,2.12,1.49,2.31,2.79ZM14.06,15.44h1.41c-.19,1.31-1.09,2.37-2.31,2.79.51-.84.81-1.8.91-2.79ZM10.96,14.44c.11-.98.46-1.92,1.05-2.71.59.8.94,1.74,1.05,2.71h-2.1Z"/>
</svg>