<svg id="Layer_1" data-name="Layer 1" xmlns="http://www.w3.org/2000/svg" viewBox="0 0 24 24">
  <defs>
    <style>
      .cls-1 {
        fill: #000;
        stroke-width: 0px;
      }
    </style>
  </defs>
  <path class="cls-1" d="M20.12,5.71l-3.83-3.83c-.57-.57-1.32-.88-2.12-.88H6c-1.65,0-3,1.35-3,3v16c0,1.65,1.35,3,3,3h12c1.65,0,3-1.35,3-3V7.83c0-.8-.31-1.56-.88-2.12ZM18.59,7h-3.59v-3.59l3.59,3.59ZM19,20c0,.55-.45,1-1,1H6c-.55,0-1-.45-1-1V4c0-.55.45-1,1-1h7v5c0,.55.45,1,1,1h5v11Z"/>
  <path class="cls-1" d="M15.5,17h1c.55,0,1-.45,1-1v-2c0-.55-.45-1-1-1h-2v5h1v-1ZM15.5,14h1v2h-1v-2Z"/>
  <polygon class="cls-1" points="8.5 15 7.5 15 7.5 13 6.5 13 6.5 15 6.5 16 6.5 18 7.5 18 7.5 16 8.5 16 8.5 18 9.5 18 9.5 16 9.5 15 9.5 13 8.5 13 8.5 15"/>
  <polygon class="cls-1" points="13 16 12.75 16.67 12.5 16 12.5 13 11.5 13 11.5 16 11.25 16.67 11 16 11 13 10 13 10 16 10.75 18 11.75 18 12 17.33 12.25 18 13.25 18 14 16 14 13 13 13 13 16"/>
</svg>