<svg id="Layer_1" data-name="Layer 1" xmlns="http://www.w3.org/2000/svg" viewBox="0 0 24 24">
  <defs>
    <style>
      .cls-1 {
        fill: #000;
        stroke-width: 0px;
      }
    </style>
  </defs>
  <path class="cls-1" d="M20.12,5.71l-3.83-3.83c-.57-.57-1.32-.88-2.12-.88H6c-1.65,0-3,1.35-3,3v16c0,1.65,1.35,3,3,3h12c1.65,0,3-1.35,3-3V7.83c0-.8-.31-1.56-.88-2.12ZM18.59,7h-3.59v-3.59l3.59,3.59ZM19,20c0,.55-.45,1-1,1H6c-.55,0-1-.45-1-1V4c0-.55.45-1,1-1h7v5c0,.55.45,1,1,1h5v11Z"/>
  <path class="cls-1" d="M10,12c-.55,0-1,.45-1,1v5c0,.55.45,1,1,1s1-.45,1-1v-1h1.5c1.38,0,2.5-1.12,2.5-2.5s-1.12-2.5-2.5-2.5h-2.5ZM13,14.5c0,.28-.22.5-.5.5h-1.5v-1h1.5c.28,0,.5.22.5.5Z"/>
</svg>