<svg id="Layer_1" data-name="Layer 1" xmlns="http://www.w3.org/2000/svg" viewBox="0 0 24 24">
  <defs>
    <style>
      .cls-1 {
        fill: #000;
        stroke-width: 0px;
      }
    </style>
  </defs>
  <path class="cls-1" d="M20.12,5.71l-3.83-3.83c-.57-.57-1.32-.88-2.12-.88H6c-1.65,0-3,1.35-3,3v16c0,1.65,1.35,3,3,3h12c1.65,0,3-1.35,3-3V7.83c0-.8-.31-1.56-.88-2.12ZM15,3.41l3.59,3.59h-3.59v-3.59ZM19,20c0,.55-.45,1-1,1H6c-.55,0-1-.45-1-1V4c0-.55.45-1,1-1h7v5c0,.55.45,1,1,1h5v11Z"/>
  <path class="cls-1" d="M9.01,11.13c-.31.18-.51.51-.51.87v6c0,.36.19.69.51.87.15.09.32.13.49.13s.36-.05.51-.14l5-3c.3-.18.49-.51.49-.86s-.18-.68-.49-.86l-5-3c-.31-.19-.69-.19-1.01-.01ZM10.5,13.77l2.06,1.23-2.06,1.23v-2.47Z"/>
</svg>