<svg id="Layer_1" data-name="Layer 1" xmlns="http://www.w3.org/2000/svg" viewBox="0 0 24 24">
  <defs>
    <style>
      .cls-1 {
        fill: #000;
        stroke-width: 0px;
      }
    </style>
  </defs>
  <path class="cls-1" d="M20.12,5.71l-3.83-3.83c-.57-.57-1.32-.88-2.12-.88H6c-1.65,0-3,1.35-3,3v16c0,1.65,1.35,3,3,3h12c1.65,0,3-1.35,3-3V7.83c0-.8-.31-1.56-.88-2.12ZM18.59,7h-3.59v-3.59l3.59,3.59ZM19,20c0,.55-.45,1-1,1H6c-.55,0-1-.45-1-1V4c0-.55.45-1,1-1h7v5c0,.55.45,1,1,1h5v11Z"/>
  <path class="cls-1" d="M8.5,13h-2v5h1v-1h1c.55,0,1-.45,1-1v-2c0-.55-.45-1-1-1ZM8.5,16h-1v-2h1v2Z"/>
  <path class="cls-1" d="M12.5,13h-2v5h2c.55,0,1-.45,1-1v-3c0-.55-.45-1-1-1ZM12.5,17h-1v-3h1v3Z"/>
  <polygon class="cls-1" points="15.5 16 17.5 16 17.5 15 15.5 15 15.5 14 17.5 14 17.5 13 14.5 13 14.5 18 15.5 18 15.5 16"/>
</svg>