<svg id="Layer_1" data-name="Layer 1" xmlns="http://www.w3.org/2000/svg" viewBox="0 0 24 24">
  <defs>
    <style>
      .cls-1 {
        fill: #000;
        stroke-width: 0px;
      }
    </style>
  </defs>
  <path class="cls-1" d="M20.12,5.71l-3.83-3.83c-.57-.57-1.32-.88-2.12-.88H6c-1.65,0-3,1.35-3,3v16c0,1.65,1.35,3,3,3h12c1.65,0,3-1.35,3-3V7.83c0-.8-.31-1.56-.88-2.12ZM15,3.41l3.59,3.59h-3.59v-3.59ZM19,20c0,.55-.45,1-1,1H6c-.55,0-1-.45-1-1V4c0-.55.45-1,1-1h7v5c0,.55.45,1,1,1h5v11Z"/>
  <path class="cls-1" d="M12.94,13.27s-.01-.02-.02-.03c-.03-.07-.07-.12-.11-.18-.03-.05-.06-.1-.1-.14-.04-.04-.1-.07-.15-.11-.06-.04-.11-.08-.17-.11-.01,0-.02-.01-.03-.02-.05-.02-.1-.01-.15-.02-.07-.01-.13-.03-.2-.03-.07,0-.14.02-.21.03-.05.01-.1,0-.14.02-.01,0-.02.01-.03.02-.07.03-.12.07-.18.11-.05.03-.1.06-.14.1-.04.04-.07.1-.1.15-.04.06-.08.11-.11.18,0,.01-.01.02-.02.03l-.56,1.5-.56-1.5c-.19-.52-.77-.78-1.29-.58-.52.19-.78.77-.58,1.29l1.5,4s.01.02.02.03c.01.03.03.06.05.09.04.08.09.15.15.21.03.03.05.05.08.08.07.06.15.11.23.14.02,0,.04.03.06.04,0,0,.02,0,.03,0,.1.04.21.06.32.06s.22-.02.32-.06c0,0,.02,0,.03,0,.02,0,.04-.03.06-.04.08-.04.16-.08.23-.14.03-.02.06-.05.08-.08.06-.06.11-.13.15-.21.02-.03.04-.06.05-.09,0-.01.01-.02.02-.03l.56-1.5.56,1.5s.01.02.02.03c.01.03.03.06.05.09.04.08.09.15.15.21.03.03.05.05.08.08.07.06.15.11.23.14.02,0,.04.03.06.04,0,0,.02,0,.03,0,.1.04.21.06.32.06s.22-.02.32-.06c0,0,.02,0,.03,0,.02,0,.04-.03.06-.04.08-.04.16-.08.23-.14.03-.02.06-.05.08-.08.06-.06.11-.13.15-.21.02-.03.04-.06.05-.09,0-.01.01-.02.02-.03l1.5-4c.19-.52-.07-1.09-.58-1.29-.52-.19-1.09.07-1.29.58l-.56,1.5-.56-1.5Z"/>
</svg>