<svg id="Layer_1" data-name="Layer 1" xmlns="http://www.w3.org/2000/svg" viewBox="0 0 24 24">
  <defs>
    <style>
      .cls-1 {
        fill: #000;
        stroke-width: 0px;
      }
    </style>
  </defs>
  <path class="cls-1" d="M19,2H5c-1.65,0-3,1.35-3,3v2c0,.55.45,1,1,1v11c0,1.65,1.35,3,3,3h12c1.65,0,3-1.35,3-3v-11c.55,0,1-.45,1-1v-2c0-1.65-1.35-3-3-3ZM4,5c0-.55.45-1,1-1h14c.55,0,1,.45,1,1v1H4v-1ZM19,19c0,.55-.45,1-1,1H6c-.55,0-1-.45-1-1v-11h14v11Z"/>
  <path class="cls-1" d="M9.3,13h5.4c.55,0,1-.45,1-1s-.45-1-1-1h-5.4c-.55,0-1,.45-1,1s.45,1,1,1Z"/>
</svg>