<svg id="Layer_1" data-name="Layer 1" xmlns="http://www.w3.org/2000/svg" viewBox="0 0 24 24">
  <defs>
    <style>
      .cls-1 {
        fill: #000;
        stroke-width: 0px;
      }
    </style>
  </defs>
  <path class="cls-1" d="M20.12,5.71l-3.83-3.83c-.57-.57-1.32-.88-2.12-.88H6c-1.65,0-3,1.35-3,3v16c0,1.65,1.35,3,3,3h12c1.65,0,3-1.35,3-3V7.83c0-.8-.31-1.56-.88-2.12ZM15,3.41l3.59,3.59h-3.59v-3.59ZM19,20c0,.55-.45,1-1,1H6c-.41,0-.77-.25-.92-.61l5.52-4.73c.19-.17.49-.16.68.03l.96.96c.94.95,2.59.95,3.54,0l3.23-3.23v6.59ZM19,10.59l-4.65,4.65c-.13.13-.28.15-.35.15s-.23-.02-.35-.15l-.96-.96c-.92-.92-2.41-.98-3.4-.13l-4.29,3.68V4c0-.55.45-1,1-1h7v5c0,.55.45,1,1,1h5v1.59Z"/>
  <path class="cls-1" d="M7.94,7.94c-.28.28-.44.67-.44,1.06s.16.78.44,1.06.67.44,1.06.44.78-.16,1.06-.44c.28-.28.44-.66.44-1.06s-.16-.78-.44-1.06c-.56-.56-1.56-.56-2.12,0Z"/>
</svg>