<svg id="Layer_1" data-name="Layer 1" xmlns="http://www.w3.org/2000/svg" viewBox="0 0 24 24">
  <defs>
    <style>
      .cls-1 {
        fill: #000;
        stroke-width: 0px;
      }
    </style>
  </defs>
  <path class="cls-1" d="M20.12,5.71l-3.83-3.83c-.57-.57-1.32-.88-2.12-.88H6c-1.65,0-3,1.35-3,3v16c0,1.65,1.35,3,3,3h12c1.65,0,3-1.35,3-3V7.83c0-.8-.31-1.55-.88-2.12ZM18.59,7h-3.59v-3.59l3.59,3.59ZM19,20c0,.55-.45,1-1,1H6c-.55,0-1-.45-1-1V4c0-.55.45-1,1-1h2v.5c0,.55.45,1,1,1s1-.45,1-1v-.5h3v5c0,.55.45,1,1,1h5v11Z"/>
  <path class="cls-1" d="M9,11.5c.55,0,1-.45,1-1v-.5c0-.55-.45-1-1-1s-1,.45-1,1v.5c0,.55.45,1,1,1Z"/>
  <path class="cls-1" d="M9,8c.55,0,1-.45,1-1v-.5c0-.55-.45-1-1-1s-1,.45-1,1v.5c0,.55.45,1,1,1Z"/>
  <path class="cls-1" d="M9.94,13.15c-.15-.39-.52-.65-.94-.65s-.79.26-.94.65l-.5,1.33c-.04.11-.06.23-.06.35v.67c0,.55.45,1,1,1h1c.55,0,1-.45,1-1v-.67c0-.12-.02-.24-.06-.35l-.5-1.33Z"/>
</svg>