<svg xmlns="http://www.w3.org/2000/svg" version="1.1" viewBox="0 0 24 24">
  <!-- Generator: Adobe Illustrator 28.7.1, SVG Export Plug-In . SVG Version: 1.2.0 Build 142)  -->
  <g>
    <g id="Layer_1">
      <g>
        <path d="M20.1,5.7l-3.8-3.8c-.6-.6-1.3-.9-2.1-.9H6c-1.7,0-3,1.3-3,3v16c0,1.7,1.3,3,3,3h12c1.7,0,3-1.3,3-3V7.8c0-.8-.3-1.6-.9-2.1ZM18.6,7h-3.6v-3.6l3.6,3.6ZM19,20c0,.6-.4,1-1,1H6c-.6,0-1-.4-1-1V4c0-.6.4-1,1-1h7v5c0,.6.4,1,1,1h5v11Z"/>
        <path d="M10.6,13l-1,3v2h1v-1h1v1h1v-2l-1-3h-1ZM10.6,16l.5-1.5.5,1.5h-1Z"/>
        <rect x="13.4" y="13" width="1" height="5"/>
      </g>
    </g>
  </g>
</svg>