<svg id="Layer_1" data-name="Layer 1" xmlns="http://www.w3.org/2000/svg" viewBox="0 0 24 24">
  <defs>
    <style>
      .cls-1 {
        fill: #000;
        stroke-width: 0px;
      }
    </style>
  </defs>
  <path class="cls-1" d="M14,22c-.15,0-.31-.04-.45-.11l-4-2c-.34-.17-.55-.52-.55-.89v-6.17L2.63,5.29c-.51-.6-.62-1.42-.29-2.13s1.03-1.16,1.81-1.16h15.69c.79,0,1.48.44,1.81,1.16s.22,1.53-.29,2.13l-6.37,7.53v8.17c0,.35-.18.67-.47.85-.16.1-.34.15-.53.15ZM11,18.38l2,1v-6.92c0-.24.08-.47.24-.65l6.61-7.81H4.16l6.61,7.81c.15.18.24.41.24.65v5.92Z"/>
</svg>