<svg id="Layer_1" data-name="Layer 1" xmlns="http://www.w3.org/2000/svg" viewBox="0 0 24 24">
  <defs>
    <style>
      .cls-1 {
        fill: #000;
        stroke-width: 0px;
      }
    </style>
  </defs>
  <path class="cls-1" d="M20,6h-7.59l-2.71-2.71c-.19-.19-.44-.29-.71-.29h-5c-1.65,0-3,1.35-3,3v12c0,1.65,1.35,3,3,3h16c1.65,0,3-1.35,3-3v-9c0-1.65-1.35-3-3-3ZM21,18c0,.55-.45,1-1,1H4c-.55,0-1-.45-1-1V6c0-.55.45-1,1-1h4.59l2.71,2.71c.19.19.44.29.71.29h8c.55,0,1,.45,1,1v9Z"/>
  <path class="cls-1" d="M14.5,12.5h-1.5v-1.5c0-.55-.45-1-1-1s-1,.45-1,1v1.5h-1.5c-.55,0-1,.45-1,1s.45,1,1,1h1.5v1.5c0,.55.45,1,1,1s1-.45,1-1v-1.5h1.5c.55,0,1-.45,1-1s-.45-1-1-1Z"/>
</svg>