<svg id="Layer_1" data-name="Layer 1" xmlns="http://www.w3.org/2000/svg" viewBox="0 0 24 24">
  <defs>
    <style>
      .cls-1 {
        fill: #000;
        stroke-width: 0px;
      }
    </style>
  </defs>
  <path class="cls-1" d="M21,20h-.8v-7.15c.61-.24,1.07-.76,1.21-1.44.2-.93-.27-1.86-1.15-2.24l-7.27-3.22v-.15h1.7c.44,0,.83-.29.96-.71.13-.42-.04-.88-.4-1.12l-2.7-1.8s-.08-.04-.12-.06c-.03-.01-.05-.03-.08-.04-.11-.04-.22-.07-.34-.07,0,0-.01,0-.02,0-.01,0-.03,0-.04,0-.1,0-.2.02-.3.06-.03.01-.05.02-.08.03-.02,0-.04.01-.05.02-.09.05-.16.1-.23.17-.01,0-.02.02-.03.03-.07.07-.12.16-.17.25-.01.03-.03.06-.04.08-.04.11-.07.22-.07.35v2.95l-7.27,3.22c-.87.39-1.34,1.31-1.15,2.24.14.68.61,1.2,1.21,1.44v7.15h-.8c-.55,0-1,.45-1,1s.45,1,1,1h18c.55,0,1-.45,1-1s-.45-1-1-1ZM7.4,20h-1.6v-7h1.6v7ZM11,20h-1.6v-7h1.6v7ZM14.6,20h-1.6v-7h1.6v7ZM18.2,20h-1.6v-7h1.6v7ZM4.54,11l7.46-3.31,7.45,3.31H4.54Z"/>
</svg>