<svg id="Layer_1" data-name="Layer 1" xmlns="http://www.w3.org/2000/svg" viewBox="0 0 24 24">
  <defs>
    <style>
      .cls-1 {
        fill: #000;
        stroke-width: 0px;
      }
    </style>
  </defs>
  <path class="cls-1" d="M12,1.5C6.21,1.5,1.5,6.21,1.5,12c0,2.91,1.22,5.71,3.36,7.69,1.93,1.81,4.47,2.81,7.14,2.81s5.21-1,7.14-2.81c2.14-1.98,3.36-4.78,3.36-7.69,0-5.79-4.71-10.5-10.5-10.5ZM17.78,18.23c-1.56,1.47-3.62,2.27-5.78,2.27s-4.21-.81-5.78-2.28c-1.75-1.62-2.72-3.83-2.72-6.22C3.5,7.31,7.31,3.5,12,3.5s8.5,3.81,8.5,8.5c0,2.39-.97,4.6-2.72,6.23Z"/>
  <path class="cls-1" d="M13.26,6.22c-2.12-.72-4.45.37-5.2,2.44-.19.52.08,1.09.6,1.28.52.19,1.09-.08,1.28-.6.38-1.05,1.58-1.6,2.67-1.23.83.28,1.39,1.04,1.39,1.89,0,1.03-1.72,1.85-2.32,2.05-.41.14-.68.52-.68.95v1c0,.55.45,1,1,1s1-.45,1-1v-.33c1.08-.5,3-1.66,3-3.67,0-1.7-1.1-3.22-2.74-3.78Z"/>
  <path class="cls-1" d="M12.01,16h0c-.55,0-1,.45-1,1s.45,1,1,1,1-.45,1-1-.45-1-1-1Z"/>
</svg>