<svg xmlns="http://www.w3.org/2000/svg" viewBox="0 0 16 16">
  <path class="cls-1" d="M8,1c-3.87,0-7,3.13-7,7s3.13,7,7,7,7-3.13,7-7c0-3.86-3.14-7-7-7ZM8,13.83c-3.22,0-5.83-2.61-5.83-5.83s2.61-5.83,5.83-5.83,5.83,2.61,5.83,5.83c0,3.22-2.61,5.83-5.83,5.83Z"/>
  <path class="cls-1" d="M8.42,3.95c-1.27-.23-2.48.61-2.71,1.88-.03.14-.04.28-.04.42,0,.32.26.58.58.58s.58-.26.58-.58c0-.64.52-1.17,1.17-1.17.07,0,.15,0,.22.02.47.09.84.46.93.93.09.5-.14,1-.58,1.24-.73.42-1.17,1.2-1.15,2.04v.43c0,.32.26.58.58.58s.58-.26.58-.58v-.43c-.01-.41.19-.8.54-1.02,1.13-.62,1.54-2.04.92-3.17-.34-.62-.94-1.05-1.63-1.17Z"/>
  <path class="cls-1" d="M8,10.92h0c.32,0,.58.26.58.58h0c0,.32-.26.58-.58.58h0c-.32,0-.58-.26-.58-.58h0c0-.32.26-.58.58-.58Z"/>
</svg>