<svg id="Layer_1" data-name="Layer 1" xmlns="http://www.w3.org/2000/svg" viewBox="0 0 24 24">
  <defs>
    <style>
      .cls-1 {
        fill: #000;
        stroke-width: 0px;
      }
    </style>
  </defs>
  <path class="cls-1" d="M12,7c-.55,0-1,.45-1,1v4s.02.06.02.09c0,.07.02.13.04.2.02.06.04.12.07.17.03.06.06.11.1.15.04.05.09.1.14.14.03.02.04.05.07.07l3,2c.17.11.36.17.55.17.32,0,.64-.16.83-.45.31-.46.18-1.08-.28-1.39l-2.55-1.7v-3.46c0-.55-.45-1-1-1Z"/>
  <path class="cls-1" d="M12,2c-2.2,0-4.29.72-6,2.01h0c0-.56-.45-1.01-1-1.01s-1,.45-1,1v2.5c0,.55.45,1,1,1h2.5c.55,0,1-.45,1-1s-.45-1-1-1h-.15c1.34-.96,2.95-1.5,4.65-1.5,4.41,0,8,3.59,8,8s-3.59,8-8,8-8-3.59-8-8c0-.55-.45-1-1-1s-1,.45-1,1c0,5.51,4.49,10,10,10s10-4.49,10-10S17.51,2,12,2Z"/>
</svg>