<svg id="Layer_1" data-name="Layer 1" xmlns="http://www.w3.org/2000/svg" viewBox="0 0 24 24">
  <defs>
    <style>
      .cls-1 {
        fill: #000;
        stroke-width: 0px;
      }
    </style>
  </defs>
  <path class="cls-1" d="M13,9.5v-1h1c.55,0,1-.45,1-1s-.45-1-1-1h-1v-1c0-.55-.45-1-1-1s-1,.45-1,1v1h-1c-.55,0-1,.45-1,1s.45,1,1,1h1v1c0,.55.45,1,1,1s1-.45,1-1Z"/>
  <path class="cls-1" d="M10.5,13h-1c-.55,0-1,.45-1,1s.45,1,1,1h1c.55,0,1-.45,1-1s-.45-1-1-1Z"/>
  <path class="cls-1" d="M10.5,17h-1c-.55,0-1,.45-1,1s.45,1,1,1h1c.55,0,1-.45,1-1s-.45-1-1-1Z"/>
  <path class="cls-1" d="M14.5,13h-1c-.55,0-1,.45-1,1s.45,1,1,1h1c.55,0,1-.45,1-1s-.45-1-1-1Z"/>
  <path class="cls-1" d="M14.5,17h-1c-.55,0-1,.45-1,1s.45,1,1,1h1c.55,0,1-.45,1-1s-.45-1-1-1Z"/>
  <path class="cls-1" d="M20,4.5h-.5v-.5c0-1.65-1.35-3-3-3H7.5c-1.65,0-3,1.35-3,3v.5h-.5c-1.65,0-3,1.35-3,3v12.5c0,1.65,1.35,3,3,3h16c1.65,0,3-1.35,3-3V7.5c0-1.65-1.35-3-3-3ZM3,20V7.5c0-.55.45-1,1-1h.5v14.5h-.5c-.55,0-1-.45-1-1ZM6.5,5.5v-1.5c0-.55.45-1,1-1h9c.55,0,1,.45,1,1v17H6.5V5.5ZM21,20c0,.55-.45,1-1,1h-.5V6.5h.5c.55,0,1,.45,1,1v12.5Z"/>
</svg>