<svg xmlns="http://www.w3.org/2000/svg" viewBox="0 0 16 16">
  <path class="cls-1" d="M4.5,6.54c0-.48.39-.88.88-.88s.88.39.88.88-.39.88-.88.88-.88-.39-.88-.88ZM13.83,7.12v4.97c0,1.61-1.31,2.92-2.92,2.92h-5.83c-1.61,0-2.92-1.31-2.92-2.92V3.92c0-1.61,1.31-2.92,2.92-2.92h2.63c1.09,0,2.12.42,2.89,1.2l2.03,2.03c.77.77,1.2,1.8,1.2,2.89ZM9.78,3.02c-.19-.19-.39-.34-.61-.47v2.53c0,.32.26.58.58.58h2.53c-.13-.22-.28-.43-.47-.61l-2.03-2.03h0ZM3.33,12.08s0,.03,0,.05l2.95-2.95c.78-.78,2.06-.78,2.84,0l.36.36c.3.3.8.3,1.1,0l2.07-2.07v-.35c0-.1,0-.19-.01-.28h-2.9c-.96,0-1.75-.79-1.75-1.75v-2.9c-.09,0-.19-.01-.28-.01h-2.63c-.96,0-1.75.79-1.75,1.75v8.17h0ZM12.67,12.08v-2.97l-1.25,1.25c-.76.76-2,.76-2.75,0l-.36-.36c-.33-.33-.87-.33-1.19,0l-3.29,3.29c.32.33.77.54,1.26.54h5.83c.96,0,1.75-.79,1.75-1.75Z"/>
</svg>