<svg id="Layer_1" data-name="Layer 1" xmlns="http://www.w3.org/2000/svg" viewBox="0 0 24 24">
  <defs>
    <style>
      .cls-1 {
        fill: #000;
        stroke-width: 0px;
      }
    </style>
  </defs>
  <path class="cls-1" d="M13.34,16.08l-2.81,2.81c-1.49,1.49-3.92,1.49-5.42,0-.72-.72-1.12-1.68-1.12-2.71s.4-1.99,1.12-2.71l2.81-2.81c.39-.39.39-1.02,0-1.41s-1.02-.39-1.41,0l-2.81,2.81c-1.1,1.1-1.7,2.56-1.7,4.12s.6,3.03,1.7,4.12c1.14,1.14,2.63,1.71,4.12,1.71s2.99-.57,4.12-1.71l2.81-2.81c.39-.39.39-1.02,0-1.41s-1.02-.39-1.41,0Z"/>
  <path class="cls-1" d="M20.3,3.7c-2.27-2.27-5.97-2.27-8.25,0l-2.81,2.81c-.39.39-.39,1.02,0,1.41s1.02.39,1.41,0l2.81-2.81c1.49-1.49,3.92-1.49,5.42,0,.72.72,1.12,1.68,1.12,2.71s-.4,1.99-1.12,2.71l-2.81,2.81c-.39.39-.39,1.02,0,1.41.2.2.45.29.71.29s.51-.1.71-.29l2.81-2.81c1.1-1.1,1.7-2.56,1.7-4.12s-.6-3.03-1.7-4.12Z"/>
  <path class="cls-1" d="M13.57,9.02l-4.55,4.55c-.39.39-.39,1.02,0,1.41.2.2.45.29.71.29s.51-.1.71-.29l4.55-4.55c.39-.39.39-1.02,0-1.41s-1.02-.39-1.41,0Z"/>
</svg>