<svg id="Layer_1" data-name="Layer 1" xmlns="http://www.w3.org/2000/svg" viewBox="0 0 24 24">
  <defs>
    <style>
      .cls-1 {
        fill: #000;
        stroke-width: 0px;
      }
    </style>
  </defs>
  <path class="cls-1" d="M17,7.1v-1.1c0-2.76-2.24-5-5-5s-5,2.24-5,5v1.1c-2.28.46-4,2.48-4,4.9v6c0,2.76,2.24,5,5,5h8c2.76,0,5-2.24,5-5v-6c0-2.41-1.72-4.43-4-4.9ZM12,3c1.65,0,3,1.35,3,3v1h-6v-1c0-1.65,1.35-3,3-3ZM19,18c0,1.65-1.35,3-3,3h-8c-1.65,0-3-1.35-3-3v-6c0-1.65,1.35-3,3-3h8c1.65,0,3,1.35,3,3v6Z"/>
  <path class="cls-1" d="M12,13c-.55,0-1,.45-1,1v1c0,.55.45,1,1,1s1-.45,1-1v-1c0-.55-.45-1-1-1Z"/>
</svg>