<svg xmlns="http://www.w3.org/2000/svg" version="1.1" viewBox="0 0 24 24">
  <!-- Generator: Adobe Illustrator 28.7.0, SVG Export Plug-In . SVG Version: 1.2.0 Build 136)  -->
  <g>
    <g id="Layer_1">
      <g id="Layer_1-2" data-name="Layer_1">
        <g>
          <path d="M16.4,7.4l-1.3-.2s-.2,0-.2-.2l-.6-1.2c-.1-.2-.4-.2-.5,0l-.6,1.2s-.1,0-.2.2l-1.3.2c-.2,0-.3.3-.2.5l1,.9s.1.2,0,.3l-.2,1.3c0,.2.2.4.4.3l1.2-.6h.3l1.2.6c.2.1.5,0,.4-.3l-.2-1.3v-.3l1-.9c.2-.2,0-.5-.2-.5Z"/>
          <path d="M19,1H6c-1.7,0-3,1.3-3,3v16c0,1.7,1.3,3,3,3s1-.4,1-1-.4-1-1-1-1-.4-1-1,.4-1,1-1h2.5v2.8c0,.4.5.7.9.4l.8-.8c.2-.2.5-.2.7,0l.8.8c.3.3.9,0,.9-.4v-2.8h6.5v2h-4c-.6,0-1,.4-1,1s.4,1,1,1h4c1.1,0,2-.9,2-2V3c0-1.1-.9-2-2-2h0ZM7,17h-2.1V4c0-.6.4-1,1-1h1v14h0ZM19,17h-10V3h10v14Z"/>
        </g>
      </g>
    </g>
  </g>
</svg>