<svg id="Layer_1" data-name="Layer 1" xmlns="http://www.w3.org/2000/svg" viewBox="0 0 24 24">
  <defs>
    <style>
      .cls-1 {
        fill: #000;
        stroke-width: 0px;
      }
    </style>
  </defs>
  <path class="cls-1" d="M12,13c2.3,0,4.17-1.87,4.17-4.17s-1.87-4.17-4.17-4.17-4.17,1.87-4.17,4.17,1.87,4.17,4.17,4.17ZM12,6.67c1.19,0,2.17.97,2.17,2.17s-.97,2.17-2.17,2.17-2.17-.97-2.17-2.17.97-2.17,2.17-2.17Z"/>
  <path class="cls-1" d="M19.15,19.68c2.13-1.98,3.35-4.78,3.35-7.68,0-5.79-4.71-10.5-10.5-10.5S1.5,6.21,1.5,12c0,2.91,1.22,5.71,3.36,7.69,1.94,1.81,4.47,2.81,7.14,2.81.33,0,.67-.02.99-.05,2.3-.22,4.46-1.18,6.15-2.76h0s0,0,0,0c0,0,0,0,0,0ZM12,3.5c4.69,0,8.5,3.81,8.5,8.5,0,1.99-.68,3.85-1.92,5.36-1.58-1.99-3.99-3.2-6.58-3.2s-5,1.2-6.58,3.2c-1.24-1.51-1.92-3.37-1.92-5.36C3.5,7.31,7.31,3.5,12,3.5ZM11.24,20.46c-.08,0-.16-.02-.24-.03-.17-.02-.34-.04-.5-.07-.09-.02-.18-.04-.28-.06-.15-.03-.31-.07-.46-.11-.09-.03-.18-.05-.28-.08-.15-.05-.3-.1-.44-.15-.09-.03-.17-.07-.26-.1-.15-.06-.3-.13-.45-.2-.08-.04-.15-.07-.23-.11-.17-.09-.34-.18-.5-.28-.05-.03-.1-.06-.15-.09-.21-.13-.41-.27-.6-.42,1.2-1.62,3.11-2.59,5.14-2.59s3.94.98,5.14,2.59c-.19.15-.39.29-.6.42-.06.04-.12.07-.18.1-.15.09-.31.18-.47.27-.08.04-.16.08-.24.12-.14.07-.29.13-.43.19-.09.04-.18.07-.27.1-.14.05-.29.1-.43.15-.09.03-.19.06-.28.08-.15.04-.3.08-.45.11-.09.02-.19.04-.28.06-.17.03-.33.05-.5.07-.08,0-.16.02-.25.03-.25.02-.5.04-.76.04s-.51-.01-.76-.04Z"/>
</svg>