<svg id="Layer_1" data-name="Layer 1" xmlns="http://www.w3.org/2000/svg" viewBox="0 0 24 24">
  <defs>
    <style>
      .cls-1 {
        fill: #000;
        stroke-width: 0px;
      }
    </style>
  </defs>
  <path class="cls-1" d="M12,13.75c-.11,0-.23-.01-.34-.03-.11-.03-.22-.06-.33-.1-.1-.05-.21-.1-.3-.16-.1-.07-.19-.14-.27-.22-.32-.33-.51-.78-.51-1.24,0-.11,0-.23.04-.34.02-.11.05-.22.09-.33.05-.1.1-.21.17-.3.06-.1.13-.19.21-.27s.17-.15.27-.21c.09-.07.2-.12.3-.17.11-.04.22-.07.33-.09.57-.12,1.17.07,1.58.47.08.08.15.17.22.27.06.09.11.2.16.3.04.11.07.22.1.33.02.11.03.23.03.34,0,.46-.19.91-.51,1.24-.33.32-.78.51-1.24.51Z"/>
  <path class="cls-1" d="M12,5.75c-.46,0-.91-.19-1.24-.51-.08-.08-.15-.17-.21-.27-.07-.09-.12-.19-.17-.3-.04-.11-.07-.22-.09-.33-.03-.11-.04-.23-.04-.34s0-.23.04-.34c.02-.11.05-.22.09-.33.05-.11.1-.21.17-.3.06-.1.13-.19.21-.27.66-.65,1.82-.65,2.48,0,.08.08.15.17.22.27.06.09.11.19.16.3.04.11.07.22.1.33.02.11.03.23.03.34s-.01.23-.03.34c-.03.11-.06.22-.1.33-.05.11-.1.21-.16.3-.07.1-.14.19-.22.27-.33.32-.78.51-1.24.51Z"/>
  <path class="cls-1" d="M12,21.75c-.11,0-.23-.01-.34-.03-.11-.03-.22-.06-.33-.1-.1-.05-.21-.1-.3-.16-.1-.07-.19-.14-.27-.22-.32-.33-.51-.78-.51-1.24s.19-.91.51-1.24c.08-.08.17-.15.27-.21.09-.07.2-.12.3-.17.11-.04.22-.07.33-.09.22-.05.46-.05.68,0,.11.02.22.05.33.09.1.05.21.1.3.17.1.06.19.13.27.21.32.33.51.78.51,1.24s-.19.91-.51,1.24c-.08.08-.17.15-.27.22-.09.06-.2.11-.3.16-.11.04-.22.07-.33.1-.11.02-.23.03-.34.03Z"/>
</svg>