<svg id="Layer_1" data-name="Layer 1" xmlns="http://www.w3.org/2000/svg" viewBox="0 0 24 24">
  <defs>
    <style>
      .cls-1 {
        fill: #000;
        stroke-width: 0px;
      }
    </style>
  </defs>
  <path class="cls-1" d="M8.41,4.85c1.12-.56,2.33-.85,3.59-.85,4.41,0,8,3.59,8,8,0,1.26-.29,2.47-.85,3.59-.25.49-.05,1.09.44,1.34.14.07.3.11.45.11.37,0,.72-.2.89-.55.71-1.4,1.06-2.91,1.06-4.49,0-5.51-4.49-10-10-10-1.58,0-3.09.36-4.49,1.06-.49.25-.69.85-.44,1.34.25.49.85.69,1.34.44Z"/>
  <path class="cls-1" d="M6.34,4.93s0,0,0,0,0,0,0,0l-2.63-2.63c-.39-.39-1.02-.39-1.41,0s-.39,1.02,0,1.41l1.96,1.96c-1.46,1.78-2.26,3.99-2.26,6.33,0,5.51,4.49,10,10,10,2.33,0,4.55-.8,6.33-2.26l1.96,1.96c.2.2.45.29.71.29s.51-.1.71-.29c.39-.39.39-1.02,0-1.41L6.34,4.93ZM12,20c-4.41,0-8-3.59-8-8,0-1.8.6-3.5,1.68-4.9l3.14,3.14h-.57c-.43,0-.66.5-.38.83l3.75,4.33c.2.23.56.23.76,0l.74-.86,3.78,3.78c-1.4,1.09-3.1,1.68-4.9,1.68Z"/>
  <path class="cls-1" d="M13.24,10.24l1.93,1.93.96-1.1c.28-.32.05-.83-.38-.83h-2.51Z"/>
</svg>