<svg xmlns="http://www.w3.org/2000/svg" viewBox="0 0 16 16">
  <path class="cls-1" d="M5.08,9.17c0,.32-.26.58-.58.58h-.58c-.32,0-.58-.26-.58-.58s.26-.58.58-.58h.58c.32,0,.58.26.58.58ZM7.42,8.58h-.58c-.32,0-.58.26-.58.58s.26.58.58.58h.58c.32,0,.58-.26.58-.58s-.26-.58-.58-.58ZM4.5,10.92h-.58c-.32,0-.58.26-.58.58s.26.58.58.58h.58c.32,0,.58-.26.58-.58s-.26-.58-.58-.58ZM7.42,10.92h-.58c-.32,0-.58.26-.58.58s.26.58.58.58h.58c.32,0,.58-.26.58-.58s-.26-.58-.58-.58ZM4.5,3.92h-.58c-.32,0-.58.26-.58.58s.26.58.58.58h.58c.32,0,.58-.26.58-.58s-.26-.58-.58-.58ZM7.42,3.92h-.58c-.32,0-.58.26-.58.58s.26.58.58.58h.58c.32,0,.58-.26.58-.58s-.26-.58-.58-.58ZM4.5,6.25h-.58c-.32,0-.58.26-.58.58s.26.58.58.58h.58c.32,0,.58-.26.58-.58s-.26-.58-.58-.58ZM7.42,6.25h-.58c-.32,0-.58.26-.58.58s.26.58.58.58h.58c.32,0,.58-.26.58-.58s-.26-.58-.58-.58ZM15,6.83v5.25c0,1.61-1.31,2.91-2.92,2.92H3.92c-1.61,0-2.91-1.31-2.92-2.92V3.92c0-1.61,1.31-2.91,2.92-2.92h3.5c1.61,0,2.91,1.31,2.92,2.92h1.75c1.61,0,2.91,1.31,2.92,2.92ZM3.92,13.83h5.25V3.92c0-.97-.78-1.75-1.75-1.75h-3.5c-.97,0-1.75.78-1.75,1.75v8.17c0,.97.78,1.75,1.75,1.75ZM13.83,6.83c0-.97-.78-1.75-1.75-1.75h-1.75v8.75h1.75c.97,0,1.75-.78,1.75-1.75v-5.25ZM12.08,8.58c-.32,0-.58.26-.58.58s.26.58.58.58.58-.26.58-.58-.26-.58-.58-.58ZM12.08,10.92c-.32,0-.58.26-.58.58s.26.58.58.58.58-.26.58-.58-.26-.58-.58-.58ZM12.08,6.25c-.32,0-.58.26-.58.58s.26.58.58.58.58-.26.58-.58-.26-.58-.58-.58Z"/>
</svg>