<svg xmlns="http://www.w3.org/2000/svg" viewBox="0 0 16 16">
  <path class="cls-1" d="M12.64,4.23l-2.04-2.04c-.77-.77-1.8-1.2-2.89-1.2h-2.63c-1.61,0-2.92,1.31-2.92,2.92v8.17c0,1.61,1.31,2.92,2.92,2.92h5.83c1.61,0,2.92-1.31,2.92-2.92v-4.96c0-1.09-.43-2.12-1.2-2.89ZM11.82,5.05c.19.19.34.39.47.61h-2.53c-.32,0-.58-.26-.58-.58v-2.53c.22.13.43.29.61.47l2.04,2.04h0ZM12.67,12.08c0,.96-.79,1.75-1.75,1.75h-5.83c-.96,0-1.75-.79-1.75-1.75V3.92c0-.96.79-1.75,1.75-1.75h2.63c.09,0,.19,0,.29.01v2.91c0,.96.79,1.75,1.75,1.75h2.9c.01.09.01.19.01.29v4.96ZM5.14,8.58h-.64c-.32,0-.58.26-.58.58v2.59c0,.2.16.36.36.36s.36-.16.36-.36v-.71h.49c.69,0,1.25-.55,1.25-1.23s-.56-1.23-1.25-1.23h0ZM5.14,10.32h-.48v-1h.49c.28,0,.52.23.52.5s-.24.5-.52.5h0ZM12.1,8.95c0,.2-.16.36-.36.36h-.99v.67h.72c.2,0,.36.16.36.36s-.16.36-.36.36h-.72v1.05c0,.2-.16.36-.36.36s-.36-.16-.36-.36v-2.81c0-.2.16-.36.36-.36h1.35c.2,0,.36.16.36.36h0ZM8.05,8.59h-.64c-.32,0-.58.26-.58.58v2.59c0,.2.16.33.36.33h.85c.69,0,1.25-.55,1.25-1.23v-1.04c0-.68-.56-1.23-1.25-1.23h0ZM8.57,10.86c0,.27-.24.5-.52.5h-.48v-2.04h.49c.28,0,.52.23.52.5v1.04h0Z"/>
</svg>