<svg id="Layer_1" data-name="Layer 1" xmlns="http://www.w3.org/2000/svg" viewBox="0 0 24 24">
  <defs>
    <style>
      .cls-1 {
        fill: #000;
        stroke-width: 0px;
      }
    </style>
  </defs>
  <path class="cls-1" d="M19.57,13.66c-.8-.11-1.58-.3-2.32-.58-1.02-.39-2.19-.14-2.97.64l-.6.59c-1.61-1.04-2.98-2.41-4.02-4.02l.6-.6c.77-.78,1.02-1.94.63-2.96-.28-.75-.47-1.53-.58-2.33-.2-1.39-1.38-2.41-2.8-2.42h-2.71c-.08,0-.17,0-.25.01-1.54.14-2.68,1.51-2.54,3.07.31,2.94,1.33,5.8,2.93,8.28,1.46,2.3,3.44,4.28,5.73,5.73,2.47,1.6,5.32,2.62,8.27,2.94.09,0,.17.01.26.01,1.55,0,2.8-1.27,2.8-2.82v-2.7c.03-1.42-1.01-2.64-2.43-2.84ZM20,16.49v2.72c0,.45-.36.81-.87.81-2.62-.28-5.17-1.19-7.38-2.63-2.05-1.3-3.82-3.07-5.13-5.13-1.44-2.22-2.34-4.78-2.62-7.39-.04-.44.29-.84.81-.88h2.73c.4,0,.75.3.8.69.12.94.36,1.87.69,2.76.11.29.04.63-.18.85l-1.15,1.15c-.32.32-.38.81-.16,1.2,1.38,2.42,3.38,4.43,5.81,5.81.39.22.88.16,1.2-.16l1.15-1.15c.22-.22.56-.29.86-.18.89.33,1.82.56,2.75.69.41.06.71.41.7.82,0,0,0,.02,0,.03Z"/>
</svg>