<svg id="Layer_1" data-name="Layer 1" xmlns="http://www.w3.org/2000/svg" viewBox="0 0 24 24">
  <defs>
    <style>
      .cls-1 {
        fill: #000;
        stroke-width: 0px;
      }
    </style>
  </defs>
  <path class="cls-1" d="M20,9c0-4.41-3.59-8-8-8S4,4.59,4,9c0,2.66,1.31,5.01,3.31,6.47l-.85,6.4c-.05.38.12.76.44.97s.73.22,1.06.02l4.03-2.42,4.03,2.42c.16.09.34.14.51.14.19,0,.38-.05.55-.16.32-.21.49-.59.44-.97l-.85-6.4c2-1.46,3.31-3.81,3.31-6.47ZM6,9c0-3.31,2.69-6,6-6s6,2.69,6,6-2.69,6-6,6-6-2.69-6-6ZM15.28,20.08l-2.77-1.66c-.32-.19-.71-.19-1.03,0l-2.77,1.66.48-3.59c.87.33,1.82.52,2.8.52s1.93-.19,2.8-.52l.48,3.59Z"/>
</svg>