<svg xmlns="http://www.w3.org/2000/svg" viewBox="0 0 16 16">
  <path class="cls-1" d="M12.64,4.23l-2.04-2.04c-.77-.77-1.8-1.2-2.89-1.2h-2.63c-1.61,0-2.92,1.31-2.92,2.92v8.17c0,1.61,1.31,2.92,2.92,2.92h5.83c1.61,0,2.92-1.31,2.92-2.92v-4.96c0-1.09-.43-2.12-1.2-2.89ZM11.82,5.05c.19.19.34.39.47.61h-2.53c-.32,0-.58-.26-.58-.58v-2.53c.22.13.43.29.61.47l2.04,2.04h0ZM12.67,12.08c0,.96-.79,1.75-1.75,1.75h-5.83c-.96,0-1.75-.79-1.75-1.75V3.92c0-.96.79-1.75,1.75-1.75h2.63c.09,0,.19,0,.29.01v2.91c0,.96.79,1.75,1.75,1.75h2.9c.01.09.01.19.01.29v4.96ZM6.83,12.67c-.32,0-.58-.26-.58-.58v-2.92c0-.64.52-1.17,1.17-1.17h.58c.96,0,1.75.79,1.75,1.75s-.79,1.75-1.75,1.75h-.58v.58c0,.32-.26.58-.58.58ZM7.42,10.33h.58c.32,0,.58-.26.58-.58s-.26-.58-.58-.58h-.58v1.17Z"/>
</svg>