<svg id="Layer_1" data-name="Layer 1" xmlns="http://www.w3.org/2000/svg" viewBox="0 0 24 24">
  <defs>
    <style>
      .cls-1 {
        fill: #000;
        stroke-width: 0px;
      }
    </style>
  </defs>
  <path class="cls-1" d="M19,18H5c-1.65,0-3-1.35-3-3V5c0-1.65,1.35-3,3-3h14c1.65,0,3,1.35,3,3v10c0,1.65-1.35,3-3,3ZM5,4c-.55,0-1,.45-1,1v10c0,.55.45,1,1,1h14c.55,0,1-.45,1-1V5c0-.55-.45-1-1-1H5Z"/>
  <path class="cls-1" d="M16,22h-8c-.55,0-1-.45-1-1s.45-1,1-1h8c.55,0,1,.45,1,1s-.45,1-1,1Z"/>
  <path class="cls-1" d="M9.5,14c-.17,0-.34-.04-.49-.13-.31-.18-.51-.51-.51-.87v-6c0-.36.19-.69.51-.87s.7-.17,1.01.01l5,3c.3.18.49.51.49.86s-.18.68-.49.86l-5,3c-.16.09-.34.14-.51.14ZM10.5,8.77v2.47l2.06-1.23-2.06-1.23Z"/>
</svg>