<svg xmlns="http://www.w3.org/2000/svg" viewBox="0 0 16 16">
  <path class="cls-1" d="M12.15,5.85v-.84c-.03-2.29-1.91-4.12-4.2-4.09-2.25.03-4.06,1.84-4.09,4.09v.84c-1.08.47-1.78,1.53-1.78,2.71v3.56c0,1.64,1.33,2.96,2.96,2.96h5.92c1.63,0,2.96-1.33,2.96-2.96v-3.56c0-1.18-.7-2.24-1.78-2.71ZM5.04,5.01c0-1.64,1.33-2.96,2.96-2.96s2.96,1.33,2.96,2.96v.59h-5.92v-.59ZM12.74,12.12c0,.98-.8,1.78-1.78,1.78h-5.92c-.98,0-1.78-.79-1.78-1.78v-3.56c0-.98.8-1.78,1.78-1.78h5.92c.98,0,1.78.8,1.78,1.78v3.55Z"/>
  <path class="cls-1" d="M8,9.16c-.33,0-.59.27-.59.59v1.19c-.01.33.24.6.57.62s.6-.24.62-.57v-1.23c0-.33-.27-.59-.59-.59Z"/>
  <polygon class="cls-1" points="8 9.16 8 9.16 8 9.16 8 9.16"/>
</svg>