<svg id="Layer_1" data-name="Layer 1" xmlns="http://www.w3.org/2000/svg" viewBox="0 0 24 24">
  <defs>
    <style>
      .cls-1 {
        fill: #000;
        stroke-width: 0px;
      }
    </style>
  </defs>
  <path class="cls-1" d="M14,3.18v-1.18c0-.55-.45-1-1-1s-1,.45-1,1v1h-1v-1c0-.55-.45-1-1-1s-1,.45-1,1v1h-1v-1c0-.55-.45-1-1-1s-1,.45-1,1v1h-1v-1c0-.55-.45-1-1-1s-1,.45-1,1v1.18c-1.16.41-2,1.51-2,2.82v12c0,2.76,2.24,5,5,5h5c2.76,0,5-2.24,5-5V6c0-1.3-.84-2.4-2-2.82ZM14,18c0,1.65-1.35,3-3,3h-5c-1.65,0-3-1.35-3-3V6c0-.55.45-1,1-1h9c.55,0,1,.45,1,1v12Z"/>
  <path class="cls-1" d="M20,1c-1.65,0-3,1.35-3,3v15.17c0,.8.31,1.56.88,2.12l1.41,1.41c.2.2.45.29.71.29s.51-.1.71-.29l1.41-1.41c.57-.57.88-1.32.88-2.12V4c0-1.65-1.35-3-3-3ZM21,19.17c0,.27-.1.52-.29.71l-.71.71-.71-.71c-.19-.19-.29-.44-.29-.71V4c0-.55.45-1,1-1s1,.45,1,1v15.17Z"/>
  <path class="cls-1" d="M11,7h-5c-.55,0-1,.45-1,1s.45,1,1,1h5c.55,0,1-.45,1-1s-.45-1-1-1Z"/>
  <path class="cls-1" d="M11,11h-5c-.55,0-1,.45-1,1s.45,1,1,1h5c.55,0,1-.45,1-1s-.45-1-1-1Z"/>
  <path class="cls-1" d="M8,15h-2c-.55,0-1,.45-1,1s.45,1,1,1h2c.55,0,1-.45,1-1s-.45-1-1-1Z"/>
</svg>