<svg id="Layer_1" data-name="Layer 1" xmlns="http://www.w3.org/2000/svg" viewBox="0 0 24 24">
  <defs>
    <style>
      .cls-1 {
        fill: #000;
        stroke-width: 0px;
      }
    </style>
  </defs>
  <path class="cls-1" d="M19.96,18.03c1.28-1.68,2.04-3.76,2.04-6.03,0-3.23-1.54-6.09-3.92-7.92-.04-.04-.08-.06-.12-.09-1.67-1.24-3.73-1.99-5.96-1.99C6.49,2,2,6.49,2,12s4.49,10,10,10c3.21,0,6.06-1.53,7.89-3.88,0,0,0,0,.01,0,.02-.02.03-.05.05-.08ZM20,12c0,1.38-.35,2.68-.97,3.82l-.53-.53c-.07-.07-.1-.15-.1-.25v-1.69c0-1.3-1.05-2.35-2.35-2.35h-3.15c-.44,0-.8-.36-.8-.8v-.45c0-.19.16-.35.35-.35,1.3,0,2.35-1.05,2.35-2.35,0-.19.16-.35.35-.35h.13c.36,0,.73-.09,1.05-.25l.93-.46c1.68,1.47,2.74,3.62,2.74,6.01ZM4.11,13.24l2.27,1.83c.5.4,1.12.62,1.76.62h2.06c.44,0,.8.36.8.8v3.43c-3.53-.44-6.34-3.19-6.89-6.69ZM13,19.93v-3.43c0-1.54-1.26-2.8-2.8-2.8h-2.06c-.18,0-.36-.06-.5-.18l-3.52-2.84c.63-3.78,3.92-6.68,7.88-6.68,1.16,0,2.26.25,3.26.7h-.11c-1.3,0-2.35,1.05-2.35,2.35,0,.19-.16.35-.35.35-1.3,0-2.35,1.05-2.35,2.35v.45c0,1.54,1.26,2.8,2.8,2.8h3.15c.19,0,.35.16.35.35v1.69c0,.63.24,1.22.69,1.66l.75.75c-1.25,1.33-2.94,2.24-4.84,2.48Z"/>
</svg>