<svg id="Layer_1" data-name="Layer 1" xmlns="http://www.w3.org/2000/svg" viewBox="0 0 24 24">
  <defs>
    <style>
      .cls-1 {
        fill: #000;
        stroke-width: 0px;
      }
    </style>
  </defs>
  <path class="cls-1" d="M20.12,5.71l-3.83-3.83c-.57-.57-1.32-.88-2.12-.88H6c-1.65,0-3,1.35-3,3v16c0,1.65,1.35,3,3,3h12c1.65,0,3-1.35,3-3V7.83c0-.8-.31-1.56-.88-2.12ZM18.59,7h-3.59v-3.59l3.59,3.59ZM19,20c0,.55-.45,1-1,1H6c-.55,0-1-.45-1-1V4c0-.55.45-1,1-1h7v5c0,.55.45,1,1,1h5v11Z"/>
  <path class="cls-1" d="M8,7h2c.55,0,1-.45,1-1s-.45-1-1-1h-2c-.55,0-1,.45-1,1s.45,1,1,1Z"/>
  <path class="cls-1" d="M8,11h2c.55,0,1-.45,1-1s-.45-1-1-1h-2c-.55,0-1,.45-1,1s.45,1,1,1Z"/>
  <path class="cls-1" d="M7,15v2c0,1.1.9,2,2,2h6c1.1,0,2-.9,2-2v-2c0-1.1-.9-2-2-2h-6c-1.1,0-2,.9-2,2ZM15,17h-6v-2h6v2Z"/>
</svg>