<svg id="Layer_1" data-name="Layer 1" xmlns="http://www.w3.org/2000/svg" viewBox="0 0 24 24">
  <defs>
    <style>
      .cls-1 {
        fill: #000;
        stroke-width: 0px;
      }
    </style>
  </defs>
  <path class="cls-1" d="M21.18,10.38c-.36-.42-.99-.47-1.41-.12-.42.36-.47.99-.12,1.41.87,1.02,1.34,2.32,1.34,3.66v3.59c0,1.15-.93,2.08-2.08,2.08h-3.59c-1.31,0-2.59-.46-3.6-1.29-.43-.35-1.06-.29-1.41.13-.35.43-.29,1.06.13,1.41,1.37,1.13,3.1,1.75,4.88,1.75h3.59c2.25,0,4.08-1.83,4.08-4.08v-3.59c0-1.81-.65-3.58-1.82-4.96Z"/>
  <path class="cls-1" d="M10.2,5.13c-1.7-.58-3.58.3-4.18,1.96-.19.52.08,1.09.6,1.28.52.19,1.09-.08,1.28-.6.23-.65.98-.98,1.65-.75.51.17.85.64.85,1.15,0,.53-1,1.09-1.54,1.27-.52.17-.81.74-.63,1.26.14.42.53.68.95.68.1,0,.21-.02.32-.05.3-.1,2.91-1.03,2.91-3.17,0-1.37-.88-2.59-2.2-3.05Z"/>
  <path class="cls-1" d="M9.19,12.07h0c-.55,0-1,.45-1,1s.45,1,1,1,1-.45,1-1-.45-1-1-1Z"/>
  <path class="cls-1" d="M14.68,18.52c.19.17.43.26.67.26s.48-.09.67-.26l2.55-2.33c.41-.37.44-1.01.06-1.41-.37-.41-1-.44-1.41-.06l-1.88,1.72-.71-.64c1.7-1.38,2.8-3.48,2.8-5.83v-1.44c0-4.14-3.36-7.5-7.5-7.5h-1.44C4.36,1,1,4.36,1,8.5v4.94c0,2.21,1.79,4,4,4h4.94c1.03,0,2.02-.21,2.92-.59l1.82,1.66ZM5,15.44c-1.1,0-2-.9-2-2v-4.94c0-3.03,2.47-5.5,5.5-5.5h1.44c3.03,0,5.5,2.47,5.5,5.5v1.44c0,3.03-2.47,5.5-5.5,5.5h-4.94Z"/>
</svg>