<svg id="Layer_1" data-name="Layer 1" xmlns="http://www.w3.org/2000/svg" viewBox="0 0 24 24">
  <defs>
    <style>
      .cls-1 {
        fill: #000;
        stroke-width: 0px;
      }
    </style>
  </defs>
  <path class="cls-1" d="M8.88,19h-4.5c-.55,0-1-.45-1-1V4c0-.55.45-1,1-1h7v5c0,.55.45,1,1,1h5v1.02c0,.55.45,1,1,1s1-.45,1-1v-2.2c0-.8-.31-1.56-.88-2.12l-3.83-3.83c-.57-.57-1.32-.88-2.12-.88H4.38c-1.65,0-3,1.35-3,3v14c0,1.65,1.35,3,3,3h4.5c.55,0,1-.45,1-1s-.45-1-1-1ZM13.38,3.42l3.59,3.58h-3.59v-3.58Z"/>
  <path class="cls-1" d="M22.02,12.35h0c-.91-.91-2.4-.91-3.31,0l-6.74,6.74c-.44.44-.68,1.04-.68,1.65v1.26c0,.6.49,1.08,1.08,1.08h1.26c.62,0,1.21-.24,1.66-.69l6.74-6.74c.91-.91.91-2.4,0-3.31ZM20.49,14.13l-6.74,6.74s-.08.05-.12.05h-.17v-.17s.02-.09.05-.12l6.74-6.74c.07-.07.18-.07.24,0s.07.18,0,.24Z"/>
  <path class="cls-1" d="M11.41,12.23c-.55,0-1,.45-1,1,0,1-1,1.77-1.41,1.77-.07,0-.18-.06-.32-.16.17-.31.34-.65.51-1.02.48-1.07.65-2.2.5-3.27-.31-2.27-1.74-2.52-2.34-2.52s-2.03.25-2.34,2.52c-.15,1.07.03,2.2.5,3.28.15.33.35.72.61,1.11-.06.04-.1.06-.12.07-.55,0-1,.45-1,1s.45,1,1,1c.51,0,1-.19,1.46-.58.46.35.98.58,1.54.58,1.54,0,3.41-1.68,3.41-3.77,0-.55-.45-1-1-1ZM7.36,13.01s0,.02-.01.03c0,0,0-.02-.01-.03-.33-.73-.45-1.49-.35-2.19.03-.18.13-.79.36-.79s.34.6.36.79c.1.7-.02,1.46-.35,2.19Z"/>
</svg>