<svg id="Layer_1" data-name="Layer 1" xmlns="http://www.w3.org/2000/svg" viewBox="0 0 24 24">
  <defs>
    <style>
      .cls-1 {
        fill: #000;
        stroke-width: 0px;
      }
    </style>
  </defs>
  <path class="cls-1" d="M12.5,21H4.5c-.55,0-1-.45-1-1V4c0-.55.45-1,1-1h7v5c0,.55.45,1,1,1h6c.55,0,1-.45,1-1v-.17c0-.8-.31-1.56-.88-2.12l-3.83-3.83c-.57-.57-1.32-.88-2.12-.88H4.5c-1.65,0-3,1.35-3,3v16c0,1.65,1.35,3,3,3h8c.55,0,1-.45,1-1s-.45-1-1-1ZM13.5,3.41l3.59,3.59h-3.59v-3.59Z"/>
  <path class="cls-1" d="M20.17,15.81l-3.61-.6c-.38-.06-.66-.39-.66-.78,0-.43.35-.79.79-.79h3.03c.32,0,.6.19.73.48.21.51.8.75,1.31.54.51-.21.75-.8.54-1.31-.43-1.04-1.44-1.72-2.57-1.72h-.51v-.65c0-.55-.45-1-1-1s-1,.45-1,1v.65h-.51c-1.54,0-2.79,1.25-2.79,2.79,0,1.37.98,2.52,2.33,2.75l3.61.6c.38.06.66.39.66.78,0,.43-.35.79-.79.79h-3.03c-.32,0-.6-.19-.73-.48-.21-.51-.8-.75-1.31-.54-.51.21-.75.8-.54,1.31.43,1.04,1.44,1.72,2.57,1.72h.51v.65c0,.55.45,1,1,1s1-.45,1-1v-.65h.51c1.54,0,2.79-1.25,2.79-2.79,0-1.37-.98-2.52-2.33-2.75Z"/>
  <path class="cls-1" d="M6.5,7h2c.55,0,1-.45,1-1s-.45-1-1-1h-2c-.55,0-1,.45-1,1s.45,1,1,1Z"/>
  <path class="cls-1" d="M6.5,11h2c.55,0,1-.45,1-1s-.45-1-1-1h-2c-.55,0-1,.45-1,1s.45,1,1,1Z"/>
  <path class="cls-1" d="M11.5,15c.55,0,1-.45,1-1s-.45-1-1-1h-4c-1.1,0-2,.9-2,2v2c0,1.1.9,2,2,2h4c.55,0,1-.45,1-1s-.45-1-1-1h-4v-2h4Z"/>
</svg>