<svg id="Layer_1" data-name="Layer 1" xmlns="http://www.w3.org/2000/svg" version="1.1" viewBox="0 0 24 24">
  <defs>
    <style>
      .cls-1 {
        fill: #000;
        stroke-width: 0px;
      }
    </style>
  </defs>
  <path class="cls-1" d="M21.1,5.7l-2.8-2.8c-.6-.6-1.3-.9-2.1-.9H6c-2.2,0-4,1.8-4,4v12c0,2.2,1.8,4,4,4h12c2.2,0,4-1.8,4-4V7.8c0-.8-.3-1.6-.9-2.1ZM15,4v1.7c0,.2,0,.3,0,.3h-5.8c0,0,0-.2,0-.3v-1.7h6ZM20,18c0,1.1-.9,2-2,2H6c-1.1,0-2-.9-2-2V6c0-1.1.9-2,2-2h1v1.7c0,1.3.9,2.3,2,2.3h6c1.1,0,2-1,2-2.3v-1.3l2.7,2.7c.2.2.3.4.3.7v10.2Z"/>
  <path class="cls-1" d="M12,10c-2.2,0-4,1.8-4,4s1.8,4,4,4,4-1.8,4-4-1.8-4-4-4ZM12,16c-1.1,0-2-.9-2-2s.9-2,2-2,2,.9,2,2-.9,2-2,2Z"/>
</svg>