<svg id="Layer_1" data-name="Layer 1" xmlns="http://www.w3.org/2000/svg" viewBox="0 0 24 24">
  <defs>
    <style>
      .cls-1 {
        fill: #000;
        stroke-width: 0px;
      }
    </style>
  </defs>
  <path class="cls-1" d="M12,21H4c-.55,0-1-.45-1-1V4c0-.55.45-1,1-1h7v5c0,.55.45,1,1,1h6c.55,0,1-.45,1-1v-.17c0-.8-.31-1.56-.88-2.12l-3.83-3.83c-.57-.57-1.32-.88-2.12-.88H4c-1.65,0-3,1.35-3,3v16c0,1.65,1.35,3,3,3h8c.55,0,1-.45,1-1s-.45-1-1-1ZM13,3.41l3.59,3.59h-3.59v-3.59Z"/>
  <path class="cls-1" d="M10,12h-4c-.55,0-1,.45-1,1s.45,1,1,1h4c.55,0,1-.45,1-1s-.45-1-1-1Z"/>
  <path class="cls-1" d="M10,16h-4c-.55,0-1,.45-1,1s.45,1,1,1h4c.55,0,1-.45,1-1s-.45-1-1-1Z"/>
  <path class="cls-1" d="M22.45,12.11l-4-2c-.28-.14-.61-.14-.89,0l-4,2c-.34.17-.55.52-.55.89v4c0,1.57.75,3.06,2,4l2.4,1.8c.18.13.39.2.6.2s.42-.07.6-.2l2.4-1.8c1.25-.94,2-2.43,2-4v-4c0-.38-.21-.73-.55-.89ZM21,17c0,.94-.45,1.84-1.2,2.4l-1.8,1.35-1.8-1.35c-.75-.56-1.2-1.46-1.2-2.4v-3.38l3-1.5,3,1.5v3.38Z"/>
</svg>