<svg xmlns="http://www.w3.org/2000/svg" viewBox="0 0 16 16">
  <path class="cls-1" d="M8,13.83H3.92c-.96,0-1.75-.78-1.75-1.75V3.91c0-.96.78-1.75,1.75-1.75h2.63c.1,0,.19,0,.28.01v2.9c0,.96.78,1.75,1.75,1.75h3.39c.18,0,.35-.08.46-.23s.15-.33.1-.5c-.18-.71-.55-1.36-1.07-1.88l-2.03-2.03c-.77-.77-1.8-1.2-2.89-1.2h-2.63c-1.61,0-2.91,1.31-2.91,2.91v8.16c0,1.61,1.31,2.91,2.91,2.91h4.08c.32,0,.58-.26.58-.58s-.26-.58-.58-.58ZM8,2.55c.22.13.43.28.61.47l2.03,2.03c.18.18.34.39.47.61h-2.53c-.32,0-.58-.26-.58-.58v-2.53ZM7.42,11.49c0,.32-.26.58-.58.58h-2.91c-.32,0-.58-.26-.58-.58s.26-.58.58-.58h2.91c.32,0,.58.26.58.58ZM7.42,9.16c0,.32-.26.58-.58.58h-2.91c-.32,0-.58-.26-.58-.58s.26-.58.58-.58h2.91c.32,0,.58.26.58.58ZM14.2,8.18l-2.22-.74c-.12-.04-.25-.04-.37,0l-2.22.74c-.48.16-.8.6-.8,1.11v1.94c0,2.08,2.17,3.32,2.83,3.66,0,0,.18.12.38.12s.34-.09.34-.09c.67-.27,2.87-1.34,2.87-3.69v-1.94c0-.5-.32-.95-.8-1.11h0ZM13.83,11.22c0,1.5-1.41,2.29-2.01,2.55-.53-.29-2.07-1.22-2.07-2.55v-1.94l2.04-.68,2.04.68v1.94Z"/>
</svg>