<svg id="Layer_1" data-name="Layer 1" xmlns="http://www.w3.org/2000/svg" viewBox="0 0 24 24">
  <defs>
    <style>
      .cls-1 {
        fill: #000;
        stroke-width: 0px;
      }
    </style>
  </defs>
  <path class="cls-1" d="M12,7.67c-2.39,0-4.33,1.94-4.33,4.33s1.94,4.33,4.33,4.33,4.33-1.94,4.33-4.33-1.94-4.33-4.33-4.33ZM12,14.33c-1.29,0-2.33-1.05-2.33-2.33s1.05-2.33,2.33-2.33,2.33,1.05,2.33,2.33-1.05,2.33-2.33,2.33Z"/>
  <path class="cls-1" d="M20.05,8.78s-.07,0-.1-.07c-.03-.07,0-.1.02-.12.56-.56.86-1.3.86-2.09s-.31-1.53-.86-2.09l-.38-.38c-1.12-1.12-3.06-1.12-4.18,0-.02.02-.05.05-.12.02-.07-.03-.07-.08-.07-.1,0-1.63-1.32-2.95-2.95-2.95h-.54c-1.63,0-2.95,1.32-2.95,2.95,0,.03,0,.07-.07.1-.07.03-.1,0-.12-.02-1.12-1.12-3.06-1.12-4.18,0l-.38.38c-.56.56-.86,1.3-.86,2.09s.31,1.53.86,2.09c.02.02.05.05.02.12-.03.07-.08.07-.1.07-1.63,0-2.95,1.32-2.95,2.95v.54c0,1.63,1.32,2.95,2.95,2.95.03,0,.07,0,.1.07.03.07,0,.1-.02.12-.56.56-.86,1.3-.86,2.09s.31,1.53.86,2.09l.38.38c1.12,1.12,3.06,1.12,4.18,0,.02-.02.05-.05.12-.02.07.03.07.08.07.1,0,1.63,1.32,2.95,2.95,2.95h.54c1.63,0,2.95-1.32,2.95-2.95,0-.03,0-.07.07-.1.07-.03.1,0,.12.02,1.12,1.12,3.06,1.12,4.18,0l.38-.38c.56-.56.86-1.3.86-2.09s-.31-1.53-.86-2.09c-.02-.02-.05-.05-.02-.12.03-.07.07-.07.1-.07,1.63,0,2.95-1.32,2.95-2.95v-.54c0-1.63-1.32-2.95-2.95-2.95ZM21,12.27c0,.53-.43.95-.95.95-.86,0-1.62.51-1.95,1.3s-.15,1.69.46,2.3c.18.18.28.42.28.67s-.1.49-.28.67l-.38.38c-.37.37-.98.37-1.35,0-.61-.61-1.51-.78-2.3-.46-.79.33-1.3,1.09-1.3,1.95,0,.53-.43.95-.95.95h-.54c-.53,0-.95-.43-.95-.95,0-.86-.51-1.62-1.3-1.95-.26-.11-.54-.16-.81-.16-.55,0-1.09.21-1.49.62-.37.37-.98.37-1.35,0l-.38-.38c-.18-.18-.28-.42-.28-.67s.1-.49.28-.67c.61-.61.79-1.51.46-2.3s-1.09-1.3-1.95-1.3c-.53,0-.95-.43-.95-.95v-.54c0-.53.43-.95.95-.95.86,0,1.62-.51,1.95-1.3.33-.79.15-1.69-.46-2.3-.18-.18-.28-.42-.28-.67s.1-.49.28-.67l.38-.38c.36-.36.99-.36,1.35,0,.61.61,1.51.79,2.3.46.79-.33,1.3-1.09,1.3-1.95,0-.53.43-.95.95-.95h.54c.53,0,.95.43.95.95,0,.86.51,1.62,1.3,1.95.79.33,1.69.15,2.3-.46.36-.36.99-.36,1.35,0l.38.38c.18.18.28.42.28.67s-.1.49-.28.67c-.61.61-.79,1.51-.46,2.3.33.79,1.09,1.3,1.95,1.3.53,0,.95.43.95.95v.54Z"/>
</svg>