<svg id="Layer_1" data-name="Layer 1" xmlns="http://www.w3.org/2000/svg" viewBox="0 0 24 24">
  <defs>
    <style>
      .cls-1 {
        fill: #000;
        stroke-width: 0px;
      }
    </style>
  </defs>
  <path class="cls-1" d="M18,14c-1.2,0-2.27.54-3,1.38l-5.09-2.55c.06-.27.09-.55.09-.84s-.03-.57-.09-.84l5.09-2.55c.73.84,1.8,1.38,3,1.38,2.21,0,4-1.79,4-4s-1.79-4-4-4-4,1.79-4,4c0,.29.03.57.09.84l-5.09,2.55c-.73-.84-1.8-1.38-3-1.38-2.21,0-4,1.79-4,4s1.79,4,4,4c1.2,0,2.27-.54,3-1.38l5.09,2.55c-.06.27-.09.55-.09.84,0,2.21,1.79,4,4,4s4-1.79,4-4-1.79-4-4-4ZM18,4c1.1,0,2,.9,2,2s-.9,2-2,2-2-.9-2-2,.9-2,2-2ZM6,14c-1.1,0-2-.9-2-2s.9-2,2-2,2,.9,2,2-.9,2-2,2ZM18,20c-1.1,0-2-.9-2-2s.9-2,2-2,2,.9,2,2-.9,2-2,2Z"/>
</svg>