<svg id="Layer_1" data-name="Layer 1" xmlns="http://www.w3.org/2000/svg" viewBox="0 0 24 24">
  <defs>
    <style>
      .cls-1 {
        fill: #000;
        stroke-width: 0px;
      }
    </style>
  </defs>
  <path class="cls-1" d="M22,23H2c-.55,0-1-.45-1-1v-4.5c0-.83.67-1.5,1.5-1.5h3.5v-3.5c0-.83.67-1.5,1.5-1.5h3.5v-3.5c0-.83.67-1.5,1.5-1.5h3.5v-3.5c0-.83.67-1.5,1.5-1.5h4.5c.55,0,1,.45,1,1v20c0,.55-.45,1-1,1ZM3,21h18V3h-3v3.5c0,.83-.67,1.5-1.5,1.5h-3.5v3.5c0,.83-.67,1.5-1.5,1.5h-3.5v3.5c0,.83-.67,1.5-1.5,1.5h-3.5v3Z"/>
</svg>