<svg id="Layer_1" xmlns="http://www.w3.org/2000/svg" version="1.1" viewBox="0 0 24 24">
  <!-- Generator: Adobe Illustrator 29.0.1, SVG Export Plug-In . SVG Version: 2.1.0 Build 192)  -->
  <g>
    <path d="M4.5,13.8c-.5,0-.9-.2-1.2-.5-.3-.3-.5-.8-.5-1.2s0-.2,0-.3c0-.1,0-.2.1-.3,0-.1.1-.2.2-.3,0-.1.1-.2.2-.3.6-.7,1.8-.7,2.5,0,0,0,.1.2.2.3,0,0,.1.2.2.3,0,.1,0,.2,0,.3,0,.1,0,.2,0,.3,0,.5-.2.9-.5,1.2-.3.3-.8.5-1.2.5Z"/>
    <path d="M4.5,6.8c-.5,0-.9-.2-1.2-.5-.2-.2-.3-.4-.4-.6,0-.2-.1-.4-.1-.7s0-.2,0-.3c0-.1,0-.2,0-.3,0-.1.1-.2.2-.3,0-.1.1-.2.2-.3.7-.7,1.8-.7,2.5,0,0,0,.1.2.2.3,0,0,.1.2.2.3,0,.1,0,.2,0,.3,0,.1,0,.2,0,.3,0,.2,0,.5-.1.7,0,.2-.2.4-.4.6-.2.2-.4.3-.6.4s-.4.1-.7.1Z"/>
    <path d="M4.5,20.8c-.5,0-.9-.2-1.2-.5-.3-.3-.5-.8-.5-1.2s.2-.9.5-1.2c.4-.4,1-.6,1.6-.5.1,0,.2,0,.3,0,0,0,.2,0,.3.2,0,0,.2.1.3.2,0,0,.1.2.2.3,0,0,.1.2.2.3,0,.1,0,.2,0,.3,0,.1,0,.2,0,.3,0,.5-.2.9-.5,1.2-.3.3-.8.5-1.2.5Z"/>
  </g>
  <g>
    <path d="M20.5,6h-11c-.6,0-1-.4-1-1s.4-1,1-1h11c.6,0,1,.4,1,1s-.4,1-1,1Z"/>
    <path d="M20.5,13h-11c-.6,0-1-.4-1-1s.4-1,1-1h11c.6,0,1,.4,1,1s-.4,1-1,1Z"/>
    <path d="M20.5,20h-11c-.6,0-1-.4-1-1s.4-1,1-1h11c.6,0,1,.4,1,1s-.4,1-1,1Z"/>
  </g>
</svg>