<svg id="Layer_1" data-name="Layer 1" xmlns="http://www.w3.org/2000/svg" viewBox="0 0 24 24">
  <defs>
    <style>
      .cls-1 {
        fill: #000;
        stroke-width: 0px;
      }
    </style>
  </defs>
  <path class="cls-1" d="M7.27,6.27c-.55,0-1,.45-1,1h0c0,.56.45,1,1,1s1-.45,1-1-.45-1-1-1Z"/>
  <path class="cls-1" d="M21.66,9.7L13.75,1.79c-.19-.19-.44-.29-.71-.29H2.5c-.27,0-.52.1-.71.29s-.29.44-.29.71v10.55c0,.27.1.52.29.71l7.91,7.91c.54.54,1.26.84,2.02.84s1.48-.3,2.03-.84l7.91-7.91c.54-.54.84-1.26.84-2.03s-.3-1.48-.84-2.02ZM20.25,12.34l-7.91,7.91c-.33.33-.89.33-1.22,0l-7.62-7.62V3.5s9.13,0,9.13,0l7.62,7.62c.16.16.25.38.25.61s-.09.45-.25.61Z"/>
</svg>