<svg xmlns="http://www.w3.org/2000/svg" viewBox="0 0 16 16">
  <g id="_그룹_65" data-name="그룹 65">
    <g id="_그룹_64" data-name="그룹 64">
      <g id="_그룹_63" data-name="그룹 63">
        <g id="_그룹_62" data-name="그룹 62">
          <path id="_패스_35" data-name="패스 35" class="cls-1" d="M12.08,3.33h-.64c-.28-1.36-1.47-2.33-2.86-2.33h-1.17c-1.39,0-2.58.98-2.86,2.33h-.64c-1.61,0-2.91,1.31-2.92,2.92v5.83c0,1.61,1.31,2.92,2.92,2.92h8.17c1.61,0,2.91-1.31,2.92-2.92v-5.83c0-1.61-1.31-2.91-2.92-2.92M7.42,2.17h1.17c.74,0,1.4.47,1.64,1.17h-4.45c.25-.7.9-1.16,1.64-1.17M3.92,4.5h8.17c.97,0,1.75.78,1.75,1.75h0v1.75H2.17v-1.75c0-.97.78-1.75,1.75-1.75M12.08,13.84H3.92c-.97,0-1.75-.78-1.75-1.75v-2.92h5.25v.58c0,.32.26.58.58.58s.58-.26.58-.58v-.58h5.25v2.92c0,.97-.78,1.75-1.75,1.75,0,0,0,0,0,0"/>
        </g>
      </g>
    </g>
  </g>
</svg>