<svg xmlns="http://www.w3.org/2000/svg" version="1.1" viewBox="0 0 24 24">
  <!-- Generator: Adobe Illustrator 28.7.1, SVG Export Plug-In . SVG Version: 1.2.0 Build 142)  -->
  <g>
    <g id="Layer_1">
      <g>
        <path d="M4.5,20c-.3,0-.5,0-.7-.3-.4-.4-.4-1,0-1.4l6.3-6.3L3.8,5.7c-.4-.4-.4-1,0-1.4s1-.4,1.4,0l7,7c.4.4.4,1,0,1.4l-7,7c-.2.2-.5.3-.7.3Z"/>
        <path d="M12.5,20c-.3,0-.5,0-.7-.3-.4-.4-.4-1,0-1.4l6.3-6.3-6.3-6.3c-.4-.4-.4-1,0-1.4s1-.4,1.4,0l7,7c.4.4.4,1,0,1.4l-7,7c-.2.2-.5.3-.7.3Z"/>
      </g>
    </g>
  </g>
</svg>