<svg id="Layer_1" data-name="Layer 1" xmlns="http://www.w3.org/2000/svg" viewBox="0 0 24 24">
  <defs>
    <style>
      .cls-1 {
        fill: #000;
        stroke-width: 0px;
      }
    </style>
  </defs>
  <path class="cls-1" d="M21,15.5c-.55,0-1,.45-1,1v2.25c0,.69-.56,1.25-1.25,1.25H5.25c-.69,0-1.25-.56-1.25-1.25v-2.25c0-.55-.45-1-1-1s-1,.45-1,1v2.25c0,1.79,1.46,3.25,3.25,3.25h13.5c1.79,0,3.25-1.46,3.25-3.25v-2.25c0-.55-.45-1-1-1Z"/>
  <path class="cls-1" d="M8.21,8.21l2.79-2.79v11.09c0,.55.45,1,1,1s1-.45,1-1V5.41l2.79,2.79c.2.2.45.29.71.29s.51-.1.71-.29c.39-.39.39-1.02,0-1.41l-4.5-4.5c-.09-.09-.2-.17-.33-.22-.24-.1-.52-.1-.76,0-.12.05-.23.12-.33.22l-4.5,4.5c-.39.39-.39,1.02,0,1.41s1.02.39,1.41,0Z"/>
</svg>