<svg id="Layer_1" data-name="Layer 1" xmlns="http://www.w3.org/2000/svg" viewBox="0 0 24 24">
  <defs>
    <style>
      .cls-1 {
        fill: #000;
        stroke-width: 0px;
      }
    </style>
  </defs>
  <path class="cls-1" d="M23.04,17.54L14.56,3.39c-.42-.69-1.07-1.17-1.85-1.36-.78-.19-1.58-.07-2.27.35-.41.25-.76.6-1.01,1.01,0,0,0,0,0,0L.95,17.55c-.4.69-.51,1.5-.3,2.28s.7,1.42,1.4,1.82c.45.26.95.4,1.48.4h16.95c1.65-.02,2.98-1.38,2.97-3.03,0-.51-.15-1.02-.41-1.48ZM20.47,20.05H3.54c-.17,0-.34-.05-.49-.13-.23-.13-.4-.35-.47-.61-.07-.26-.03-.53.09-.75L11.15,4.43c.08-.14.2-.25.34-.33.23-.14.5-.18.76-.12.26.06.48.22.61.45l8.46,14.13c.09.15.13.32.13.49,0,.55-.44,1.01-.98,1.01Z"/>
  <path class="cls-1" d="M12,14.05c.55,0,1-.45,1-1v-4c0-.55-.45-1-1-1s-1,.45-1,1v4c0,.55.45,1,1,1Z"/>
  <path class="cls-1" d="M12.01,16.05h-.01c-.55,0-1,.45-1,1s.45,1,1.01,1,1-.45,1-1-.45-1-1-1Z"/>
</svg>